<svg xmlns="http://www.w3.org/2000/svg" viewBox="0 0 24 24"><path d="M11 17h2v-6h-2Zm1-8a.97.97 0 0 0 .713-.288A.97.97 0 0 0 13 8a.97.97 0 0 0-.287-.713A.97.97 0 0 0 12 7a.97.97 0 0 0-.712.287A.97.97 0 0 0 11 8q0 .424.288.712A.97.97 0 0 0 12 9"/><path d="M12 2a9.7 9.7 0 0 0-3.9.787 10.1 10.1 0 0 0-3.174 2.139Q3.576 6.276 2.787 8.1A9.7 9.7 0 0 0 2 12q0 2.075.787 3.9a10.1 10.1 0 0 0 2.139 3.174q1.35 1.35 3.174 2.139A9.7 9.7 0 0 0 12 22a9.7 9.7 0 0 0 3.9-.787 10.1 10.1 0 0 0 3.174-2.139q1.35-1.35 2.139-3.174A9.7 9.7 0 0 0 22 12a9.7 9.7 0 0 0-.787-3.9 10.1 10.1 0 0 0-2.139-3.174q-1.35-1.35-3.174-2.139A9.7 9.7 0 0 0 12 2m0 2q3.35 0 5.676 2.324Q20 8.65 20 12t-2.324 5.676Q15.35 20 12 20t-5.676-2.324Q4 15.35 4 12t2.324-5.676Q8.65 4 12 4"/></svg>