<svg xmlns="http://www.w3.org/2000/svg" viewBox="0 0 682.667 682.667"><defs><clipPath id="a" clipPathUnits="userSpaceOnUse"><path d="M2560 0c1413.85 0 2560 1146.15 2560 2560S3973.85 5120 2560 5120 0 3973.85 0 2560 1146.15 0 2560 0" clip-rule="evenodd"/></clipPath><clipPath id="b" clipPathUnits="userSpaceOnUse"><path d="M0 0h5120v5120H0Z"/></clipPath><clipPath id="c" clipPathUnits="userSpaceOnUse"><path d="M3248.57 2735.96c-183.49 0-277.25-144.42-277.25-362 0-205.66 101.38-360.04 277.25-360.04 198.89 0 273.45 182.02 273.45 360.04-.14 185.9-93.84 362-273.51 362M2761 3275.92h217.97v-522.15h3.85c59.28 98.87 183.55 160.21 294.46 160.21 311.63 0 462.74-245.35 462.74-544.05 0-274.84-133.84-533.97-426.43-533.97-133.85 0-277.25 33.54-342.29 168.09h-3.78v-140.51h-206.53v1412.35z" clip-rule="evenodd"/></clipPath><clipPath id="d" clipPathUnits="userSpaceOnUse"><path d="M0 0h5120v5120H0Z"/></clipPath><clipPath id="e" clipPathUnits="userSpaceOnUse"><path d="M4543.89 2544.02c-17.22 124.62-105.15 191.92-225.61 191.92-112.87 0-271.54-61.35-271.54-371.91 0-170.13 72.64-350.15 261.97-350.15 126.18 0 214.11 87.14 235.18 233.51h217.97c-40.16-265.06-198.84-411.43-453.15-411.43-309.78 0-479.95 227.42-479.95 528.07 0 308.56 162.53 549.89 487.6 549.89 229.44 0 424.54-118.68 445.5-369.91h-217.61z" clip-rule="evenodd"/></clipPath><clipPath id="f" clipPathUnits="userSpaceOnUse"><path d="M0 0h5120v5120H0Z"/></clipPath><clipPath id="g" clipPathUnits="userSpaceOnUse"><path d="M1998.95 1866.62H364.078l763.462 1409.3h1634.88z" clip-rule="evenodd"/></clipPath><clipPath id="h" clipPathUnits="userSpaceOnUse"><path d="M0 0h5120v5120H0Z"/></clipPath></defs><g clip-path="url(#a)" transform="matrix(.13333 0 0 -.13333 0 682.667)"><g clip-path="url(#b)"><path d="M-50-50h5220v5220H-50Z" style="fill:#17a0c4;fill-opacity:1;fill-rule:nonzero;stroke:none"/></g></g><g clip-path="url(#c)" transform="matrix(.13333 0 0 -.13333 0 682.667)"><g clip-path="url(#d)"><path d="M2710.99 1785.96h1079.03v1539.96H2710.99Z" style="fill:#fff;fill-opacity:1;fill-rule:nonzero;stroke:none"/></g></g><g clip-path="url(#e)" transform="matrix(.13333 0 0 -.13333 0 682.667)"><g clip-path="url(#f)"><path d="M3778.76 1785.96h1033.1v1177.96h-1033.1z" style="fill:#fff;fill-opacity:1;fill-rule:nonzero;stroke:none"/></g></g><g clip-path="url(#g)" transform="matrix(.13333 0 0 -.13333 0 682.667)"><g clip-path="url(#h)"><path d="M314.078 1816.62h2498.34v1509.3H314.078Z" style="fill:#fff;fill-opacity:1;fill-rule:nonzero;stroke:none"/></g></g></svg>