<svg xmlns="http://www.w3.org/2000/svg" viewBox="0 0 18 18"><path d="M4.3 3.353a.876.876 0 1 1 1.217-1.261L7.41 3.917q.08.079.137.17h2.862a1 1 0 0 1 .137-.17l1.892-1.825a.876.876 0 0 1 1.216 1.26l-.76.735h.567a3.57 3.57 0 0 1 3.568 3.569v4.911a3.57 3.57 0 0 1-3.568 3.569H4.539a3.57 3.57 0 0 1-3.568-3.569V7.656a3.57 3.57 0 0 1 3.568-3.569h.523zm.24 2.455c-.986 0-1.785.8-1.785 1.785v5.037c0 .986.799 1.785 1.784 1.785h8.922c.985 0 1.784-.8 1.784-1.785V7.593c0-.986-.799-1.785-1.784-1.785zm.891 3.474a.892.892 0 0 1 1.785 0v.798a.892.892 0 1 1-1.785 0zm6.245-.892c-.492 0-.892.4-.892.892v.798a.892.892 0 1 0 1.785 0v-.798c0-.492-.4-.892-.893-.892" style="stroke-width:.892141"/></svg>