<svg xmlns="http://www.w3.org/2000/svg" viewBox="0 0 360 320"><path fill="#fff" d="M254.896 184.158a131 131 0 0 1-6.225-.843q3.154.388 6.225.843"/><path fill="#295ef6" d="M180 141.964c-16.301-31.702-60.692-90.782-101.965-119.92C38.497-5.868 23.414-1.032 13.526 3.436 2.081 8.608 0 26.179 0 36.516s5.667 84.756 9.364 97.178c12.215 41.044 55.696 54.913 95.74 50.462q3.071-.455 6.225-.844-3.094.495-6.225.844c-58.684 8.691-110.8 30.077-42.446 106.174 75.19 77.85 103.047-16.693 117.342-64.628 14.295 47.935 30.76 139.069 115.995 64.628 64.005-64.628 17.585-97.48-41.099-106.172a131 131 0 0 1-6.225-.843q3.154.388 6.225.843c40.044 4.452 83.525-9.418 95.74-50.461 3.697-12.422 9.364-86.84 9.364-97.178s-2.081-27.909-13.526-33.08c-9.888-4.468-24.971-9.305-64.509 18.608C240.692 51.184 196.301 110.262 180 141.964"/></svg>