<?xml version="1.0" encoding="UTF-8" standalone="no"?>
<svg
   class="w-logo"
   width="35.532116"
   height="35.532116"
   viewBox="0 0 35.532115 35.532115"
   fill="none"
   data-v-73c3726b=""
   version="1.1"
   id="svg9"
   sodipodi:docname="logo.svg"
   inkscape:version="1.4 (e7c3feb100, 2024-10-09)"
   xmlns:inkscape="http://www.inkscape.org/namespaces/inkscape"
   xmlns:sodipodi="http://sodipodi.sourceforge.net/DTD/sodipodi-0.dtd"
   xmlns="http://www.w3.org/2000/svg"
   xmlns:svg="http://www.w3.org/2000/svg">
  <defs
     id="defs9" />
  <sodipodi:namedview
     id="namedview9"
     pagecolor="#ffffff"
     bordercolor="#000000"
     borderopacity="0.25"
     inkscape:showpageshadow="2"
     inkscape:pageopacity="0.0"
     inkscape:pagecheckerboard="0"
     inkscape:deskcolor="#d1d1d1"
     inkscape:zoom="5.6568542"
     inkscape:cx="10.69499"
     inkscape:cy="32.880465"
     inkscape:window-width="1888"
     inkscape:window-height="1052"
     inkscape:window-x="0"
     inkscape:window-y="0"
     inkscape:window-maximized="1"
     inkscape:current-layer="svg9" />
  <path
     class="w-logo__hat"
     data-testid="logo-hat"
     d="m 28.25197,6.8567782 -1.5339,15.1350798 -0.3608,3.3157 c -0.0677,0.3158 -0.2707,0.609 -0.8572,0.7669 -0.1579,0.0451 -0.3158,0.0902 -0.4962,0.1128 -0.3158,0.0677 -0.6316,-0.1805 -0.5865,-0.5188 l 1.3308,-17.3680898 c 0.0452,-0.47368 -0.3157,-0.87969 -0.7894,-0.90224 h -0.0902 c -0.4737,-0.04511 -0.8797,0.31578 -0.9023,0.78946 l -1.3533,17.7740698 c -0.0226,0.3835 -0.3158,0.6767 -0.6993,0.7218 -0.2255,0.0226 -0.4737,0.0451 -0.6992,0.0677 -0.3383,0.0225 -0.6316,-0.2481 -0.6316,-0.5865 l 0.3609,-18.4958598 c 0.0226,-0.47368 -0.3609,-0.85713 -0.812,-0.87968 h -0.0902 c -0.4737,-0.02256 -0.8571,0.36089 -0.8797,0.81201 l -0.3609,18.6312298 c -0.0226,0.3609 -0.3158,0.6541 -0.6541,0.6541 -0.2481,0 -0.4963,0 -0.7444,0 -0.3609,0 -0.6541,-0.2932 -0.6766,-0.6541 L 16.29727,8.9093782 c -0.0226,-0.47368 -0.406,-0.83457 -0.8797,-0.81202 h -0.09022 c -0.47368,0.02256 -0.834569,0.40601 -0.812009,0.87969 L 14.9439,26.164658 c 0,0.3384 -0.270669,0.609 -0.631569,0.5865 -0.22556,-0.0226 -0.45112,-0.0451 -0.67668,-0.0677 -0.38345,-0.0451 -0.67668,-0.3383 -0.69923,-0.7218 L 11.628171,8.3905882 c -0.04511,-0.47367 -0.45112,-0.81201 -0.90224,-0.78946 h -0.09022 c -0.47368,0.04511 -0.8120199,0.45112 -0.7894599,0.90224 L 11.131941,25.668458 c 0.02256,0.3383 -0.27067,0.5865 -0.58646,0.5188 -0.18044,-0.0451 -0.36089,-0.0902 -0.54134,-0.1353 -0.6090098,-0.1805 -0.7894598,-0.4737 -0.8571298,-0.8121 -0.04511,-0.4736 -0.31578,-3.1578 -0.33833,-3.248 -0.33834,-3.2932 -1.51125,-14.8418498 -1.51125,-14.8418498 -0.02256,-1.10524 -0.04512,-1.57892 1.08268,-2.14282 3.0450598,-1.51125 6.9246888,-0.06766 6.9246888,-0.06766 l 2.00747,-0.76691 c 2.6842,-0.9699 6.5638,-0.87968 9.4058,0.76691 0.5414,0.31578 1.6241,0.83457 1.5339,1.91725 z m -2.0752,21.7439798 c 0,0 0,0.7669 -0.0226,1.1503 -0.0225,0.4737 -0.0225,1.0376 -0.9473,1.2632 -4.8721,1.2857 -9.9923,1.2405 -14.886949,0 -0.9473498,-0.2481 -0.9247898,-0.7444 -0.9473498,-1.1955 -0.02255,-0.3834 -0.02255,-1.218 -0.02255,-1.2406 -0.02256,-0.4737 0.3383399,-0.7443 0.8120098,-0.6541 5.007429,0.9925 10.172739,0.9925 15.180139,0 0.4737,-0.0902 0.8572,0.203 0.8346,0.6767 z m 3.5864,-23.7063398 c -0.5865,-0.81202 -2.5037,-1.80448 -3.8571,-2.345826 -3.4961,-1.263135 -7.466,-0.924796 -10.57872,0.496226 l -0.40601,-0.11278 c -2.639039,-0.857123 -5.7743288,-0.406003 -7.5787988,0.5639 -1.127802,0.60901 -1.6465891,1.10525 -1.8270361,1.89471 -0.1127804,0.31578 -0.1804486,0.87968 -0.090225,1.8947 0,0.04511 -4e-7,0.06767 0.022556,0.11278 0.2706721,3.2029498 2.0300352,18.9921298 2.0525952,19.0147298 0.29323,3.1352 -0.15789,4.3984 0.47367,5.2329 0.04512,0.0677 0.09023,0.1128 0.13534,0.1579 0.27067,0.2707 0.65412,0.4963 1.26313,0.7218 0.11278,0.0451 0.24812,0.0902 0.3608998,0.1354 0.4962299,0.1804 1.0375699,0.3383 1.6014699,0.4736 2.12026,0.4963 4.375829,0.6316 6.428429,0.6316 2.0526,0 4.3308,-0.1353 6.4285,-0.6316 0.5639,-0.1353 1.1278,-0.2932 1.6015,-0.4736 0.1127,-0.0452 0.2481,-0.0903 0.3608,-0.1354 0.6091,-0.2481 1.0151,-0.4737 1.2632,-0.7218 0.0451,-0.0451 0.0902,-0.0902 0.1353,-0.1579 0.6316,-0.8345 0.203,-2.0977 0.4737,-5.2329 0,-0.0226 1.7819,-15.81178 2.0526,-19.0147298 0,-0.04511 0,-0.09023 0.0225,-0.11278 0.1579,-1.6917 -0.1127,-2.0526 -0.3383,-2.39093 z"
     fill="#3b8047"
     id="path1" />
</svg>
