<?xml version="1.0" encoding="UTF-8" standalone="no"?>
<svg
   version="1.1"
   id="Layer_1"
   x="0px"
   y="0px"
   width="360"
   height="360"
   viewBox="0 0 360 360"
   enable-background="new 0 0 360 360"
   xml:space="preserve"
   xmlns="http://www.w3.org/2000/svg"
   xmlns:svg="http://www.w3.org/2000/svg"><defs
   id="defs1" />
	<style
   type="text/css"
   id="style1">
	.t{fill:#FFFFFF ;}
</style>
	<path
   class="t"
   id="SVGID_1_"
   d="m 173.984,192.752 v -44.66 H 283.173 V 264.91 c -10.598,4.131 -24.637,8.24 -42.118,12.318 -17.483,4.076 -34.914,6.117 -52.291,6.117 -40.266,0 -71.786,-10.938 -94.566,-32.82 -22.783,-21.877 -34.171,-52.104 -34.171,-90.671 0,-36.767 11.497,-66.408 34.49,-88.924 22.99,-22.514 55.043,-33.774 96.155,-33.774 15.576,0 30.41,1.405 44.502,4.211 14.091,2.81 29.774,8.399 47.046,16.768 v 55.468 h -6.836 c -2.967,-2.226 -7.31,-5.377 -13.031,-9.457 -5.723,-4.077 -11.233,-7.549 -16.529,-10.41 -6.146,-3.389 -13.327,-6.302 -21.536,-8.741 -8.213,-2.435 -16.927,-3.655 -26.145,-3.655 -10.808,0 -20.61,1.589 -29.404,4.768 -8.795,3.179 -16.688,8.054 -23.681,14.621 -6.675,6.358 -11.947,14.439 -15.814,24.237 -3.868,9.803 -5.8,21.114 -5.8,33.934 0,26.172 6.938,46.198 20.82,60.079 13.88,13.881 34.381,20.82 61.507,20.82 2.329,0 4.901,-0.053 7.709,-0.16 2.807,-0.105 5.377,-0.262 7.709,-0.477 v -46.41 z M 270.449,37.763 c -0.537,8.574 -3.307,17.802 -3.307,17.802 0,0 -16.099,-11.602 -32.471,-16.404 -17.601,-5.164 -35.461,-6.176 -35.461,-6.176 0,0 13.657,-11.786 28.506,-17.492 9.989,-3.839 42.674,-12.707 42.674,-12.707 0,0 0.985,20.229 0.059,34.977 z M 115.803,55.255 c 0,0 -7.398,-7.662 -15.818,-11.818 C 79,33.079 41.483,21.302 41.483,21.302 c 0,0 4.259,37.414 19.035,63.817 7.531,13.458 19.592,17.241 19.592,17.241 l -6.247,18.063 c 0,0 -12.036,-5.964 -19.662,-22.585 C 38.469,63.545 33.125,11.402 33.125,11.402 c 0,0 42.142,2.984 81.864,13.458 25.222,6.652 42.463,15.837 42.463,15.837 z M 86.476,88.647 c 0,0 2.428,-7.31 -1.992,-10.574 C 79.551,74.429 72.9,73.117 72.9,73.117 c 0,0 3.87,-1.536 7.886,-2.513 3.727,-0.906 8.633,-1.121 8.633,-1.121 0,0 -1.878,-4.786 -8.33,-8.12 -7.503,-3.875 -19.742,-6.376 -19.742,-6.376 0,0 11.588,-2.41 21.149,-1.66 9.563,0.751 14.319,3.77 14.319,3.77 0,0 -0.117,-2.804 -4.321,-6.176 -6.341,-5.089 -15.235,-8.287 -15.235,-8.287 0,0 11.844,-0.202 23.764,3.79 6.674,2.233 15.429,8.101 15.429,8.101 z M 339.72,339.92 c -30.749,14.25 -39.982,-29.25 -89.294,-21.75 -49.313,7.5 -167.262,69.75 -193.917,6.748 -26.656,-62.998 71.303,-85.498 71.303,-85.498 l 38.648,42.748 c 0,0 -63.972,5.252 -57.975,20.252 5.998,14.998 73.303,-41.25 146.604,-45 73.301,-3.75 115.381,68.25 84.631,82.5 z"
   style="fill:#187dfc;fill-opacity:1" />
</svg>
