<svg xmlns="http://www.w3.org/2000/svg" viewBox="0 0 893.808 893.808"><circle cx="446.904" cy="446.904" r="446.904" style="fill:#f6f069;fill-opacity:1;fill-rule:evenodd;stroke-width:9.79459;stroke-linecap:round;stroke-linejoin:round;stroke-opacity:.411765;paint-order:stroke fill markers;stop-color:#000"/><path d="M724.877 402.725c-.25-14.318-1.748-28.47-4.08-42.54-9.073-53.111-31.384-99.98-66.098-141.021-3.58-4.246-7.326-8.325-11.239-12.32-2.414-2.498-5.494-2.748-7.908-1.083-2.331 1.582-2.997 3.996-1.998 7.409.25.832.583 1.582.832 2.33 13.32 35.548 20.146 72.26 20.396 110.221l-.999 20.729c-.999 18.897-3.996 37.461-8.741 55.693-15.234 58.69-44.704 109.138-89.158 150.345-57.941 53.695-126.787 81.333-205.706 83.581-19.896.583-39.626-1.082-59.19-4.495-19.979-3.413-39.542-8.741-58.44-16.067-4.162-1.582-7.075-.833-8.74 2.081-1.665 2.747-1 5.328 2.247 8.408a359 359 0 0 0 8.325 7.576c54.278 47.035 117.463 71.26 189.14 73.341 17.315.5 34.63-.832 51.78-3.663 61.77-9.99 115.714-36.38 160.252-80.334 61.104-60.271 90.99-133.946 89.325-220.19M249.531 483.642c2.415-1.831 2.83-4.245 1.499-8.325-.167-.416-.25-.749-.416-1.165-10.323-29.137-13.237-59.106-8.825-89.658 5.828-40.209 22.893-75.006 50.698-104.476 2.248-2.414 3.33-4.828 3.33-8.158-.083-10.406-.083-20.812-.083-31.218V209.84c0-6.66-1.998-8.741-8.658-8.741-20.562 0-41.041 0-61.603-.083-3.413 0-6.16.999-8.575 3.33-34.131 33.216-52.28 73.757-55.11 121.125-1.082 18.065 1 35.963 5.661 53.529 11.655 43.788 36.296 78.336 73.674 103.81 3.746 2.58 5.91 2.747 8.408.832"/><path d="M363.331 353.11c5.078 37.96 40.958 64.766 78.753 58.69 33.549-5.412 57.94-33.966 57.94-68.014V296.75c0-5.66 1.499-7.075 7.16-7.159 5.244-.083 10.572.084 15.817-.083 4.828-.166 6.992-3.08 6.16-7.742-.166-.832-.25-1.665-.416-2.414-6.327-26.723-17.815-50.864-34.465-72.675-3.08-3.996-6.493-5.495-11.322-5.412-13.985.167-27.97 0-42.04.084-1.498 0-3.08.083-4.578.333-3.497.582-5.079 2.247-5.578 5.744-.166 1.332-.083 2.747-.083 4.162v65.35c0 8.99-1.748 17.648-5.411 25.89-10.823 23.809-29.553 37.045-55.36 40.542-5.411.749-6.993 2.497-6.743 7.825.083.5.083 1.249.166 1.915"/></svg>
