<svg xmlns="http://www.w3.org/2000/svg" viewBox="0 0 512 512"><path fill="#fff" d="M243.868 66.58c-69.94 6.636-113.541 66.305-108.468 148.439 3.345 54.163 25.185 92.212 63.635 110.861 30.289 14.691 73.72 16.016 99.679 3.043 18.46-9.226 33.654-24.329 42.898-42.641.879-1.742 1.826-3.167 2.103-3.167.666 0 .662 33.464-.005 46.08-2.537 47.996-19.585 75.628-52.882 85.714-17.471 5.293-42.156 5.819-61.552 1.312-26.331-6.118-44.295-22.137-49.782-44.392l-1.418-5.751-16.586-.009-16.585-.01.337 3.629c4.449 47.87 51.436 78.65 117.733 77.123 65.091-1.5 101.161-30.87 111.433-90.736 2.912-16.969 2.75-8.667 2.943-151.168l.179-131.2h-33.31v23.04c0 13.738-.191 23.04-.473 23.04-.26 0-1.64-2.217-3.066-4.926-3.508-6.663-7.514-12.125-13.515-18.424-22.015-23.108-49.731-33.042-83.298-29.857m26.214 27.86c37.926 5.01 64.743 36.407 72.053 84.355 8.496 55.734-11.404 104.801-50.204 123.785-15.645 7.655-36.015 9.706-55.173 5.555-51.91-11.247-79.466-71.313-64.516-140.63 8.829-40.932 38.554-70.27 74.442-73.475 5.604-.5 18.177-.28 23.398.41"/></svg>