<svg xmlns="http://www.w3.org/2000/svg" viewBox="0 0 31.75 31.75"><g transform="matrix(.26458 0 0 .26458 -2.646 -2.646)"><path fill="#ffd10b" d="M130 70c0-33.137-26.863-60-60-60S10 36.863 10 70s26.863 60 60 60 60-26.863 60-60"/><path d="M70 98.073c-14.444-.002-27.276-9.348-32.538-21.9l-.008.003a2.24 2.24 0 0 0-2.14-1.56c-1.235 0-2.237.99-2.237 2.212q0 .126.014.25h-.014c.016.44.105.869.245 1.211 6.11 15.052 19.149 28.632 36.678 28.634zm0 0c14.445-.002 27.277-9.348 32.539-21.9l.007.003a2.24 2.24 0 0 1 2.14-1.56c1.235 0 2.237.99 2.237 2.212q0 .126-.014.25h.014c-.015.44-.105.869-.245 1.211-6.109 15.052-19.149 28.632-36.678 28.634ZM58.133 50.535c0 5.82-2.352 10.531-6.182 10.535-3.893.003-6.182-4.716-6.182-10.535 0-5.82 2.29-10.535 6.182-10.535 3.83.003 6.182 4.719 6.182 10.535m35.963 0c0 5.82-2.352 10.531-6.182 10.535-3.893.003-6.182-4.716-6.182-10.535 0-5.82 2.29-10.535 6.182-10.535 3.83.003 6.181 4.719 6.181 10.535z"/></g></svg>
