<svg xmlns="http://www.w3.org/2000/svg" viewBox="0 0 250.423 250.423"><circle cx="125.211" cy="125.211" r="125.211" style="fill:#f5c518;fill-opacity:1;stroke-width:.529167"/><path d="M46.663 162.418V88.004h-20.67v74.414zM90.785 88.004l-4.627 34.762-2.874-18.907q-1.25-9.085-2.398-15.855H54.93v74.414h17.536l.068-49.139 7.382 49.14h12.484l7.007-50.223.052 50.222h17.484V88.004ZM125.211 162.418V88.004h32.265c7.296 0 13.21 5.87 13.21 13.133v48.149c0 7.253-5.904 13.132-13.21 13.132zm24.111-61.021c-.82-.443-2.388-.657-4.67-.657v48.827c3.013 0 4.867-.541 5.562-1.674.695-1.116 1.051-4.136 1.051-9.092v-28.853c0-3.365-.125-5.515-.356-6.467-.232-.952-.749-1.641-1.587-2.084zM209.67 106.636h1.322c7.422 0 13.438 5.812 13.438 12.973v29.836c0 7.165-6.014 12.973-13.438 12.973h-1.321c-4.541 0-8.556-2.176-10.989-5.505l-1.19 4.55h-18.537V88.003h19.779v23.898c2.555-3.185 6.494-5.266 10.937-5.266m-4.234 36.287V125.29c0-2.913-.187-4.825-.577-5.705s-1.945-1.446-3.036-1.446-2.773.46-3.1 1.234v29.846999999999998c.374.85 1.978 1.323 3.1 1.323s2.756-.458 3.099-1.323.514-2.974.514-6.297"/></svg>
