<svg xmlns="http://www.w3.org/2000/svg" viewBox="0 0 28 28"><style id="style1">.green{fill:#1bb76e}</style><g id="g4" transform="translate(-6 -6)"><path id="rect1" d="M17.12 31.506a.11.11 0 0 0-.1.064c-.13.29-.362.521-.65.65a.11.11 0 0 0 0 .2c.29.122.523.352.65.64a.11.11 0 0 0 .2 0c.12-.29.35-.52.64-.64a.11.11 0 0 0 0-.2 1.23 1.23 0 0 1-.64-.65.11.11 0 0 0-.1-.064" class="green" style="display:inline;fill:#fff;fill-opacity:1"/><path id="path12" d="M21.58 28.658a.18.18 0 0 0-.17.121 2 2 0 0 1-1.08 1.08.18.18 0 0 0 0 .33 2 2 0 0 1 1.08 1.08.18.18 0 0 0 .34 0 2.1 2.1 0 0 1 1.08-1.08.18.18 0 0 0 0-.33 2.1 2.1 0 0 1-1.08-1.08.18.18 0 0 0-.17-.12" class="green" style="display:inline;fill:#fff;fill-opacity:1"/><path id="path11" d="M22.975 25.85c-.036 0-.07.02-.084.06a1.1 1.1 0 0 1-.551.55.1.1 0 0 0 0 .17c.246.108.444.303.55.55a.09.09 0 0 0 .17 0 1 1 0 0 1 .54-.55.09.09 0 0 0 0-.17 1 1 0 0 1-.54-.55.09.09 0 0 0-.085-.06" class="green" style="display:inline;fill:#fff;fill-opacity:1"/><path id="path10" d="M9.154 25.676a.11.11 0 0 0-.093.054 1.14 1.14 0 0 1-.612.61.11.11 0 0 0 0 .19c.272.12.49.34.612.61a.1.1 0 0 0 .189 0c.121-.27.338-.49.61-.61a.11.11 0 0 0 0-.19 1.14 1.14 0 0 1-.61-.61.11.11 0 0 0-.096-.054" class="green" style="display:inline;fill:#fff;fill-opacity:1"/><path id="path9" d="M9.14 18.229a.25.25 0 0 0-.23.152 2.85 2.85 0 0 1-1.48 1.478.25.25 0 0 0 0 .461c.669.28 1.201.812 1.48 1.48a.26.26 0 0 0 .46 0 2.82 2.82 0 0 1 1.48-1.48.25.25 0 0 0 0-.46 2.9 2.9 0 0 1-1.48-1.48.245.245 0 0 0-.23-.151" class="green" style="display:inline;fill:#fff;fill-opacity:1"/><path id="path8" d="M12.475 15.826a.15.15 0 0 0-.135.084c-.17.392-.479.705-.87.88a.151.151 0 0 0 0 .27c.392.168.703.478.87.87a.15.15 0 0 0 .27 0 1.65 1.65 0 0 1 .87-.87.151.151 0 0 0 0-.27 1.7 1.7 0 0 1-.87-.88.15.15 0 0 0-.135-.084" class="green" style="display:inline;fill:#fff;fill-opacity:1"/><path id="path7" d="M12.418 31.78a1.74 1.74 0 0 1 .803-.72.15.15 0 0 0-.041-.25 1.7 1.7 0 0 1-.9-.9.15.15 0 0 0-.28 0 1.72 1.72 0 0 1-.9.9l-.01.006a14 14 0 0 0 1.328.963" class="green" style="display:inline;fill:#fff;fill-opacity:1"/><path id="path6" d="m13.36 12.2-7.348 7.349c-.005.15-.012.3-.012.451a13.96 13.96 0 0 0 5.09 10.816l.01-.005c.404-.174.726-.497.9-.9a.15.15 0 0 1 .28 0c.17.405.494.728.9.9a.15.15 0 0 1 .04.25 1.74 1.74 0 0 0-.802.718 13.96 13.96 0 0 0 8.46 2.192L28 26.84Zm-.885 3.626c.053 0 .107.028.134.084.17.392.481.705.871.88a.151.151 0 0 1 0 .27 1.65 1.65 0 0 0-.87.87.15.15 0 0 1-.27 0 1.65 1.65 0 0 0-.87-.87.151.151 0 0 1 0-.27c.391-.175.7-.488.87-.88a.15.15 0 0 1 .135-.084M9.14 18.23c.093 0 .185.05.228.152.291.66.82 1.187 1.48 1.478a.25.25 0 0 1 0 .461 2.82 2.82 0 0 0-1.48 1.48.26.26 0 0 1-.459 0 2.75 2.75 0 0 0-1.48-1.48.25.25 0 0 1 0-.46 2.85 2.85 0 0 0 1.48-1.48.25.25 0 0 1 .23-.151m.013 7.447a.11.11 0 0 1 .096.054c.116.276.334.494.61.61a.11.11 0 0 1 0 .19c-.272.12-.489.34-.61.61a.1.1 0 0 1-.19 0 1.22 1.22 0 0 0-.61-.61.11.11 0 0 1 0-.19c.275-.116.495-.334.61-.61a.11.11 0 0 1 .094-.054m13.82.174a.09.09 0 0 1 .087.06 1 1 0 0 0 .539.55.09.09 0 0 1 0 .17 1 1 0 0 0-.54.55.09.09 0 0 1-.17 0 1.06 1.06 0 0 0-.55-.55.1.1 0 0 1 0-.17c.245-.109.441-.305.55-.55a.09.09 0 0 1 .085-.06m-1.394 2.808c.071 0 .142.04.17.121a2.1 2.1 0 0 0 1.08 1.08.18.18 0 0 1 0 .33 2.1 2.1 0 0 0-1.08 1.08.18.18 0 0 1-.34 0 2 2 0 0 0-1.08-1.08.18.18 0 0 1 0-.33 2 2 0 0 0 1.08-1.08.18.18 0 0 1 .17-.12m-4.46 2.848a.11.11 0 0 1 .1.064c.123.291.35.524.64.65a.11.11 0 0 1 0 .2c-.29.12-.52.35-.64.64a.11.11 0 0 1-.2 0 1.23 1.23 0 0 0-.65-.64.11.11 0 0 1 0-.2c.288-.129.52-.36.65-.65a.11.11 0 0 1 .1-.064" class="green" style="display:inline;fill:#0a0d49;fill-opacity:1"/><path id="path5" d="M20 6A13.965 13.965 0 0 0 6.012 19.549l7.347-7.35L28 26.84l-7.121 7.132A13.966 13.966 0 0 0 34 20c0-7.756-6.244-14-14-14" class="green"/><path id="path3" fill="#fff" d="M10.3 24.91a1.75 1.75 0 0 1 .12-2.3L15.83 17l-2.46-2.42c-1.057-1.002-.5-2.78.94-3a65 65 0 0 1 10.4-.92c1.06 0 2.1 0 3.11.1a1.74 1.74 0 0 1 1.62 1.63A59.6 59.6 0 0 1 28.63 26c-.22 1.44-1.998 1.997-3 .94l-2.42-2.46-5.55 5.42a1.75 1.75 0 0 1-2.31.11l-2.197-2.219z"/><path id="path4" d="M27.7 12.58a57.8 57.8 0 0 0-13.1.8L18.29 17l-6.62 6.79a30 30 0 0 0 4.8 4.81l6.8-6.6 3.64 3.7a58 58 0 0 0 .79-13.12" class="green"/></g></svg>