<svg xmlns="http://www.w3.org/2000/svg"    viewBox="0 0 142.45365 142.45364" version="1.1"><defs id="defs4"><style id="style2">.cls-1,.cls-2,.cls-3{fill:none;stroke:#000;stroke-linecap:round;stroke-linejoin:round}.cls-1,.cls-3{stroke-width:1.29491px}.cls-4{fill:#fff}.cls-5{fill:#ffc432}.cls-6{fill:#ffc21a}.cls-7{fill:#b1b1b1}.cls-8{fill:#e10017}.cls-2{stroke-width:1.18701px}.cls-3{fill-rule:evenodd}</style></defs><g id="g168" transform="translate(22.807 13.235)"><g id="g42"><path id="path6" d="m84.365 66.173.043.126 8.412-1.27s-8.047-16.458-14.64-16.87c0 0-9.597-18.015-22.183-19.45l-.241-.35-.49-23.171a1.36 1.36 0 0 0-1.046-1.295C34.478-.83 31.003 1.11 31.003 1.11c-3.708.954-6.79 7.242-7.763 9.433l-.999 8.795c-.415 5.295-.56 11.343-.829 11.584 0 0-6.032 4.01-8.064 15.252l-.004.081C5.289 49.02 1.854 67.867 1.854 67.867l10.397 1.56-.001.016c-.22 7.887-.275 14.055.447 19.207 0 0 6.658 1.69 20.961 1.82.115 2.907.66 16.102 1.157 17.73.316 1.034 3.398.813 6.222.351 2.18-.357 4.206-.858 4.685-1.037 1.099-.412 3.342-.32 3.159-3.48-.16-2.765-.613-11.739-.723-13.932.568-.032 1.136-.063 1.72-.1 4.786-.3 9.11-.698 12.975-1.148 0 0-1.009 4.376-1.402 12.845 0 0 .065 1.244 2.995 1.4 2.93.157 9.486-.083 10.39-.392.904-.31 1.239-2.103 1.513-6.706.275-4.602.545-9.298.545-9.298l-.024.004c7.322-1.433 10.925-2.716 10.925-2.716s-1.1-8.517-3.43-17.818" class="cls-6"/><path id="path8" d="M1.854 67.867S.794 69.97.85 71.086s.481 1.726 1.969 1.016c0 0 .618 1.203 1.58 1.243.96.039 1.985-.9 1.985-.9s.734 1.28 1.702 1.164c.969-.115 1.79-.752 1.79-.752s.565 1 1.527.752c0 0 .412-.34.48-1.255.07-.916 0-2.701 0-2.701z" class="cls-4"/><path id="path10" d="M25.132 9.565s1.476 2.85 1.27 6.112-1.03 5.138-1.03 5.138-4.12-.4-4.257-4.245c-.138-3.846 1.442-6.318 4.017-7.005" class="cls-8"/><path id="path12" d="M55.756 21.96s2.722-.85 2.922-4.36-.618-5.696-2.198-6.677c0 0-.807-.465-.899-.442" class="cls-8"/><path id="line14" d="m8.326 14.603 12.78.895" class="cls-5"/><path id="line16" d="m69.197 16.531-10.388-.526" class="cls-5"/><path id="path18" d="M43.578 7.78c-.442-.152-2.892-.344-4.197 2.232s-.858 4.91 1.889 5.322 3.959-1.971 4.223-3.358c.172-.9-.534-3.722-1.916-4.196" class="cls-8"/><path id="path20" d="M49.51 11.294s-1.75.366-1.923 2.46c-.171 2.095 2.644 2.374 3.194 2.251.55-.122 1.93-.842 2.166-2.422.237-1.58-1.66-2.975-3.437-2.29" class="cls-8"/><path id="path22" d="M41.407 9.829c-.413.181-1.803 1.766-.103 2.815 1.7 1.05 2.696.022 2.835-.674.14-.696-.603-3.08-2.732-2.142" class="cls-6"/><path id="path24" d="M51.521 12.155s-.984-.41-1.549.486c-.565.897.102 1.908 1.104 2.222 1.002.313 2.198-1.934.445-2.708" class="cls-6"/><path id="path26" d="M50.243 115.288c-.214-3.34-2.912-6.947-6.545-7.273l-5.576 1.844c-2.915 2.123-4.22 5.56-3.307 9.77.155.71 2.15 3.862 7.192 3.084 5.043-.778 8.5-3.312 8.236-7.425m-9.213 1.794c-1.9-.138-1.763-2.135-1.763-2.135l4.578-1.802s.595-.34.824 1.602-1.74 2.472-3.64 2.335" class="cls-7"/><path id="path28" d="m72.735 102.956-6.378.191c-2.145.515-5.267 2.053-5.298 6.651-.048 7.011 5.495 6.47 9.568 6.577 4.072.106 7.18-3.202 7.412-6.352.179-2.412-1.31-6.063-5.304-7.067m-4.672 9.904c-2.332.155-3.708-1.775-3.48-3.515.06-.456.303-.826.628-1.124l4.328-1.49c2.128-.085 3.23 1.298 3.377 2.66.183 1.71-2.52 3.315-4.853 3.47" class="cls-7"/><path id="path30" d="M54.031 52.08c-.091-.602-.41-2.48-.64-2.662l-.014.003c-.128-1.865-1.19-3.085-3.197-3.128-2.145-.045-3.501 1.733-3.21 3.522.065.402.227.74.456 1.023l-.168.04s.364 2.5 1.222 2.774c.859.275 3.88.447 5.39-.726 0 0 .253-.245.161-.846" class="cls-7"/><path id="path32" d="m66.094 49.815-.097.034q.01-.135.011-.248c0-.826-.281-3.262-3.256-2.85s-3.49 2.513-3.456 3.214c.017.354.153 1.25.662 1.964h-.001s.46 2.456 1.845 2.639 3.377.137 4.086-1.19c.71-1.328.206-3.563.206-3.563" class="cls-7"/><path id="path34" d="M40.216 49.939c.065-.372.112-.952.024-1.78-.172-1.62-1.717-2.404-3.537-1.958s-2.436 1.244-2.238 2.888q.027.22.08.422h-.001s-.038 2.127.168 2.7c.206.571 2.128 2.265 4.463 1.212 0 0 .527-.274.664-.64.137-.367.452-1.764.45-2.839z" class="cls-7"/><path id="path36" d="M38.214 109.482s.91 5.265 1.508 5.448 4.077-1.19 4.123-1.785-1.453-4.673-1.453-4.673z" class="cls-4"/><path id="path38" d="M65.638 103.149s-.959 5.607 0 5.558c.96-.049 3.995-.53 3.92-1.594s-.385-4.013-.385-4.013" class="cls-4"/><path id="path40" d="M84.767 66.597s.839 4.787 1.717 4.549c.877-.238 1.32-.437 1.38-1.274 0 0 .276.811 1.13.76s1-1.203 1-1.203.627 1.254 1.374 1.013c.747-.24.815-1.339.815-1.339s.937.665 1.447.178.074-2.696 0-2.982c-.073-.286-.81-1.27-.81-1.27z" class="cls-4"/></g><g id="g166"><path id="path44" d="M25.132 9.565s1.476 2.85 1.27 6.112-1.03 5.138-1.03 5.138-4.12-.4-4.257-4.245c-.138-3.846 1.442-6.318 4.017-7.005" class="cls-1"/><path id="path46" d="M31.003 1.11s-1.098 6.258-1.785 12.282-.893 13.558-.893 13.558" class="cls-1"/><path id="path48" d="M55.756 21.96s2.722-.85 2.922-4.36-.618-5.696-2.198-6.677c0 0-.807-.465-.899-.442" class="cls-1"/><path id="path50" d="M23.24 10.543c.973-2.191 4.055-8.479 7.763-9.433 0 0 3.475-1.939 23.217 2.783a1.36 1.36 0 0 1 1.046 1.295l.49 23.17" class="cls-1"/><path id="path52" d="M21.412 30.281s.414-5.648.83-10.943" class="cls-1"/><path id="line54" d="m8.326 14.603 12.78.895" class="cls-1"/><path id="line56" d="m69.197 16.531-10.388-.526" class="cls-1"/><path id="path58" d="M37.794 6.933s5.124-.252 10.034.847 5.386 1.19 5.386 1.19" class="cls-1"/><path id="path60" d="M32.946 17.497s8.667 1.682 12.341 2.3 6.867.378 6.867.378" class="cls-1"/><path id="path62" d="M43.578 7.78c-.442-.152-2.892-.344-4.197 2.232s-.858 4.91 1.889 5.322 3.959-1.971 4.223-3.358c.172-.9-.534-3.722-1.916-4.196" class="cls-1"/><path id="path64" d="M49.51 11.294s-1.75.366-1.923 2.46c-.171 2.095 2.644 2.374 3.194 2.251.55-.122 1.498-.842 1.735-2.422s-1.23-2.975-3.006-2.29" class="cls-1"/><path id="path66" d="M41.407 10.04c-.413.181-1.803 1.766-.103 2.815 1.7 1.05 2.533-.134 2.672-.83s-.44-2.924-2.569-1.986" class="cls-2"/><path id="path68" d="M51.521 12.155s-.984-.41-1.549.486c-.565.897.102 1.908 1.104 2.222 1.002.313 2.198-1.934.445-2.708" class="cls-2"/><path id="path70" d="m12.384 69.447-10.53-1.58s3.478-19.091 11.644-21.666c0 0 2.448 4.086-1.114 23.246" class="cls-1"/><path id="path72" d="m84.408 66.3 8.412-1.271s-8.047-16.458-14.64-16.87" class="cls-1"/><path id="polygon74" d="m33.407 59.262-.756 4.691 38.264 1.373.35-5.686z" class="cls-1"/><path id="path76" d="M12.697 83.593s23.194 1.81 30.05 1.69c6.854-.12 14.506-.952 23.875-2.316 9.37-1.365 20.59-3.22 20.59-3.22" class="cls-1"/><path id="path78" d="M12.25 69.443c-.22 7.887-.275 14.055.447 19.207 0 0 11.624 2.954 37.18 1.352 25.557-1.602 37.918-6.01 37.918-6.01s-2.885-22.334-9.202-34.165c-6.318-11.832-11.606-20.023-26.302-21.73s-23.027-4.18-30.879 2.825c0 0-6.032 4.01-8.064 15.252" class="cls-1"/><path id="path80" d="M41.037 108.551c2.18-.357 4.206-.858 4.685-1.037 1.099-.412 3.342-.32 3.159-3.48-.183-3.159-.748-13.556-.748-13.556" class="cls-1"/><path id="path82" d="M33.636 90.758s.619 15.611 1.18 17.442c.315 1.034 3.397.813 6.22.351" class="cls-1"/><path id="path84" d="M62.853 88.854s-1.009 4.376-1.402 12.845c0 0 .065 1.244 2.995 1.4 2.93.157 9.486-.083 10.39-.392.904-.31 1.239-2.103 1.513-6.706.275-4.602.545-9.298.545-9.298" class="cls-1"/><path id="path86" d="M38.122 109.86c-2.916 2.122-4.22 5.56-3.307 9.769.155.71 2.15 3.862 7.192 3.084 5.043-.778 8.5-3.312 8.236-7.425-.214-3.34-2.912-6.947-6.545-7.273" class="cls-1"/><path id="path88" d="M38.214 109.482s.91 5.265 1.508 5.448 4.077-1.19 4.123-1.785-1.453-4.673-1.453-4.673z" class="cls-1"/><path id="path90" d="M65.638 103.149s-.959 5.607 0 5.558c.96-.049 3.995-.53 3.92-1.594s-.385-4.013-.385-4.013" class="cls-1"/><path id="path92" d="M39.267 114.947s-.137 1.997 1.763 2.135 3.868-.393 3.639-2.335-.824-1.602-.824-1.602" class="cls-1"/><path id="path94" d="M65.21 108.22c-.324.299-.566.669-.626 1.125-.23 1.74 1.147 3.67 3.479 3.515s5.036-1.759 4.853-3.47c-.146-1.36-1.249-2.744-3.377-2.658" class="cls-1"/><path id="path96" d="M3.306 63.422s5.896.089 9.733 1.041" class="cls-1"/><path id="path98" d="M2.361 65.611s3.808.758 9.962.876" class="cls-1"/><path id="path100" d="M83.181 61.78s5.618-.75 7.563-.434" class="cls-1"/><path id="path102" d="M91.768 63.183s-3.573.713-7.947.823" class="cls-1"/><path id="path104" d="M32.81 62.973s10.487-1.397 20.58-1.41c10.095-.013 17.733.376 17.733.376" class="cls-1"/><path id="path106" d="M66.008 49.6c0-.825-.281-3.261-3.256-2.85-2.975.413-3.49 2.514-3.456 3.215.034.7.525 3.516 3.456 2.863 2.93-.652 3.256-2.402 3.256-3.227" class="cls-1"/><path id="path108" d="M53.39 49.815s-.275 1.44-2.129 1.915c-1.853.474-4.001-.126-4.292-1.915s1.065-3.567 3.211-3.522 3.21 1.436 3.21 3.522" class="cls-1"/><path id="path110" d="M40.073 50.46s-.425.917-2.292 1.042c-1.868.125-3.119-.769-3.316-2.413-.198-1.644.418-2.442 2.238-2.888s3.365.339 3.537 1.958-.167 2.3-.167 2.3" class="cls-1"/><path id="path112" d="M47.258 50.878s.364 2.5 1.222 2.774c.859.275 3.88.447 5.39-.726 0 0 .253-.245.161-.847-.091-.601-.41-2.478-.64-2.661" class="cls-1"/><path id="path114" d="M59.957 51.93s.46 2.455 1.845 2.638 3.377.137 4.086-1.19c.71-1.328.206-3.563.206-3.563" class="cls-1"/><path id="path116" d="M34.544 49.511s-.038 2.127.168 2.7c.206.571 2.128 2.265 4.463 1.212 0 0 .527-.274.664-.64.137-.367.452-1.764.45-2.839" class="cls-1"/><path id="path118" d="M83.753 117.528s-6.401-1.089-15.156-1.094c-8.724-.005-18.578.98-18.578.98" class="cls-1"/><path id="path120" d="M66.357 103.147c-2.145.515-5.267 2.053-5.298 6.651-.048 7.011 5.495 6.47 9.568 6.577 4.072.106 7.18-3.202 7.412-6.352.179-2.412-1.31-6.063-5.304-7.067" class="cls-1"/><path id="path122" d="M31.484 86.651s-1.058-.733-1.55.69c-.493 1.422 1.423 1.298 1.727 1.12.304-.179.493-1.466-.177-1.81"/><path id="path124" d="M16.287 86.462s-.084-.684.81-.805c.893-.122.922.443.899.727-.023.285-.075.645-.624.834-.55.189-1.089-.258-1.085-.756"/><path id="path126" d="M51.777 86.755s.24-.636.978-.584c.738.051.7.655.651.978-.048.324-.226.83-.954.74-.727-.087-.725-.81-.675-1.134"/><path id="path128" d="M70.504 85.26s.242.72 1.384.482.57-1.727-.114-1.686c-.684.04-1.41.17-1.27 1.204"/><path id="path130" d="M82.931 82.714s.348.942 1.318.387.193-1.806-.517-1.636-.943 1.006-.8 1.25"/><path id="path132" d="M11.81 49.944s-1.143-.257-1.396 1.03c-.252 1.288.938 1.751 1.69 1.356.753-.394.278-2.41-.294-2.386"/><path id="path134" d="M81.458 51.206s1.312.453 1.106 1.621c-.205 1.17-2.042.504-2.057.099-.014-.405-.664-1.798.951-1.72"/><path id="path136" d="M36.513 111.356s-1.424 4.856.67 7.157c2.095 2.3 7.177.96 8.894-1.1 1.716-2.06.287-6.773-2.878-6.837" class="cls-1"/><path id="path138" d="M65.064 106.254s-2.796 3.125-.505 5.735 6.445 2.472 9.158 1.03 1.82-5.633-.137-6.765-4.041-1.132-4.041-1.132" class="cls-1"/><path id="path140" d="M1.854 67.867s-1.605 3.09-1.038 4.19c.675 1.308 2.335-.293 2.537-1.191.135-.6.34-1.632.35-2.472" class="cls-1"/><path id="path142" d="M7.024 68.828s-.4 2.088-1.028 3.563c-.164.384-.7.85-1.077.919-.934.17-1.832-.221-1.566-2.444" class="cls-1"/><path id="path144" d="M9.875 69.424s.007 3.4-.61 3.937c-.591.514-2.825.747-2.881-1.984" class="cls-1"/><path id="path146" d="M12.034 72.766s-.265.79-.96.842c-.608.046-1.41-.998-1.344-1.737" class="cls-1"/><path id="path148" d="M92.697 64.92c.828 1.1 1.35 3.31 1.217 3.915-.137.63-1.013.967-1.677-.068s-1.105-2.137-1.475-3.404" class="cls-1"/><path id="path150" d="M88.994 65.598s.625 2.461.852 3.4c.356 1.466 1.889 2.129 2.095.566.134-1.022-.492-2.294-.492-2.294" class="cls-1"/><path id="path152" d="M86.91 66.022s.292 3.298 1.226 4.205c.766.745 1.9.573 1.652-1.468" class="cls-1"/><path id="path154" d="M84.95 68.598s.626 2.81 2.02 2.528c1.005-.202.582-1.935.582-1.935" class="cls-1"/><path id="path156" d="M34.527 118.73s-5.27.458-9.207 0" class="cls-1"/><path id="path158" d="M33.848 94.494s3.292.681 6.657.615 7.87-.615 7.87-.615" class="cls-3"/><path id="path160" d="M33.897 96.955s3.243 1.354 6.701 1.354c3.459 0 7.778-.893 7.778-.893" class="cls-3"/><path id="path162" d="M62.651 93.12s8.544 1.138 13.698.249" class="cls-1"/><path id="path164" d="M61.892 95.539s1.765.898 4.61 1.081c3.985.256 9.847-.187 9.847-.187" class="cls-1"/></g></g></svg>
