<svg xmlns="http://www.w3.org/2000/svg" viewBox="0 0 1000 1000"><style>.st1{fill:#fff}</style><linearGradient id="SVGID_1_" x1="146.446" x2="853.553" y1="853.553" y2="146.446" gradientUnits="userSpaceOnUse"><stop offset="0" style="stop-color:#ffd521"/><stop offset=".055" style="stop-color:#ffd020"/><stop offset=".124" style="stop-color:#fec01e"/><stop offset=".2" style="stop-color:#fca71b"/><stop offset=".282" style="stop-color:#fa8316"/><stop offset=".368" style="stop-color:#f85510"/><stop offset=".456" style="stop-color:#f51e09"/><stop offset=".5" style="stop-color:#f30005"/><stop offset=".503" style="stop-color:#f20007"/><stop offset=".597" style="stop-color:#e1003b"/><stop offset=".688" style="stop-color:#d30067"/><stop offset=".776" style="stop-color:#c70088"/><stop offset=".859" style="stop-color:#bf00a0"/><stop offset=".936" style="stop-color:#bb00af"/><stop offset="1" style="stop-color:#b900b4"/></linearGradient><path d="M500 1000C223.9 1000 0 776.1 0 500S223.9 0 500 0s500 223.9 500 500-223.9 500-500 500" style="fill:url(#SVGID_1_)"/><path d="M500 220.2c91.1 0 101.9.3 137.9 2 33.3 1.5 51.4 7.1 63.4 11.8 15.9 6.2 27.3 13.6 39.2 25.5s19.3 23.3 25.5 39.2c4.7 12 10.2 30.1 11.8 63.4 1.6 36 2 46.8 2 137.9s-.3 101.9-2 137.9c-1.5 33.3-7.1 51.4-11.8 63.4-6.2 15.9-13.6 27.3-25.5 39.2s-23.3 19.3-39.2 25.5c-12 4.7-30.1 10.2-63.4 11.8-36 1.6-46.8 2-137.9 2s-101.9-.3-137.9-2c-33.3-1.5-51.4-7.1-63.4-11.8-15.9-6.2-27.3-13.6-39.2-25.5s-19.3-23.3-25.5-39.2c-4.7-12-10.2-30.1-11.8-63.4-1.6-36-2-46.8-2-137.9s.3-101.9 2-137.9c1.5-33.3 7.1-51.4 11.8-63.4 6.2-15.9 13.6-27.3 25.5-39.2s23.3-19.3 39.2-25.5c12-4.7 30.1-10.2 63.4-11.8 36-1.7 46.8-2 137.9-2m0-61.5c-92.7 0-104.3.4-140.7 2.1-36.3 1.7-61.1 7.4-82.9 15.9C254 185.3 234.9 197 216 216c-19 19-30.6 38-39.4 60.5-8.4 21.7-14.2 46.5-15.9 82.9s-2.1 48-2.1 140.7.4 104.3 2.1 140.7c1.7 36.3 7.4 61.1 15.9 82.9C185.3 746 197 765.1 216 784c19 19 38 30.6 60.5 39.4 21.7 8.4 46.5 14.2 82.9 15.9s48 2.1 140.7 2.1 104.3-.4 140.7-2.1c36.3-1.7 61.1-7.4 82.9-15.9C746 814.7 765.1 803 784 784c19-19 30.6-38 39.4-60.5 8.4-21.7 14.2-46.5 15.9-82.9s2.1-48 2.1-140.7-.4-104.3-2.1-140.7c-1.7-36.3-7.4-61.1-15.9-82.9C814.7 254 803 234.9 784 216c-19-19-38-30.6-60.5-39.4-21.7-8.4-46.5-14.2-82.9-15.9-36.3-1.6-47.9-2-140.6-2" class="st1"/><path d="M500 324.7c-96.8 0-175.3 78.5-175.3 175.3S403.2 675.3 500 675.3 675.3 596.8 675.3 500 596.8 324.7 500 324.7m0 289.1c-62.8 0-113.8-50.9-113.8-113.8s51-113.8 113.8-113.8S613.8 437.1 613.8 500s-51 113.8-113.8 113.8" class="st1"/><circle cx="682.2" cy="317.8" r="41" class="st1"/></svg>
