<svg xmlns="http://www.w3.org/2000/svg" viewBox="0 96 960 960"><path d="M0 816v-63q0-43 44-70t116-27q13 0 25 .5t23 2.5q-14 21-21 44t-7 48v65zm240 0v-65q0-32 17.5-58.5T307 646t76.5-30 96.5-10q53 0 97.5 10t76.5 30 49 46.5 17 58.5v65zm540 0v-65q0-26-6.5-49T754 659q11-2 22.5-2.5t23.5-.5q72 0 116 26.5t44 70.5v63zm-455-80h311q-10-20-55.5-35T480 686t-100.5 15-54.5 35M160 616q-33 0-56.5-23.5T80 536q0-34 23.5-57t56.5-23q34 0 57 23t23 57q0 33-23 56.5T160 616m640 0q-33 0-56.5-23.5T720 536q0-34 23.5-57t56.5-23q34 0 57 23t23 57q0 33-23 56.5T800 616m-320-40q-50 0-85-35t-35-85q0-51 35-85.5t85-34.5q51 0 85.5 34.5T600 456q0 50-34.5 85T480 576m0-80q17 0 28.5-11.5T520 456t-11.5-28.5T480 416t-28.5 11.5T440 456t11.5 28.5T480 496m0-40"/></svg>