<?xml version="1.0" encoding="UTF-8" standalone="no"?>
<svg
   fill="#000000"
   width="800px"
   height="800px"
   viewBox="0 0 24 24"
   role="img"
   version="1.1"
   id="svg1"
   sodipodi:docname="pastebin-icon.svg"
   inkscape:version="1.3.2 (091e20e, 2023-11-25, custom)"
   xmlns:inkscape="http://www.inkscape.org/namespaces/inkscape"
   xmlns:sodipodi="http://sodipodi.sourceforge.net/DTD/sodipodi-0.dtd"
   xmlns="http://www.w3.org/2000/svg"
   xmlns:svg="http://www.w3.org/2000/svg">
  <defs
     id="defs1" />
  <sodipodi:namedview
     id="namedview1"
     pagecolor="#ffffff"
     bordercolor="#000000"
     borderopacity="0.25"
     inkscape:showpageshadow="2"
     inkscape:pageopacity="0.0"
     inkscape:pagecheckerboard="0"
     inkscape:deskcolor="#d1d1d1"
     inkscape:zoom="1.3225"
     inkscape:cx="576.55955"
     inkscape:cy="353.49716"
     inkscape:window-width="2560"
     inkscape:window-height="1316"
     inkscape:window-x="-12"
     inkscape:window-y="-12"
     inkscape:window-maximized="1"
     inkscape:current-layer="svg1" />
  <title
     id="title1">Pastebin icon</title>
  <path
     d="M17.02 0a2.096 2.096 0 00-.723.123L2.623 5.003A2.101 2.101 0 001.35 7.69l5.324 14.916a2.101 2.101 0 002.685 1.272l7.746-2.765c.792-.307 1.345-.534 1.464-.608.543-.314.962-.817 1.964-2.334.904-1.362 1.859-3.323 2.097-4.28.24-.97.239-1.48-.502-3.675h.001l-3.147-8.82A2.102 2.102 0 0017.02 0zm-.084.414c.72-.031 1.4.403 1.657 1.12l3.147 8.82.008-.003c.271.763.497 1.415.526 1.54.102.433-.282 1.147-.737 1.35-.2.1-.71.293-1.142.429-1.397.464-2.05.879-2.458 1.548-.363.591-.315 1.18.16 2.377.462 1.142.533 1.864.225 2.4-.113.188-.301.322-1.354.733l-.002-.005-7.746 2.765a1.68 1.68 0 01-2.157-1.022L1.74 7.55a1.68 1.68 0 011.022-2.157L16.436.513c.165-.06.334-.092.5-.099zM15.9 2.25l-.708.515-.495.37.113.314.074.205.523-.316.4 1.112.403 1.123-.359.129-.337.12c.045.145.216.642.238.664l2.166-.779-.238-.663-.244.088-.443.16-.334-.93zm-3.29 1.182l-.709.515-.494.37.113.314.073.205.524-.316.4 1.112.403 1.123-.36.129-.337.121c.046.144.216.64.238.663l2.167-.778-.238-.663-.244.087-.443.16-.334-.93zM9.084 4.786a1.532 1.532 0 00-.8.223c-.732.448-.85 1.383-.332 2.558.337.776.873 1.218 1.462 1.215 1.345-.007 1.86-1.399 1.085-2.95-.307-.66-.837-1.036-1.415-1.046zm-.191.672c.168-.009.357.085.539.279.145.155.347.51.437.787.35.998.164 1.688-.414 1.546C8.854 7.93 8.21 6 8.62 5.585a.407.407 0 01.273-.127zm-3.765.75a1.532 1.532 0 00-.8.223c-.732.448-.85 1.382-.332 2.557.337.777.873 1.218 1.462 1.215 1.344-.007 1.86-1.398 1.085-2.95-.307-.66-.838-1.036-1.415-1.045zm-.192.672c.168-.01.358.085.54.278.145.155.347.51.437.787.35.999.164 1.689-.415 1.547-.6-.141-1.243-2.072-.834-2.485a.407.407 0 01.272-.127zm13.362.655a1.533 1.533 0 00-.8.223c-.732.448-.85 1.382-.332 2.558.337.776.873 1.218 1.462 1.215 1.345-.007 1.86-1.399 1.085-2.95-.307-.66-.837-1.036-1.415-1.046zm-.191.672c.168-.009.357.085.539.278.145.155.347.51.437.787.35.999.164 1.689-.414 1.547-.601-.141-1.244-2.072-.835-2.485a.407.407 0 01.273-.127zm-3.766.75a1.532 1.532 0 00-.8.222c-.73.448-.848 1.383-.331 2.558.337.776.873 1.218 1.462 1.215 1.344-.007 1.86-1.398 1.085-2.95-.307-.66-.838-1.036-1.416-1.045zm-.19.671c.167-.009.357.085.539.279.145.155.347.51.437.787.35.998.164 1.688-.415 1.547-.6-.142-1.244-2.072-.835-2.485a.408.408 0 01.273-.128zm-3.746.743a1.533 1.533 0 00-.8.223c-.732.448-.85 1.382-.332 2.557.337.777.873 1.219 1.462 1.216 1.345-.007 1.86-1.399 1.085-2.951-.307-.66-.838-1.036-1.415-1.045zm-.192.672c.169-.01.358.085.54.278.145.155.347.51.437.787.35.999.164 1.689-.414 1.547-.601-.141-1.244-2.072-.835-2.485a.407.407 0 01.272-.127zm-3.515.616l-.708.515-.495.369.113.314.074.206.524-.316.399 1.112.403 1.122-.359.13-.337.12c.045.145.216.641.238.663l2.166-.778-.238-.663-.244.088-.443.159-.334-.93zm15.664 1.33c.034 0 .049.047.064.135.023.11-.064.545-.195.957-.469 1.436-2.052 4.224-3.079 5.397l-.408.47.051-.667c.03-.567-.016-.812-.377-1.71-.496-1.263-.533-1.73-.158-2.31.341-.514 1.028-.907 2.448-1.371.72-.238 1.175-.463 1.385-.664.132-.145.207-.22.253-.235a.05.05 0 01.015-.003zm-6.429 1.477l-.708.515-.495.37.113.314.074.205.523-.316.4 1.112.403 1.123-.359.129-.337.12c.045.145.216.642.238.664l2.166-.779-.238-.662-.244.087-.443.16-.334-.93zm-3.579 1.33a1.532 1.532 0 00-.8.223c-.731.448-.849 1.382-.332 2.558.337.776.873 1.218 1.462 1.215 1.345-.007 1.86-1.399 1.086-2.95-.307-.66-.838-1.036-1.416-1.046zm-.191.672c.168-.009.358.085.54.279.144.154.346.51.437.787.35.998.164 1.688-.415 1.546-.6-.141-1.244-2.072-.835-2.485a.407.407 0 01.273-.127zm-3.515.616l-.71.515-.494.37.113.313.074.206.524-.316.4 1.112.403 1.122-.36.13-.337.12c.045.145.216.642.238.664l2.166-.779-.238-.663-.244.088-.443.16-.334-.93z"
     id="path1" />
  <path
     style="fill:#ffffff;stroke-width:0.756144"
     d="m 279.27013,785.23388 c -6.44477,-1.16159 -15.83952,-4.96099 -21.38867,-8.65006 -7.54802,-5.01792 -15.01204,-13.33726 -18.79768,-20.95171 C 235.28985,748.001 57.160329,248.89816 56.010178,242.67642 51.618831,218.92144 64.293703,193.51301 85.727784,183.10362 90.672621,180.70218 541.53595,19.415032 552.74102,16.039178 c 6.58236,-1.983128 20.2701,-2.141832 27.22117,-0.315618 16.15821,4.245152 30.81215,16.386799 37.45063,31.030036 0.97444,2.149416 25.07724,69.238844 53.56178,149.087614 28.48455,79.84877 53.13667,148.75236 54.78251,153.11909 1.64585,4.36673 6.12511,17.12666 9.95392,28.35539 6.84017,20.06009 6.95514,20.5149 6.59741,26.09787 -0.66628,10.39821 -7.4581,23.8563 -15.8448,31.39666 -6.53195,5.87278 -14.56019,9.41562 -44.7943,19.76753 -19.69095,6.74204 -28.83342,10.31944 -40.08144,15.68372 -23.17173,11.05078 -37.21371,23.49516 -46.21683,40.95856 -4.50301,8.73451 -5.87643,15.66767 -5.36155,27.06554 0.60359,13.36171 3.5401,24.09301 14.40459,52.64071 9.27998,24.38422 12.29606,38.17149 11.64005,53.20961 -0.40655,9.31969 -1.48776,13.83134 -4.93309,20.58475 -3.39185,6.64856 -11.58635,11.83099 -31.91502,20.18391 -11.1918,4.59864 -265.84814,95.72623 -275.61437,98.62732 -6.83669,2.03085 -18.11701,2.82027 -24.32155,1.70201 z m 40.95671,-87.34869 c 19.54632,-7.00144 35.61534,-12.76982 35.70893,-12.81861 0.0936,-0.0488 -1.66884,-5.17283 -3.91653,-11.38672 -3.20602,-8.86326 -4.35557,-11.24715 -5.3343,-11.06201 -0.68618,0.12979 -5.72903,1.88262 -11.20634,3.89516 -5.47731,2.01255 -10.18961,3.43754 -10.47176,3.16666 -0.28217,-0.27089 -8.5645,-22.94999 -18.40518,-50.39801 -9.84068,-27.44801 -18.00082,-50.0167 -18.13364,-50.15264 -0.57456,-0.58807 -40.4529,29.07041 -40.4529,30.08579 0,1.0021 5.43829,16.19041 6.04677,16.88768 0.28872,0.33085 4.32806,-1.67473 8.97633,-4.45684 4.64825,-2.78211 8.55765,-4.92426 8.68755,-4.76033 0.18579,0.23447 9.08754,24.98282 25.97292,72.20908 0.17262,0.48279 -4.41123,2.52575 -10.89315,4.85495 -6.15514,2.21177 -11.34072,4.14123 -11.52348,4.28769 -1.00508,0.80536 7.39675,23.11922 8.54552,22.69547 0.47328,-0.17457 16.85295,-6.04587 36.39926,-13.04732 z m 116.37353,-39.64356 c 15.58691,-3.98646 26.74522,-14.68689 31.9536,-30.64239 1.6441,-5.03656 2.03477,-7.88446 2.33384,-17.01323 0.56725,-17.3149 -2.54565,-30.58871 -11.46274,-48.87842 -7.49034,-15.36334 -15.85653,-24.55474 -27.8702,-30.61922 -22.05753,-11.13461 -52.35358,-1.58408 -62.81135,19.80065 -4.2477,8.68598 -5.34762,13.93554 -5.29943,25.29245 0.048,11.3098 1.19238,17.60071 5.63958,31.00189 8.59765,25.90809 22.38365,43.6418 39.02627,50.20171 4.93339,1.94457 6.1573,2.12769 15.02053,2.24731 5.40895,0.073 9.32935,-0.33178 13.4699,-1.39075 z m 125.9394,-47.40455 c 19.35549,-6.93186 35.4316,-12.80303 35.72468,-13.04707 0.54516,-0.4539 -6.56765,-21.12186 -7.64333,-22.20953 -0.3269,-0.33054 -5.43751,1.15701 -11.35691,3.30566 -6.06449,2.20132 -11.04169,3.61891 -11.40204,3.24749 -0.35173,-0.36253 -8.6208,-22.87735 -18.37572,-50.03293 -9.75492,-27.15557 -17.93726,-49.57482 -18.18298,-49.82054 -0.24572,-0.24573 -3.43395,1.70789 -7.08495,4.34135 -6.07717,4.38347 -32.71533,24.01178 -33.39393,24.6063 -0.15989,0.14009 1.15852,4.35036 2.92981,9.35617 l 3.22054,9.10146 2.36319,-1.44485 c 1.29976,-0.79468 5.25192,-3.1744 8.78258,-5.2883 l 6.41939,-3.84342 0.97344,2.82742 c 0.53541,1.55507 6.44654,18.07293 13.13586,36.70633 6.68932,18.6334 12.0393,33.98138 11.88883,34.10662 -0.15047,0.12524 -5.29248,2.01967 -11.4267,4.20985 -6.13421,2.19017 -11.15312,4.21692 -11.15312,4.50389 0,0.6566 3.8244,11.86162 6.0172,17.62965 0.90909,2.3913 2.03977,4.34782 2.51262,4.34782 0.47285,0 16.69604,-5.67151 36.05154,-12.60337 z M 255.19849,517.05779 c 19.13043,-6.8679 35.00094,-12.70737 35.26779,-12.9766 0.44578,-0.44975 -6.77905,-21.41659 -7.69039,-22.31789 -0.21994,-0.21752 -5.42979,1.42484 -11.57742,3.64971 -11.03303,3.99293 -11.18543,4.02417 -11.78883,2.4163 -0.33621,-0.89591 -8.49527,-23.56117 -18.13124,-50.36722 -9.63597,-26.80607 -17.6625,-48.88084 -17.83671,-49.05507 -0.17423,-0.17421 -2.62763,1.37789 -5.45201,3.44912 -21.12983,15.49535 -34.67748,25.44743 -34.97069,25.6894 -0.36663,0.30257 4.1551,13.79541 5.58254,16.65825 0.83374,1.67216 0.92681,1.63895 9.0056,-3.21361 4.48974,-2.69677 8.40367,-4.90322 8.69763,-4.90322 0.38023,0 21.11011,56.80686 26.37808,72.28484 0.16138,0.47414 -4.50971,2.53333 -10.90729,4.80834 -6.15425,2.1885 -11.30958,4.09038 -11.4563,4.22641 -0.29399,0.27258 1.89899,7.1433 5.37401,16.83699 1.81557,5.0646 2.49289,6.1896 3.48787,5.79323 0.67911,-0.27053 16.88692,-6.11108 36.01736,-12.97898 z M 371.57202,477.5233 c 3.21221,-0.82155 7.94528,-2.5944 10.51792,-3.93967 5.94874,-3.11066 14.50965,-11.66028 17.65231,-17.629 9.21941,-17.51006 8.65656,-41.91679 -1.54582,-67.03225 -10.22284,-25.16583 -24.07876,-38.74857 -43.51168,-42.65384 -10.57016,-2.1242 -19.44451,-0.77043 -30.94983,4.72135 -12.34188,5.89109 -20.44742,15.90694 -24.05838,29.72845 -1.72054,6.58564 -1.7031,20.85758 0.0364,29.75123 1.9929,10.18949 6.03297,21.75774 11.3958,32.63062 9.40244,19.06296 21.66662,30.8471 36.1688,34.75309 5.9442,1.60099 17.3502,1.44607 24.29451,-0.32998 z m 133.91002,-47.95687 c 28.69137,-9.07947 39.60962,-41.75464 26.78637,-80.16388 -2.90793,-8.71005 -8.64791,-20.78488 -12.83764,-27.0057 -7.0226,-10.42699 -17.57099,-18.6387 -28.31546,-22.04304 -4.27632,-1.35493 -7.03588,-1.67166 -14.36673,-1.64897 -7.9341,0.0246 -9.83256,0.29272 -15.11561,2.13507 -22.10142,7.7074 -33.13142,25.13059 -31.89936,50.38882 0.69899,14.32975 4.66313,28.70353 12.21837,44.30319 9.83922,20.31549 23.95616,32.92064 40.46768,36.13396 4.69198,0.91311 17.11687,-0.21797 23.06238,-2.09945 z m 127.64807,-46.18544 c 11.74851,-2.48935 23.44548,-10.86546 29.06068,-20.8101 4.64914,-8.23374 6.43127,-15.17626 6.82771,-26.59826 0.57479,-16.56008 -2.09991,-29.30663 -9.67056,-46.08592 -8.22569,-18.23113 -18.5176,-29.61079 -32.01172,-35.39505 -17.21714,-7.38013 -39.1577,-2.98009 -52.74892,10.57845 -10.89259,10.8664 -15.21693,26.6553 -12.5179,45.70494 2.38598,16.84015 9.71775,36.26939 18.78767,49.78751 7.2137,10.75153 19.15668,19.97658 29.44444,22.74358 5.28148,1.42051 16.3071,1.45667 22.8286,0.0748 z m -441.3577,-43.87908 c 14.61662,-2.48313 26.57241,-11.22303 32.70583,-23.90855 4.48928,-9.28502 5.66401,-14.97338 5.67971,-27.50262 0.0194,-15.486 -3.03474,-28.13586 -10.73378,-44.45782 -8.60185,-18.23591 -19.08309,-28.83796 -33.98633,-34.37807 -6.82334,-2.5365 -18.63547,-3.14823 -26.2696,-1.36047 -18.21961,4.26669 -31.90069,17.72191 -35.5549,34.96795 -1.43254,6.76089 -1.41025,19.53018 0.0488,27.92709 0.64175,3.69342 2.5254,10.78486 4.18589,15.75875 10.23213,30.64972 25.66692,48.54544 45.68699,52.97135 6.087,1.34567 10.23619,1.34166 18.23744,-0.0176 z m 133.74744,-47.62996 c 16.7879,-3.51257 28.97611,-15.12486 34.52411,-32.89274 1.56882,-5.02428 1.769,-7.13718 1.75512,-18.52552 -0.0139,-11.38891 -0.24536,-13.76484 -2.03026,-20.8396 -3.65639,-14.49273 -11.78294,-31.96741 -18.96173,-40.77374 -10.88887,-13.35757 -25.85924,-20.38565 -41.3742,-19.42379 -21.187,1.3135 -38.41258,14.83657 -43.50789,34.15622 -3.09244,11.72544 -1.90606,27.91936 3.21295,43.85633 8.50825,26.48864 20.66783,43.44597 37.08897,51.723 7.38327,3.72152 19.24273,4.82266 29.29293,2.71984 z m 125.91404,-48.76162 c 19.66492,-7.06436 35.91636,-13.00627 36.11433,-13.20423 0.61905,-0.61905 -6.96865,-21.73594 -7.95025,-22.12587 -0.51224,-0.20348 -5.74576,1.3776 -11.63005,3.51351 -5.8843,2.13591 -10.79496,3.78618 -10.91259,3.66727 -0.11763,-0.11892 -8.03916,-21.99315 -17.60342,-48.6094 -9.56426,-26.61626 -17.75305,-49.33277 -18.19732,-50.48113 l -0.80778,-2.08794 -7.76593,5.59954 c -4.27127,3.07975 -13.42184,9.80382 -20.3346,14.94238 l -12.56864,9.34284 3.11312,8.88468 c 1.71222,4.88658 3.37368,8.88469 3.69214,8.88469 0.31845,0 4.1866,-2.22993 8.59591,-4.95539 4.40929,-2.72547 8.21235,-4.75994 8.45124,-4.52105 0.5351,0.5351 26.485,72.53317 26.24668,72.8215 -0.13727,0.1661 -7.3005,2.78895 -22.10789,8.09493 -0.66235,0.23734 -0.0508,2.87272 2.14332,9.2358 3.38678,9.82205 4.96973,13.84217 5.45044,13.84217 0.1743,0 16.40638,-5.77993 36.07129,-12.8443 z M 562.00378,203.3846 c 19.44234,-6.97889 35.34972,-13.01008 35.34972,-13.40264 0,-0.39256 -1.73919,-5.59109 -3.86486,-11.55229 l -3.86487,-10.83853 -8.42247,3.04468 c -4.63236,1.67458 -9.75155,3.52597 -11.37596,4.11421 -1.62442,0.58824 -3.03155,0.98082 -3.12695,0.87241 -0.0954,-0.10841 -8.23119,-22.65458 -18.07954,-50.10259 -9.84835,-27.448016 -18.13876,-50.136311 -18.42314,-50.418435 -0.4331,-0.429652 -12.76504,8.366388 -36.22322,25.837035 l -4.55976,3.39592 3.05984,8.70238 c 1.68292,4.78631 3.16421,8.83651 3.29176,9.00043 0.12754,0.16392 4.03502,-1.97822 8.68328,-4.76033 4.64826,-2.78211 8.68965,-4.78769 8.98086,-4.45684 0.2912,0.33085 5.22021,13.70173 10.95334,29.71307 5.73314,16.01134 11.54862,32.22487 12.92331,36.03007 l 2.49942,6.91853 -9.97789,3.5744 c -5.48783,1.96592 -10.74,3.86174 -11.6715,4.21294 l -1.69361,0.63854 3.73557,10.61928 c 4.20994,11.96781 4.3848,12.3395 5.58826,11.87904 0.47778,-0.18282 16.77607,-6.04239 36.21841,-13.02128 z"
     id="path2"
     transform="scale(0.03)" />
  <path
     style="fill:#ffffff;stroke-width:0.756144"
     d="m 281.66352,785.58866 c -0.83176,-0.19161 -3.30177,-0.71032 -5.48893,-1.15282 -14.21839,-2.87637 -29.63961,-14.51697 -36.59327,-27.62224 -1.51951,-2.86374 -12.46509,-32.42797 -24.32351,-65.69829 C 203.39938,657.84499 162.90014,544.32375 125.25951,438.84588 87.618878,333.36802 56.456707,245.09192 56.010242,242.67676 c -4.391488,-23.75574 8.289567,-49.1755 29.717542,-59.57018 2.96314,-1.43742 47.410216,-17.59645 98.771266,-35.90896 51.36106,-18.31252 153.61059,-54.809771 227.22118,-81.105014 73.61058,-26.295243 136.55954,-48.653191 139.88658,-49.68433 4.88776,-1.514853 7.71863,-1.884512 14.7448,-1.925393 10.55625,-0.06142 15.72303,1.15615 25.70888,6.058406 6.07877,2.984191 8.23366,4.582822 14.01358,10.396176 5.47437,5.506025 7.46052,8.145572 10.0054,13.29694 1.74635,3.534971 26.8607,72.778825 55.80967,153.875235 28.94897,81.09641 54.34269,152.21172 56.4305,158.03403 2.0878,5.8223 6.16854,17.56143 9.06831,26.08695 5.07625,14.92454 5.259,15.71224 4.91436,21.18294 -0.65447,10.38878 -7.44548,23.85046 -15.83867,31.39666 -6.401,5.75504 -14.3612,9.34099 -41.01941,18.4786 -33.02961,11.32153 -47.52147,17.66664 -61.21603,26.80281 -17.59101,11.73564 -29.89384,27.73176 -33.37976,43.40031 -1.7309,7.78004 -1.08924,21.16743 1.51063,31.51751 2.16049,8.60091 6.28077,20.94419 11.23471,33.65623 9.51805,24.42379 12.2663,36.10112 12.27725,52.16608 0.008,12.42019 -0.5996,15.54599 -4.56576,23.47081 -3.52039,7.0341 -12.50154,12.77062 -32.85536,20.98566 -11.95346,4.82455 -272.78275,97.90186 -277.8828,99.16289 -3.98696,0.98586 -16.33633,1.72899 -18.90359,1.13754 z m 37.43156,-87.33072 c 19.6969,-7.09236 36.04565,-13.03925 36.33053,-13.21532 0.79074,-0.4887 -6.96442,-21.62046 -8.0935,-22.05374 -0.54384,-0.20868 -5.67408,1.31925 -11.40053,3.39541 -5.72645,2.07616 -10.64506,3.55614 -10.93024,3.28884 -0.28517,-0.26729 -8.57164,-22.94345 -18.41436,-50.39147 -9.84272,-27.44801 -18.00039,-50.0167 -18.12815,-50.15264 -0.55895,-0.59471 -40.44371,29.07528 -40.44371,30.08579 0,0.96674 5.42696,16.17649 6.01394,16.85485 0.27066,0.31279 4.21136,-1.64373 8.75713,-4.34783 4.54576,-2.70409 8.44106,-4.91359 8.65624,-4.90999 0.92213,0.0154 26.48165,72.86992 25.72828,73.33552 -0.43807,0.27075 -5.55192,2.16876 -11.36412,4.21782 -5.8122,2.04906 -10.56824,4.08706 -10.56896,4.52889 -0.002,1.39873 7.3608,22.25905 7.85682,22.25905 0.10344,0 16.30372,-5.80284 36.00063,-12.89518 z m 117.50529,-40.01631 c 8.15524,-2.08576 14.36529,-5.57962 20.15687,-11.34053 5.73744,-5.70707 8.8375,-10.80583 11.73555,-19.30186 1.75328,-5.13996 2.11678,-7.66439 2.41845,-16.79588 0.56062,-16.96962 -2.44758,-30.29079 -10.745,-47.58198 -8.72417,-18.1805 -18.35033,-28.16279 -32.73426,-33.94528 -21.06948,-8.47016 -49.05259,1.90057 -58.7716,21.78116 -4.16267,8.51488 -5.26425,13.82063 -5.21629,25.12421 0.0455,10.72551 1.14389,17.17485 4.95798,29.11154 9.22197,28.86141 25.06709,48.22497 43.66317,53.35864 5.51461,1.52238 17.78103,1.31739 24.53513,-0.41002 z m 122.49524,-46.23448 c 17.50686,-6.28831 33.60336,-12.09214 35.76999,-12.89739 l 3.93933,-1.46408 -3.76829,-10.7123 c -2.07256,-5.89175 -4.03926,-10.98326 -4.37045,-11.31445 -0.3312,-0.33119 -5.45336,1.14778 -11.38259,3.2866 -6.0997,2.20031 -11.06079,3.60224 -11.42615,3.22886 -0.35514,-0.36295 -8.36026,-22.09658 -17.78914,-48.29696 -9.42888,-26.20038 -17.48178,-48.57278 -17.89533,-49.71645 -0.41356,-1.14366 -0.97383,-2.07783 -1.24506,-2.07593 -0.27122,0.002 -8.82962,6.14518 -19.01866,13.65173 -10.18903,7.50655 -19.16701,14.11937 -19.95107,14.69515 -1.37754,1.01162 -1.32662,1.3314 1.51229,9.4964 1.61581,4.64725 3.31257,8.59806 3.77056,8.77959 0.45801,0.18154 4.53757,-1.89525 9.06569,-4.61508 l 8.23296,-4.94515 0.90293,2.60805 c 0.49661,1.43442 6.41158,17.94878 13.14438,36.69859 6.7328,18.7498 12.1146,34.19676 11.95955,34.32658 -0.15504,0.12983 -5.3008,2.028 -11.43502,4.21818 -6.13421,2.19017 -11.15312,4.21692 -11.15312,4.50389 0,0.6566 3.8244,11.86162 6.0172,17.62965 0.90909,2.3913 2.02109,4.34782 2.4711,4.34782 0.45002,0 15.14202,-5.14498 32.6489,-11.4333 z M 255.89965,516.76106 c 24.79996,-8.91844 34.45993,-12.71306 34.46102,-13.53692 0.002,-1.2808 -6.74978,-20.5205 -7.47672,-21.3065 -0.25536,-0.27611 -5.50722,1.29911 -11.6708,3.50047 -11.02378,3.93722 -11.21647,3.97623 -11.81673,2.39238 -0.33561,-0.88556 -8.4995,-23.55038 -18.14196,-50.36628 -9.64248,-26.81589 -17.66362,-48.88804 -17.8248,-49.0492 -0.16117,-0.16117 -6.51957,4.27289 -14.12977,9.85347 -7.61022,5.58058 -16.62276,12.17068 -20.02789,14.64467 -3.40513,2.47398 -6.213,4.83842 -6.23972,5.2543 -0.10405,1.61926 5.67719,16.46533 6.54176,16.79909 0.5039,0.19453 4.34771,-1.7193 8.54179,-4.25294 4.19407,-2.53365 7.8747,-4.60664 8.17916,-4.60664 0.39346,0 21.41575,57.58313 26.38955,72.28484 0.16024,0.47366 -4.51784,2.53561 -10.90899,4.80834 -6.15425,2.1885 -11.30988,4.09067 -11.45696,4.22707 -0.2889,0.26791 4.74976,15.73261 6.48172,19.8938 0.86116,2.06899 1.3868,2.47408 2.84795,2.19476 0.98554,-0.18841 17.29867,-5.91902 36.25139,-12.73471 z m 114.09246,-38.86211 c 14.51473,-3.07549 26.36084,-13.08622 32.04815,-27.08278 5.61784,-13.82559 5.52968,-33.79203 -0.22996,-52.07964 -6.46835,-20.53782 -17.03069,-36.88318 -28.95748,-44.8121 -6.61801,-4.39965 -10.81122,-6.1546 -18.36062,-7.6843 -19.55742,-3.96284 -42.40123,6.80315 -50.77703,23.93055 -4.06813,8.31878 -5.28817,13.96419 -5.30257,24.53631 -0.0211,15.46382 3.98747,30.70807 12.72519,48.3932 9.34441,18.91305 21.76775,30.88957 36.01709,34.7217 5.28934,1.42248 16.31196,1.45968 22.83723,0.0771 z m 133.16631,-47.65241 c 18.02863,-4.76904 29.95381,-18.62393 33.51179,-38.93462 4.54677,-25.95522 -9.26115,-65.56341 -28.34338,-81.30333 -14.55241,-12.00351 -32.1863,-14.90874 -49.34762,-8.13016 -27.18535,10.73797 -36.26764,39.12539 -24.21805,75.69542 10.16965,30.86451 26.19731,49.41288 46.52428,53.84131 4.19467,0.91385 16.48233,0.25735 21.87298,-1.16862 z M 633.1727,383.37208 c 16.43042,-3.48103 29.40081,-16.10686 34.18576,-33.27756 1.91301,-6.86481 2.29535,-23.46108 0.74942,-32.53042 -2.56808,-15.06596 -10.83849,-34.75128 -19.18973,-45.67565 -12.98472,-16.9855 -31.967,-24.21967 -51.47738,-19.6181 -1.91945,0.4527 -6.67499,2.34342 -10.56786,4.20158 -12.34372,5.89198 -20.45695,15.91881 -24.05482,29.72845 -1.73858,6.67319 -1.73109,20.93619 0.0156,29.75123 3.19026,16.10002 11.72622,36.12614 20.14643,47.26531 7.58666,10.03646 17.75906,17.51771 27.31272,20.08701 5.30194,1.42588 16.31652,1.45868 22.87982,0.0682 z M 195.46314,338.75597 c 16.72909,-4.27939 29.05684,-17.12472 33.38457,-34.78622 1.81813,-7.41987 1.79476,-24.25293 -0.0457,-32.89225 -4.24116,-19.90852 -13.76379,-39.21655 -24.54916,-49.77572 -9.65215,-9.44972 -19.19532,-13.73245 -31.85209,-14.29441 -14.47409,-0.64264 -26.77413,3.9703 -36.61746,13.73282 -14.74894,14.62786 -17.36322,37.39794 -7.65928,66.71172 7.84644,23.70264 20.73639,41.28951 35.63978,48.62643 9.33819,4.59718 20.50725,5.54062 31.69934,2.67763 z M 328.9225,291.08705 c 17.0537,-5.13259 28.58649,-18.4831 32.20276,-37.27833 1.40031,-7.27801 1.35694,-19.431 -0.0993,-27.81175 -2.62058,-15.08204 -11.43562,-35.81124 -19.74425,-46.43003 -16.06297,-20.52917 -41.49063,-26.02512 -63.77702,-13.78481 -6.6466,3.65049 -14.82326,12.03302 -17.94176,18.39348 -3.92987,8.01532 -5.05238,13.42819 -5.08495,24.52004 -0.0332,11.31299 1.17765,18.10496 5.59445,31.37996 9.65345,29.01415 24.86789,46.85558 44.27536,51.92016 4.92778,1.28595 19.01315,0.7651 24.57467,-0.90872 z m 122.51692,-47.99464 c 19.68159,-7.07422 35.94234,-13.01985 36.135,-13.21252 0.37449,-0.37448 -6.25977,-19.70092 -7.38111,-21.50209 -0.55298,-0.88823 -2.59842,-0.39816 -11.82567,2.8334 -6.13637,2.14907 -11.24059,3.8233 -11.34273,3.72051 -0.10212,-0.1028 -8.01405,-21.96385 -17.58205,-48.5801 -9.56801,-26.61626 -17.75656,-49.33346 -18.1968,-50.48267 l -0.80041,-2.08947 -8.10727,5.87019 c -4.45899,3.2286 -13.60929,9.95336 -20.334,14.94391 l -12.22674,9.07373 3.11312,8.88468 c 1.71222,4.88658 3.31343,8.88469 3.55825,8.88469 0.24482,0 4.11656,-2.22636 8.60384,-4.94745 4.4873,-2.72111 8.36211,-4.74409 8.61068,-4.4955 0.24858,0.24857 6.2851,16.68098 13.41448,36.51645 8.77455,24.41267 12.6903,36.2398 12.11995,36.60706 -0.46341,0.29841 -5.52043,2.16987 -11.23782,4.15879 -7.70241,2.67947 -10.39569,3.94006 -10.39698,4.8663 -0.003,2.069 7.04555,21.81231 7.78704,21.81231 0.16748,0 16.40762,-5.788 36.08922,-12.86222 z m 110.56436,-39.73698 c 19.44234,-7.00054 35.34972,-13.03402 35.34972,-13.40774 0,-0.37371 -1.73919,-5.55682 -3.86486,-11.51802 l -3.86487,-10.83853 -8.42247,3.04468 c -4.63236,1.67458 -9.75155,3.52597 -11.37596,4.11421 -1.62442,0.58824 -3.03389,0.98082 -3.13217,0.87241 -0.21851,-0.24105 -35.13695,-97.205788 -35.67402,-99.062894 -0.21047,-0.727788 -0.73393,-1.323251 -1.16324,-1.323251 -0.86383,0 -13.38025,8.903189 -29.75438,21.1649 l -10.67351,7.992835 2.96455,8.29448 c 1.63052,4.56196 3.21095,8.54253 3.51209,8.84571 0.30113,0.30318 4.24639,-1.67051 8.76723,-4.38596 4.52084,-2.71546 8.46464,-4.66483 8.764,-4.33195 0.29935,0.33288 4.99214,13.0249 10.4284,28.20448 5.43626,15.17959 11.24149,31.38934 12.90053,36.02168 l 3.01641,8.42241 -9.96623,3.60407 c -5.48143,1.98223 -10.72835,3.88183 -11.65985,4.22133 l -1.69361,0.61728 3.73557,10.61928 c 4.20886,11.96471 4.38427,12.33774 5.58826,11.88414 0.47778,-0.18001 16.77607,-6.055 36.21841,-13.05555 z"
     id="path3"
     transform="scale(0.03)" />
  <path
     style="fill:#ffffff;stroke-width:0.756144"
     d="m 359.91949,454.90884 c -11.5007,-3.73366 -23.00617,-22.22113 -29.49785,-47.39836 -4.17293,-16.18426 -3.8042,-28.65107 1.00956,-34.13365 6.03678,-6.8755 15.44963,-6.06046 24.30786,2.10477 13.43205,12.38123 24.92246,45.20014 22.29976,63.69256 -0.88622,6.24868 -3.56979,11.57903 -7.0174,13.93864 -2.73485,1.87178 -8.16345,2.75001 -11.10193,1.79604 z"
     id="path4"
     transform="scale(0.03)" />
  <path
     style="fill:#ffffff;stroke-width:0.756144"
     d="m 488.09074,406.73098 c -13.84707,-7.51686 -29.07037,-41.69986 -29.09547,-65.33211 -0.01,-9.0491 0.94437,-12.48051 4.4422,-15.97834 4.60111,-4.60111 9.8606,-5.1718 16.89589,-1.83334 18.88736,8.96264 35.90423,57.58797 26.72164,76.3565 -2.79378,5.71027 -5.53908,7.53127 -11.76397,7.80323 -3.46292,0.1513 -5.60751,-0.15131 -7.20029,-1.01594 z"
     id="path5"
     transform="scale(0.03)" />
  <path
     style="fill:#ffffff;stroke-width:0.756144"
     d="m 623.05749,360.35211 c -11.3586,-3.45513 -23.0153,-22.15058 -29.6606,-47.57076 -1.93144,-7.38833 -2.317,-10.33827 -2.38706,-18.26339 -0.075,-8.48638 0.0976,-9.81975 1.6904,-13.05417 5.07361,-10.30301 18.13189,-9.51498 28.28726,1.70706 7.15056,7.90163 13.49324,20.70651 17.60595,35.54371 2.66776,9.6243 3.40318,24.12771 1.54716,30.51216 -2.54534,8.75568 -9.65402,13.38521 -17.08311,11.12539 z"
     id="path6"
     transform="scale(0.03)" />
  <path
     style="fill:#ffffff;stroke-width:0.756144"
     d="m 423.65691,635.45605 c -3.55283,-1.02704 -11.04045,-8.33204 -14.91936,-14.55549 -11.18235,-17.94134 -18.46293,-45.84556 -15.57612,-59.69843 1.04028,-4.99196 4.19336,-9.19913 8.12572,-10.84217 13.79572,-5.76422 31.06667,13.674 39.40253,44.34703 1.67899,6.17808 1.9578,8.77066 1.99231,18.52552 0.0401,11.32747 0.0371,11.34752 -2.30808,15.48217 -3.66698,6.46507 -9.51486,8.82331 -16.717,6.74137 z"
     id="path7"
     transform="scale(0.03)" />
  <path
     style="fill:#ffffff;stroke-width:0.756144"
     d="m 316.8242,268.8274 c -4.23889,-0.80744 -7.11187,-2.68633 -11.4678,-7.49979 -9.28988,-10.26564 -18.36105,-31.72875 -21.11731,-49.96519 -1.2312,-8.14613 -0.59586,-17.78098 1.43066,-21.69572 3.4486,-6.66184 11.24176,-8.94188 18.7067,-5.473 10.71031,4.97698 21.48648,22.12616 27.27511,43.40554 1.7553,6.45259 2.06639,9.11383 2.1214,18.14745 0.0685,11.25199 -0.4427,13.67045 -3.87619,18.33728 -2.93117,3.98408 -7.79461,5.74879 -13.07257,4.74343 z"
     id="path8"
     transform="scale(0.03)" />
  <path
     style="fill:#ffffff;stroke-width:0.756144"
     d="m 181.09641,315.00438 c -10.36408,-4.82651 -22.45288,-26.91974 -27.59036,-50.42353 -1.90781,-8.72815 -2.27336,-19.56798 -0.83207,-24.67346 2.07935,-7.36564 8.75148,-11.3876 16.00466,-9.64758 8.55272,2.05176 16.35281,10.22826 23.42994,24.56061 11.52604,23.34212 13.7062,48.41418 5.01895,57.71838 -3.83839,4.11096 -10.34808,5.11216 -16.03112,2.46558 z"
     id="path9"
     transform="scale(0.03)" />
  <path
     style="fill:#999999;stroke-width:0.756144"
     d="m 626.19914,653.30813 c 0.35418,-5.40643 0.59323,-14.59357 0.53122,-20.41588 -0.13423,-12.60461 -1.56493,-18.95695 -8.18844,-36.35673 -15.44429,-40.57177 -17.28087,-47.06321 -17.31093,-61.1858 -0.019,-8.92055 0.16793,-10.31037 2.02064,-15.02412 3.10808,-7.90772 7.07383,-13.88968 13.35336,-20.1423 12.96737,-12.9118 31.82802,-22.39107 72.24189,-36.30841 29.48606,-10.15413 39.98771,-15.3918 49.67943,-24.77748 3.56206,-3.44958 6.2408,-5.47894 6.89885,-5.22642 4.81858,1.84907 -1.54797,29.90851 -12.72179,56.06899 -19.32918,45.25406 -53.61358,105.19374 -81.34396,142.21428 -6.30514,8.41748 -21.01016,26.21401 -24.66422,29.84952 -1.01577,1.01062 -1.06983,0.063 -0.49605,-8.69565 z"
     id="path10"
     transform="scale(0.03)" />
  <path
     style="fill:#999999;stroke-width:0.094518"
     d=""
     id="path11"
     transform="scale(0.03)" />
  <path
     style="fill:#999999;stroke-width:0.094518"
     d=""
     id="path12"
     transform="scale(0.03)" />
  <path
     style="fill:#999999;stroke-width:0.094518"
     d=""
     id="path13"
     transform="scale(0.03)" />
</svg>
