<svg xmlns="http://www.w3.org/2000/svg" viewBox="0 0 64.623 62.355"><g transform="translate(-38.312 -85.637)"><ellipse cx="70.623" cy="116.815" rx="32.311" ry="31.178" style="fill:#0096fa;fill-opacity:1;fill-rule:evenodd;stroke-width:1.449;stroke-linecap:round;stroke-linejoin:bevel;stop-color:#000"/><path d="M53.955 137.207q-.002-.51 1.058-.977l1.058-.467v-15.295c0-8.412-.053-15.295-.118-15.295-.438 0-3.423 2.862-4.14 3.968-.71 1.096-.86 1.57-.801 2.527.057.926-.028 1.218-.395 1.359-.27.103-.51.047-.571-.133-.057-.171-.683-1.199-1.391-2.283l-1.287-1.972 2.016-1.883c4.602-4.297 10.59-7.463 17.006-8.992 3.788-.902 8.738-.866 12.265.09 7.2 1.952 11.963 6.6 13.25 12.93.75 3.693.334 7.256-1.204 10.318-1.437 2.86-5.198 6.276-8.522 7.74-5.074 2.234-12.486 2.385-19.257.393-.962-.282-1.884-.514-2.05-.514-.212 0-.303 1.066-.303 3.554 0 3.456.017 3.56.596 3.736.773.235 1.52.9 1.52 1.35 0 .284-.884.356-4.365.356-4.134 0-4.365-.027-4.365-.51m21.897-9.584c2.152-.408 4.767-1.854 6.481-3.584 3.108-3.136 4.033-5.439 4.02-10.002-.014-4.46-1.043-7.28-3.706-10.157-1.65-1.782-3.362-2.865-5.938-3.755-2.265-.782-6.661-.843-9.37-.13-1.978.52-5.208 1.786-6.172 2.417l-.598.392v23.026l1.204.515c3.637 1.56 9.693 2.11 14.08 1.278" style="fill:#fff;fill-opacity:1;stroke-width:.264583"/></g></svg>