<?xml version="1.0" encoding="UTF-8" standalone="no"?>
<!-- Created with Inkscape (http://www.inkscape.org/) -->

<svg
   width="67.73333mm"
   height="67.73333mm"
   viewBox="0 0 67.733331 67.733331"
   version="1.1"
   id="svg5"
   inkscape:version="1.1.1 (3bf5ae0d25, 2021-09-20)"
   sodipodi:docname="pixiv-icon.svg"
   inkscape:export-filename="/mnt/main_storage/Git/libredirect/src/assets/images/pixiv-icon.png"
   inkscape:export-xdpi="48"
   inkscape:export-ydpi="48"
   xmlns:inkscape="http://www.inkscape.org/namespaces/inkscape"
   xmlns:sodipodi="http://sodipodi.sourceforge.net/DTD/sodipodi-0.dtd"
   xmlns="http://www.w3.org/2000/svg"
   xmlns:svg="http://www.w3.org/2000/svg">
  <sodipodi:namedview
     id="namedview7"
     pagecolor="#ffffff"
     bordercolor="#666666"
     borderopacity="1.0"
     inkscape:pageshadow="2"
     inkscape:pageopacity="0.0"
     inkscape:pagecheckerboard="0"
     inkscape:document-units="mm"
     showgrid="false"
     inkscape:zoom="1.622695"
     inkscape:cx="53.614512"
     inkscape:cy="136.50132"
     inkscape:window-width="1888"
     inkscape:window-height="1060"
     inkscape:window-x="32"
     inkscape:window-y="0"
     inkscape:window-maximized="1"
     inkscape:current-layer="layer1" />
  <defs
     id="defs2" />
  <g
     inkscape:label="Layer 1"
     inkscape:groupmode="layer"
     id="layer1"
     transform="translate(-103.98557,-52.402599)">
    <circle
       style="fill:#0096fa;fill-opacity:1;stroke-width:2.64583"
       id="path1234"
       cx="137.85223"
       cy="86.269264"
       r="33.866665" />
    <path
       style="fill:#ffffff;stroke-width:0.313386"
       d="m 122.7229,105.30379 c -0.24873,-0.40245 0.7237,-1.54717 1.31432,-1.54717 0.347,0 0.42151,-2.55398 0.42151,-14.446665 V 74.863294 l -1.03225,0.892679 c -2.10117,1.817053 -3.35517,3.636697 -3.35517,4.868584 0,2.298073 -1.08814,1.726257 -2.82048,-1.482147 l -0.78346,-1.451038 1.56693,-1.400312 c 10.52844,-9.408887 24.10553,-12.052505 33.56986,-6.536439 2.25569,1.314672 4.93919,4.203746 6.03254,6.494663 1.20804,2.531212 1.59075,4.221702 1.60031,7.068726 0.0327,9.739076 -9.81435,16.74731 -21.67016,15.422863 -2.55639,-0.285577 -6.17239,-1.083524 -7.85889,-1.734229 -0.5011,-0.193334 -0.54843,0.07462 -0.54843,3.104446 v 3.31605 l 0.94017,0.48616 c 0.56299,0.29114 0.94015,0.7344 0.94015,1.10491 0,0.58416 -0.2265,0.61873 -4.05553,0.61873 -2.5259,0 -4.13318,-0.12566 -4.26142,-0.33315 z m 19.92492,-9.384243 c 3.71424,-0.704393 6.88163,-2.766994 8.79493,-5.727265 3.22224,-4.985408 2.57484,-12.126756 -1.49817,-16.526092 -4.49505,-4.855189 -12.08781,-5.637541 -19.30051,-1.988706 l -1.49264,0.755112 0.0825,10.88286 0.0824,10.88286 2.11342,0.706325 c 3.4895,1.166218 8.18184,1.590735 11.21817,1.014906 z"
       id="path6646" />
  </g>
</svg>
