<svg xmlns="http://www.w3.org/2000/svg" viewBox="0 0 1000 1001"><path fill="#d64000" d="M864.394 135.44c12.71 12.685 19.677 29.665 19.677 47.72 0 18.053-6.992 35.033-19.652 47.743a67.42 67.42 0 0 1-95.263 0 67.07 67.07 0 0 1-19.677-47.744c0-18.054 6.992-35.034 19.677-47.744a67.12 67.12 0 0 1 47.694-19.826c17.354 0 34.51 6.617 47.744 19.826h-.175zM135.375 865.907a67.67 67.67 0 0 1 0-95.463 67.2 67.2 0 0 1 47.72-19.851c18.053 0 35.033 6.991 47.718 19.851a67.67 67.67 0 0 1 0 95.463 67.17 67.17 0 0 1-47.694 19.852c-18.078 0-35.058-6.992-47.744-19.852M649.222 140.61h-.525a59.3 59.3 0 0 1-31.463-31.987 58.38 58.38 0 0 1 0-45.247 59.08 59.08 0 0 1 54.511-36.457c7.492 0 15.357 1.598 22.524 4.47a59.355 59.355 0 0 1 31.962 77.234 59.18 59.18 0 0 1-77.01 31.987M328.399 856.443c7.69 0 15.207 1.598 22.523 4.47a59.355 59.355 0 0 1 31.988 77.234 58.53 58.53 0 0 1-31.963 31.988 58.36 58.36 0 0 1-45.247 0 59.355 59.355 0 0 1-31.962-77.235 59.11 59.11 0 0 1 54.486-36.457zM550.563 51.938a50.69 50.69 0 0 1-48.244 50.591h-2.322a50.665 50.665 0 0 1-50.59-50.59c-.026-27.868 22.698-50.591 50.59-50.591 27.867 0 50.566 22.873 50.566 50.765zM449.382 949.584c0-27.892 22.723-50.59 50.615-50.59 27.867 0 50.566 22.698 50.566 50.59a50.665 50.665 0 0 1-50.566 50.59 50.665 50.665 0 0 1-50.59-50.59zM344.68 125.052a41.8 41.8 0 0 1-32.188 0 41.65 41.65 0 0 1-22.873-22.873 42.2 42.2 0 1 1 77.909-32.362c4.32 10.538 4.32 21.975 0 32.362a41.1 41.1 0 0 1-22.848 22.873M655.14 876.47a43.2 43.2 0 0 1 16.23-3.222q8.316 0 16.107 3.222a42.275 42.275 0 0 1 22.873 55.235 41.1 41.1 0 0 1-22.873 22.898 42.28 42.28 0 0 1-32.362 0 41.1 41.1 0 0 1-22.873-22.898 42.275 42.275 0 0 1 22.873-55.235zM206.866 159.737c12.885 13.06 13.235 33.81.725 47.194l-.725.75c-13.234 13.209-34.659 13.209-47.693 0a33.885 33.885 0 0 1 0-47.944c6.592-6.592 15.182-9.814 23.921-9.814 8.765 0 17.355 3.222 23.972 9.814zm585.687 634.48c6.443-6.618 15.208-9.84 23.772-9.84 8.59 0 17.33 3.247 23.972 9.84 6.418 6.242 9.814 14.832 9.814 23.971a33.685 33.685 0 1 1-67.371 0c0-8.94 3.57-17.53 9.813-23.972m-722.775-426.2a42.375 42.375 0 0 1-22.874-55.235c4.295-10.538 12.336-18.603 22.874-22.873 5.368-2.148 10.737-3.246 16.28-3.246s10.888 1.098 16.082 3.246a42.525 42.525 0 0 1 22.873 55.235 41.1 41.1 0 0 1-22.873 22.873c-10.538 4.295-21.975 4.295-32.163 0zM930.192 633.68a42.3 42.3 0 0 1 22.873 55.235 42.2 42.2 0 0 1-77.934 0 42.3 42.3 0 0 1 38.955-58.431c16.455 0 10.737 1.048 16.106 3.196M1.158 501.01c0-27.866 22.698-50.59 50.59-50.59 27.868 0 50.566 22.724 50.566 50.59a50.665 50.665 0 0 1-50.565 50.616 50.665 50.665 0 0 1-50.59-50.615m896.497 0c0-27.866 22.698-50.59 50.566-50.59 27.892 0 50.59 22.724 50.59 50.59a50.665 50.665 0 0 1-50.59 50.616 50.665 50.665 0 0 1-50.566-50.59zM31.173 695.184a59.056 59.056 0 0 1 32.012-77.235 59.08 59.08 0 0 1 77.21 32.013 58.38 58.38 0 0 1 0 45.197 59.106 59.106 0 0 1-109.222 0zM859.225 351.56a57.93 57.93 0 0 1 0-45.047 59.11 59.11 0 0 1 54.511-36.457c23.223 0 45.197 13.759 54.511 36.457a59.056 59.056 0 0 1-31.987 77.235 59.106 59.106 0 0 1-77.21-32.013zM643.33 644.417a47.27 47.27 0 0 0 0 67.022 47.22 47.22 0 0 0 67.021 0 46.95 46.95 0 0 0 13.934-33.411c0-12.71-4.995-24.671-13.934-33.46a46.77 46.77 0 0 0-33.436-13.735 47.94 47.94 0 0 0-33.585 13.734zM248.343 472.045a37.456 37.456 0 0 1-26.47-45.946c2.698-9.639 8.766-17.68 17.53-22.873 5.719-3.396 12.161-4.994 18.578-4.994 6.443 0 6.443.35 9.664 1.248 9.639 2.697 17.68 8.765 22.698 17.53 4.995 8.74 6.243 18.777 3.746 28.59a37.556 37.556 0 0 1-45.946 26.645l.2-.175zm483.632 129.822a37.26 37.26 0 0 1-22.724-17.53c-4.994-8.739-6.242-18.777-3.745-28.615a37.606 37.606 0 0 1 36.282-27.893c6.442 0 5.369.2 8.066.9l1.772.549a37.556 37.556 0 0 1 8.94 68.819c-8.74 4.994-18.778 6.442-28.591 3.745zm-502.76-28.441a30.29 30.29 0 0 1 19.477-36.457l1.798-.525a30.215 30.215 0 0 1 36.807 21.275c2.147 7.866 1.074 15.907-3.046 22.873-3.92 6.992-10.538 11.986-18.229 14.134-7.866 2.122-15.732 1.048-22.873-3.047a29.24 29.24 0 0 1-13.934-18.228zm497.39-111.195-1.248-.724a30.1 30.1 0 0 1-12.685-17.504 30.09 30.09 0 1 1 36.807 21.275c-7.666 2.122-15.732.874-22.873-3.047M339.66 692.686l-.898.899c-8.74 8.74-23.223 8.74-31.963 0a22.598 22.598 0 1 1 38.605-15.907 21.23 21.23 0 0 1-5.744 14.983zm352.986-385.273c4.295 4.295 6.617 10.013 6.617 16.081a22.598 22.598 0 1 1-45.197 0 22.573 22.573 0 0 1 22.673-22.698c6.093 0 11.812 2.322 16.082 6.617zM461.018 727.744c3.945 6.942 4.994 14.983 3.046 22.874-2.147 7.84-6.991 14.283-13.933 18.228-6.992 3.92-15.033 4.994-22.898 3.047a30.165 30.165 0 0 1-21.25-36.832c2.147-7.866 6.966-14.308 13.933-18.229 6.992-3.945 15.008-5.019 22.873-3.046 7.866 2.147 14.134 7.141 18.229 14.108v-.175zm77.384-453.766c-3.92-6.967-4.994-15.008-3.021-22.874 2.147-7.865 6.966-14.308 13.933-18.228 4.645-2.697 9.839-3.946 15.008-3.946 5.193 0 5.193.375 7.865 1.074 7.866 2.148 14.309 6.992 18.229 14.134a30.015 30.015 0 0 1-33.785 44.148 29.04 29.04 0 0 1-18.229-14.109zm45.222 436.412 1.623.874c7.866 4.994 13.384 12.71 15.906 21.824a37.38 37.38 0 0 1-26.469 45.946 37.2 37.2 0 0 1-28.591-3.745c-8.74-5.02-14.833-13.06-17.504-22.899a37.3 37.3 0 0 1 3.745-28.616 37.26 37.26 0 0 1 32.537-18.753c6.417 0 12.86 1.773 18.753 4.994zM444.762 295.078a37.556 37.556 0 0 1-45.946-26.644 37.38 37.38 0 0 1 36.108-47.195c16.63 0 31.812 11.087 36.282 27.893a37.38 37.38 0 0 1-26.469 45.946zm-121.907 75.436c26.095 0 47.195-21.275 47.195-47.37a47.294 47.294 0 0 0-47.195-47.369c-26.094 0-47.194 21.275-47.194 47.37s21.1 47.37 47.194 47.37" style="stroke-width:24.9706"/></svg>