<svg xmlns="http://www.w3.org/2000/svg" xmlns:xlink="http://www.w3.org/1999/xlink" viewBox="0 0 123.472 123.472"><defs><radialGradient xlink:href="#a" id="b" cx="93.969" cy="149.132" r="12.14" fx="93.969" fy="149.132" gradientUnits="userSpaceOnUse"/><linearGradient id="a"><stop offset=".869" style="stop-color:#fbfff5;stop-opacity:1"/><stop offset="1" style="stop-color:#fff;stop-opacity:0"/></linearGradient></defs><g transform="translate(-4.306 -93.635)"><circle cx="66.042" cy="155.371" r="61.736" style="fill:#fcd43f;fill-opacity:1;fill-rule:evenodd;stroke:none;stroke-width:3.55348;stroke-linecap:round;stroke-linejoin:round;stroke-opacity:.411765;paint-order:stroke fill markers;stop-color:#000"/><path d="m109.743 135.955-30.194 28.032-10.805 52.852 2.152.069a61.736 61.736 0 0 0 56.882-61.536 62 62 0 0 0-.501-7.841z" style="fill:#feea89;fill-opacity:1;stroke:none;stroke-width:.264583px;stroke-linecap:butt;stroke-linejoin:miter;stroke-opacity:1"/><circle cx="93.969" cy="149.132" r="12.14" style="fill:url(#b);fill-rule:evenodd;stroke-width:1.8476;stroke-linecap:round;stroke-linejoin:round;stroke-opacity:.411765;paint-order:stroke fill markers;stop-color:#000;fill-opacity:1"/><path d="m79.448 164.544 30.339-28.575-15.522-15.984-9.525-.018-13.406-12.451-17.345 15.767s2.63 4.53 3.587 5.983c-9.442-2.25-21.15-.283-28.928 5.61-10.09 7.642-14.493 23.193-6.385 33.901 7.11 9.392 19.237 12.526 29.316 17.552 4.741 2.365 9.745 4.897 12.887 9.36 5.19 7.37 1.855 16.07-4.774 21.066v.353H70.63c1.237 0 3.29.384 4.36-.363 1.867-1.303 2.812-5.296 3.242-7.399 1.531-7.489.323-15.99-4.845-21.872-8.176-9.303-20.77-11.922-31.332-17.457-5.105-2.676-10.4-6.18-11.755-12.176-1.651-7.307 3.645-13.868 9.99-16.698 7.187-3.205 22.924 1.291 22.924 1.291l1.943 6.587z" style="fill:#060403;stroke:none;stroke-width:.352778"/></g></svg>