<svg xmlns="http://www.w3.org/2000/svg" viewBox="0 0 87.054 87.054"><path d="M34.898 164.033c-.329-.761-.404-21.903-.086-24.39.16-1.255.242-1.41.743-1.41.506 0 .578.145.708 1.41.079.775.272 4.83.429 9.009.244 6.501.23 8.172-.091 11.57-.207 2.186-.448 4.088-.535 4.23-.291.47-.874.262-1.168-.419m10.004.29c-.234-.235-.392-.837-.403-1.533-.01-.63-.109-2.415-.221-3.966-.25-3.453.199-21.563.546-22 .313-.395 1.03-.393 1.36.002.155.188.364 3.838.534 9.324.321 10.402.052 17.691-.673 18.25-.515.399-.678.387-1.143-.078zm13.24-.152c-.345-.49-.389-2.368-.389-16.66 0-13.468.057-16.162.343-16.449.68-.679 4.037-1.286 7.011-1.268 3.363.02 5.171.436 8.09 1.859 2.707 1.32 6.048 4.564 7.41 7.197.936 1.81 1.904 4.898 1.904 6.075 0 .61.068.674.552.519 5.043-1.618 10.092.526 12.35 5.244.967 2.02 1.108 5.089.332 7.224-1.06 2.918-3.019 4.973-5.818 6.103l-1.41.57-14.994.07-14.994.07zm-29.678-.015c-.328-.971-.586-9.477-.377-12.44.129-1.82.238-3.672.242-4.114.009-.812.571-1.316.983-.883.113.12.38 2.095.593 4.39.37 3.996.366 4.354-.108 8.457-.54 4.672-.585 4.896-.969 4.896-.143 0-.307-.138-.364-.306m3.272.245c-.019-.034-.222-2.047-.452-4.474-.383-4.028-.389-5-.07-11.153.192-3.707.392-6.879.445-7.047s.304-.307.56-.307c.526 0 .55.203 1.04 8.95.232 4.145.214 5.582-.121 9.284-.218 2.409-.456 4.476-.53 4.594-.117.191-.786.309-.872.153m6.542-.163c-.597-.966-.712-18.737-.166-25.465.14-1.716.204-1.895.705-1.966.304-.043.567-.043.585 0s.157 4.186.307 9.206c.267 8.934.073 17.387-.416 18.143-.232.358-.815.405-1.015.082m3.208.034c-.064-.104-.244-2.157-.4-4.56-.212-3.287-.212-6.684-.002-13.71.153-5.137.333-9.427.4-9.535.19-.31 1.077-.225 1.183.112.053.169.205 4.43.338 9.47.245 9.28.014 17.445-.512 18.107-.272.343-.827.407-1.007.116m6.921-.214c-.23-.278-.413-1.71-.581-4.568-.303-5.137.09-21.813.523-22.246.153-.153.539-.24.858-.195.537.076.591.223.734 1.986.617 7.596.42 24.22-.297 25.084-.378.456-.825.434-1.237-.061m3.223.043c-.617-.744-.835-8.18-.57-19.367.23-9.616.287-10.528.687-10.82.762-.557 1.293-.017 1.483 1.51.094.748.185 7.23.202 14.403.027 11.179-.021 13.147-.338 13.774-.428.848-1.01 1.047-1.464.5m3.47.045c-.145-.174-.392-2.26-.549-4.635-.343-5.185.086-26.777.544-27.328.365-.441.793-.405 1.25.106.326.366.413 1.926.589 10.602.245 12.055.244 12.553-.013 17.229-.146 2.645-.297 3.72-.56 3.983-.443.444-.916.46-1.262.043m-29.807-.143c-.073-.118-.311-2.111-.53-4.43-.364-3.875-.364-4.582-.003-8.782.367-4.257.599-5.323 1.059-4.863.101.102.363 2.19.58 4.64.35 3.938.357 4.928.058 8.501-.186 2.225-.393 4.293-.46 4.597-.122.56-.464.725-.704.337m-3.022-.521c-.128-.337-.374-2.298-.545-4.358-.251-3.026-.251-4.531 0-7.844.171-2.255.417-4.375.545-4.712.221-.579.245-.586.417-.123.1.27.328 2.345.504 4.61.264 3.387.265 4.828.003 8.09-.175 2.183-.402 4.19-.504 4.46-.175.463-.198.456-.42-.123m-3.259-.736c-.027-.067-.229-1.777-.449-3.8-.361-3.329-.364-4.016-.03-7.273.522-5.11.588-5.08 1.377.619.376 2.716.374 3.115-.02 6.128-.378 2.886-.74 4.668-.878 4.326m-3.364-5.209c-.376-3.344.286-8.583.774-6.128.597 3.005.664 3.895.407 5.434-.629 3.77-.823 3.883-1.181.694" style="fill:#f26e1e;fill-opacity:1;stroke-width:.999996" transform="translate(-12.364 -103.732)"/></svg>