<?xml version="1.0" encoding="UTF-8" standalone="no"?>
<svg
   height="24"
   viewBox="0 96 960 960"
   width="24"
   version="1.1"
   id="svg4"
   sodipodi:docname="speedTest-icon-light.svg"
   inkscape:version="1.2.2 (b0a8486541, 2022-12-01)"
   xmlns:inkscape="http://www.inkscape.org/namespaces/inkscape"
   xmlns:sodipodi="http://sodipodi.sourceforge.net/DTD/sodipodi-0.dtd"
   xmlns="http://www.w3.org/2000/svg"
   xmlns:svg="http://www.w3.org/2000/svg">
  <defs
     id="defs8" />
  <sodipodi:namedview
     id="namedview6"
     pagecolor="#ffffff"
     bordercolor="#666666"
     borderopacity="1.0"
     inkscape:showpageshadow="2"
     inkscape:pageopacity="0.0"
     inkscape:pagecheckerboard="0"
     inkscape:deskcolor="#d1d1d1"
     showgrid="false"
     inkscape:zoom="32.416667"
     inkscape:cx="8.2365039"
     inkscape:cy="12"
     inkscape:window-width="1888"
     inkscape:window-height="1060"
     inkscape:window-x="32"
     inkscape:window-y="0"
     inkscape:window-maximized="1"
     inkscape:current-layer="svg4" />
  <path
     d="M418 716q24 24 62 23.5t56-27.5l224-336-336 224q-27 18-28.5 55t22.5 61Zm62-460q59 0 113.5 16.5T696 322l-76 48q-33-17-68.5-25.5T480 336q-133 0-226.5 93.5T160 656q0 42 11.5 83t32.5 77h552q23-38 33.5-79t10.5-85q0-36-8.5-70T766 516l48-76q30 47 47.5 100T880 650q1 57-13 109t-41 99q-11 18-30 28t-40 10H204q-21 0-40-10t-30-28q-26-45-40-95.5T80 656q0-83 31.5-155.5t86-127Q252 319 325 287.5T480 256Zm7 313Z"
     id="path2"
     style="fill:#ffffff" />
</svg>
