<svg xmlns="http://www.w3.org/2000/svg" viewBox="0 0 100 100"><g transform="translate(0 -24)"><circle cx="50" cy="74" r="50" style="fill:#f60;fill-opacity:1;stroke-width:4.40315;stroke-linecap:round;stroke-linejoin:round;stroke-opacity:.53144"/><linearGradient id="a" x1="39.888" x2="52.096" y1="92.284" y2="125.824" gradientTransform="translate(0 1.24)" gradientUnits="userSpaceOnUse"><stop offset="0" stop-color="#8fe132"/><stop offset=".362" stop-color="#65bd23"/><stop offset=".668" stop-color="#49a519"/><stop offset=".844" stop-color="#3e9c15"/></linearGradient><path fill="url(#a)" d="M57.783 105.823c-4.549 6.224-11.491 8.918-15.382 6.045s-3.411-10.295 1.137-16.519c4.549-6.224 11.492-8.918 15.382-6.045 3.95 2.933 3.411 10.294-1.137 16.519" style="fill:#8fe132;fill-opacity:1;stroke-width:.999999"/><linearGradient id="b" x1="-3.574" x2="82.773" y1="24.316" y2="74.169" gradientTransform="translate(0 1.24)" gradientUnits="userSpaceOnUse"><stop offset=".184" stop-color="#8fe132"/><stop offset="1" stop-color="#3e9c15"/></linearGradient><path fill="url(#b)" d="M65.563 59.858c-3.77-4.549-8.977-8.02-14.124-9.696-8.619-2.813-10.773-4.25-14.843-7.481-2.334-1.856-3.95-5.387-5.925-6.404-.958-.48-1.557-.06-1.916.299-.538.538-1.077 1.676-.419 3.112 5.207 12.39 25.856 48.539 25.856 48.539 1.795-.18 3.411.12 4.728 1.077a6.7 6.7 0 0 1 1.496 1.676L42.461 57.464s-2.155-2.993 1.616-3.591c2.693-.42 8.32.658 11.252 2.453 3.172 1.976 10.534 8.2 11.97 16.46.658 3.83 0 5.805.24 9.216.12 1.556 1.735 3.053 3.231.958.778-1.077 1.197-5.028 1.197-8.14 0-4.07-2.932-10.713-6.404-14.962" style="fill:#8fe132;fill-opacity:1;stroke-width:.999999"/></g></svg>