<?xml version="1.0" encoding="UTF-8" standalone="no"?>
<svg
   viewBox="0 0 100 100"
   version="1.1"
   id="svg12"
   sodipodi:docname="icon.svg"
   width="100"
   height="100"
   inkscape:version="1.3 (0e150ed6c4, 2023-07-21)"
   xmlns:inkscape="http://www.inkscape.org/namespaces/inkscape"
   xmlns:sodipodi="http://sodipodi.sourceforge.net/DTD/sodipodi-0.dtd"
   xmlns="http://www.w3.org/2000/svg"
   xmlns:svg="http://www.w3.org/2000/svg">
  <defs
     id="defs12" />
  <sodipodi:namedview
     id="namedview12"
     pagecolor="#ffffff"
     bordercolor="#666666"
     borderopacity="1.0"
     inkscape:showpageshadow="2"
     inkscape:pageopacity="0.0"
     inkscape:pagecheckerboard="0"
     inkscape:deskcolor="#d1d1d1"
     inkscape:zoom="3.3499322"
     inkscape:cx="35.821621"
     inkscape:cy="41.045607"
     inkscape:window-width="1888"
     inkscape:window-height="1060"
     inkscape:window-x="32"
     inkscape:window-y="0"
     inkscape:window-maximized="1"
     inkscape:current-layer="logo_1_" />
  <style
     id="style1">.st0{fill:#62ae25}.st1{fill:#999}</style>
  <g
     id="logo_1_"
     transform="translate(0,-24)">
    <circle
       style="fill:#ff6600;fill-opacity:1;stroke-width:4.40315;stroke-linecap:round;stroke-linejoin:round;stroke-opacity:0.53144"
       id="path12"
       cx="50"
       cy="74"
       r="50" />
    <linearGradient
       id="SVGID_1_"
       gradientUnits="userSpaceOnUse"
       x1="39.888"
       y1="92.283997"
       x2="52.096001"
       y2="125.824"
       gradientTransform="translate(0,1.24036)">
      <stop
         offset="0"
         stop-color="#8fe132"
         id="stop5" />
      <stop
         offset=".362"
         stop-color="#65bd23"
         id="stop6" />
      <stop
         offset=".668"
         stop-color="#49a519"
         id="stop7" />
      <stop
         offset=".844"
         stop-color="#3e9c15"
         id="stop8" />
    </linearGradient>
    <path
       d="m 58.544279,108.88362 c -4.993681,6.83345 -12.615615,9.79024 -16.886527,6.63633 -4.270911,-3.1539 -3.745261,-11.30148 1.24842,-18.134941 4.993682,-6.833458 12.615616,-9.790244 16.886527,-6.636339 4.336618,3.21961 3.745262,11.30149 -1.24842,18.13495 z"
       fill="url(#SVGID_1_)"
       id="path8"
       style="fill:#8fe132;fill-opacity:1;stroke-width:1" />
    <linearGradient
       id="SVGID_2_"
       gradientUnits="userSpaceOnUse"
       x1="-3.5739999"
       y1="24.316"
       x2="82.773003"
       y2="74.168999"
       gradientTransform="translate(0,1.24036)">
      <stop
         offset=".184"
         stop-color="#8fe132"
         id="stop9" />
      <stop
         offset="1"
         stop-color="#3e9c15"
         id="stop10" />
    </linearGradient>
    <path
       d="M 67.086102,58.421155 C 62.946604,53.427473 57.230152,49.616506 51.579408,47.776729 42.117696,44.688532 39.752268,43.11158 35.284238,39.563437 32.721691,37.526541 30.947621,33.649868 28.779312,32.53286 c -1.051302,-0.52565 -1.708366,-0.06571 -2.102603,0.328532 -0.591357,0.591357 -1.182714,1.839777 -0.459945,3.416729 5.716452,13.601211 28.385135,53.287835 28.385135,53.287835 1.97119,-0.197119 3.745261,0.131412 5.1908,1.182714 0.657063,0.52565 1.182714,1.117007 1.642658,1.839777 L 41.723458,55.792901 c 0,0 -2.365428,-3.285316 1.774071,-3.94238 2.956786,-0.459944 9.13318,0.72277 12.35279,2.69396 3.482436,2.16831 11.564315,9.001767 13.141267,18.069241 0.722769,4.205205 0,6.373514 0.262825,10.118775 0.131413,1.708364 1.905483,3.351022 3.548142,1.051301 0.854182,-1.182714 1.314126,-5.519331 1.314126,-8.93606 0,-4.468032 -3.21961,-11.761434 -7.030577,-16.426583 z"
       fill="url(#SVGID_2_)"
       id="path10"
       style="fill:#8fe132;fill-opacity:1;stroke-width:1" />
    <radialGradient
       id="SVGID_3_"
       cx="21.504999"
       cy="103.861"
       r="14.934"
       gradientTransform="matrix(0.2966,0.4025,-0.805,0.5933,123.22,30.33236)"
       gradientUnits="userSpaceOnUse">
      <stop
         offset="0"
         stop-color="#f4ff72"
         id="stop11" />
      <stop
         offset="1"
         stop-color="#73c928"
         stop-opacity="0"
         id="stop12" />
    </radialGradient>
  </g>
</svg>
