<svg xmlns="http://www.w3.org/2000/svg" viewBox="0 0 3704.895 3733.965"><path fill="#007add" d="M1899.862 1243.433h442.598c60.892 0 110.508 19.733 142.081 74.424 52.435 91.902-1.127 202.974-105.997 218.761-16.351 2.255-33.83 2.82-50.744 2.82h-427.938v1037.987c0 67.659 10.712 132.498 56.382 187.752 37.212 45.105 87.392 64.275 142.082 72.732 81.754 12.968 162.943 6.202 242.442-18.606 75.551-24.244 149.975 9.585 175.347 80.063 25.936 71.604-10.712 142.082-80.626 175.91-94.721 46.234-193.953 66.531-298.823 72.17-271.76 13.531-515.894-183.805-557.053-453.31-5.638-34.957-7.33-71.041-7.33-106.562-.563-335.472-.563-670.943-.563-1006.415v-38.904c-12.404-.564-22.553-1.691-32.138-1.691-62.02 0-124.04 1.127-186.06-.564-101.487-2.82-166.89-78.935-151.667-174.784 10.713-67.658 72.169-118.401 149.412-120.657 60.892-1.691 122.348-.564 183.24-.564 37.213 0 37.213 0 37.213-38.903V813.238c0-95.849 69.35-169.145 161.816-170.273s165.198 72.733 165.762 169.71c.564 131.37 0 263.303 0 394.672.564 10.713.564 21.99.564 36.085"/></svg>