<svg xmlns="http://www.w3.org/2000/svg" viewBox="0 0 1000 1000"><path d="M500 0c276.1 0 500 223.9 500 500s-223.9 500-500 500S0 776.1 0 500 223.9 0 500 0" style="fill:#1da1f2"/><path d="M384 754c235.8 0 364.9-195.4 364.9-364.9 0-5.5 0-11.1-.4-16.6 25.1-18.2 46.8-40.6 64-66.4-23.4 10.4-48.2 17.2-73.6 20.2 26.8-16 46.8-41.2 56.4-70.9-25.2 14.9-52.7 25.5-81.4 31.1-48.6-51.6-129.8-54.1-181.4-5.6-33.3 31.3-47.4 78-37.1 122.5-103.1-5.2-199.2-53.9-264.3-134-34 58.6-16.7 133.5 39.7 171.2-20.4-.6-40.4-6.1-58.2-16v1.6c0 61 43 113.6 102.9 125.7-18.9 5.1-38.7 5.9-57.9 2.2 16.8 52.2 64.9 88 119.8 89.1-45.4 35.7-101.5 55.1-159.2 55-10.2 0-20.4-.6-30.5-1.9C246.1 734 314.4 754 384 753.9" style="fill:#fff"/><path d="M500 0c276.1 0 500 223.9 500 500s-223.9 500-500 500S0 776.1 0 500 223.9 0 500 0" style="fill:none"/></svg>
