<svg xmlns="http://www.w3.org/2000/svg" viewBox="0 0 181.729 181.818"><g transform="translate(208.04 -57.653)"><circle cx="-117.176" cy="148.562" r="90.865" style="fill:#134fe6;fill-opacity:1;fill-rule:evenodd;stroke-width:1.84677;stroke-linecap:round;stroke-linejoin:round;stroke-opacity:.411765;paint-order:stroke fill markers;stop-color:#000"/><path d="M-92.885 183.058a487 487 0 0 1 2.827-.823c.874-.25 3.203-1.137 5.177-1.97l3.59-1.515 3.422 1.937c1.882 1.065 3.556 1.938 3.72 1.94s.455-.184.646-.415c.368-.443.61-.432 4.619.206 1.78.284 1.967.26 4.384-.545 1.967-.655 2.74-1.061 3.499-1.838.905-.927.974-1.111.974-2.6 0-1.996-.351-2.349-2.551-2.566-2.074-.205-4.127-.976-6.087-2.286-2.927-1.955-2.64-1.226-3.808-9.663-.424-3.056-1.031-6.723-1.35-8.148-.566-2.524-.569-2.63-.119-4.057.441-1.4.44-1.49-.006-1.984-.449-.496-.445-.605.08-2.597.537-2.041.538-2.089.045-2.581-.492-.493-.492-.549.029-3.08l.53-2.577-.554-1.601-.554-1.602.584-4.617.584-4.618-.605-1.845-.605-1.844.473-2.33.473-2.331-.928-1.451-.928-1.451-2.44-.325c-2.188-.291-2.491-.28-2.925.113-.45.407-.82.405-5.323-.031-4.35-.422-4.933-.429-5.773-.07-.9.386-.947.475-1.28 2.456-.292 1.737-.288 2.113.023 2.424.515.515 6.818 1.71 9.17 1.737 1.883.023 1.982.057 2.856.976.894.94.904.98.797 2.93-.15 2.721.244 5.876.91 7.295.307.652.662 1.25.789 1.328.126.078-.187.97-.696 1.98-.86 1.707-.987 1.84-1.782 1.838-1.366-.002-2.741-.471-6.413-2.186-3.05-1.424-3.67-1.62-5.464-1.726-11.095-.658-20.071 10.868-20.149 25.874-.042 8.214 2.199 14.08 7.334 19.195 1.938 1.93 2.84 2.607 4.653 3.498 2.207 1.085 4.695 1.847 6.168 1.89.409.013 1.302-.142 1.984-.344zm-5.135-12.127c-5.612-5.775-7.062-8.062-7.213-11.377-.071-1.562.008-2.221.325-2.705.376-.574.379-.757.028-1.75-.594-1.684-.516-5.115.147-6.486 1.151-2.377 5.915-7.16 8.378-8.414 1.06-.539 1.811-.538 5.185.003l2.7.434 1.595 1.55c1.346 1.31 1.742 1.552 2.548 1.552.884 0 1.038.128 2.082 1.731l1.128 1.731-.483 1.596-.484 1.597.98 4.368.98 4.369-.796 1.393c-1.028 1.796-2.01 4.44-2.24 6.035-.183 1.253-.186 1.257-1.213 1.257-.975 0-1.115.11-2.604 2.067l-1.573 2.066-2.992 1.042a206 206 0 0 0-3.157 1.116c-.09.04-1.585-1.388-3.321-3.175zm-19.687 11.715a62 62 0 0 0 4.219-1.125l1.969-.623.466-1.845.612-2.43c.13-.518-.334-.87-4.109-3.123-6.01-3.585-5.812-3.505-6.938-2.809l-.921.57-.153-.864c-.085-.474-.645-4.356-1.246-8.626l-1.092-7.763.554-.388c.687-.48.687-.864.01-5.058l-.544-3.37.723-4.391.724-4.393-.597-1.471c-.533-1.312-.737-1.531-1.882-2.024-1.592-.685-1.725-.684-3.41.016l-1.366.568-2.947-1.098-2.946-1.098-3.018 1.365c-2.67 1.207-3 1.428-2.866 1.918.084.305.228 1.001.319 1.547l.166.992h9.066l1.783 1.196c1.693 1.136 1.783 1.249 1.783 2.23 0 .784-.158 1.158-.653 1.547-.624.49-.678.774-1.201 6.303-.928 9.805-2.131 16.607-3.384 19.134-.89 1.796-7.592 4.735-12.196 5.348l-2.332.31-2.961-1.014c-1.63-.557-3.027-1.12-3.107-1.249-.212-.342-1.596-8.89-1.963-12.124-.284-2.507-.261-3.044.247-5.79l.56-3.027-.561-.598-.562-.598.829-4.312c1.382-7.203 1.442-7.91.802-9.533-.302-.767-.576-1.421-.608-1.454s-1.838-.548-4.013-1.145l-3.954-1.086-3.702.16-3.702.16-1.259 1.24c-.692.681-1.259 1.37-1.259 1.528 0 .643 1.594 2.774 2.075 2.774.284 0 .816.457 1.232 1.058.848 1.223 1.12 1.266 4.26.665 1.908-.365 2.093-.36 2.565.066.89.804 1.784 2.93 2.006 4.767.213 1.764.177 2.314-.502 7.786-.317 2.555-.304 3.09.129 5.45.46 2.507.461 2.966.037 10.85l-.443 8.234.675 1.332c.371.732.815 1.331.987 1.331.171 0 .646-.32 1.054-.71.408-.392.742-.57.742-.398 0 .514 1.86 2.414 3.02 3.086.595.344 2.282.995 3.75 1.447l2.668.823 6.672-2.385 6.671-2.385 1.772.892c2.244 1.13 5.734 2.364 9.011 3.187 4.247 1.066 5.168 1.114 8.24.427z" style="fill:#fff;fill-opacity:1;stroke-width:.264583"/></g></svg>
