<svg xmlns="http://www.w3.org/2000/svg" viewBox="0 0 423.263 478.78"><path d="M172.479 524.331h356.707v18.292H172.479zm14.07-35.179h329.268v25.329H186.549zm-2.11-288.461h327.509v35.178H184.439z" style="stroke-width:.842756;fill:#fff" transform="translate(-139.201 -101.486)"/><path d="M347.701 162.012h191.805l11.687-12.94-203.492-47.586-203.491 47.586 11.687 12.94z" style="fill:#fff" transform="translate(-84.035 -47.885)scale(.84276)"/><path d="M231.678 347.234c-.282-17.277-.73-34.554-1.406-51.819-.637-16.267-1.686-32.518-2.477-48.78-.069-1.403-.663-1.707-1.828-1.961-4.798-1.046-9.621-1.537-14.464-1.545-4.844.008-9.667.499-14.465 1.545-1.164.253-1.76.558-1.828 1.962-.79 16.261-1.84 32.512-2.476 48.78-.677 17.264-1.125 34.541-1.407 51.818-.2 12.243-.076 24.496.118 36.743.214 13.586.516 27.176 1.066 40.752.59 14.57 1.502 29.127 2.302 43.687.153 2.79.439 5.573.657 8.285 5.376 1.4 10.706 2.207 16.033 2.274 5.328-.067 10.657-.875 16.034-2.274.218-2.712.503-5.495.656-8.285.8-14.56 1.712-29.118 2.302-43.687.55-13.576.852-27.166 1.066-40.752.193-12.247.318-24.5.117-36.743m89.173 0c-.282-17.277-.73-34.554-1.407-51.819-.638-16.267-1.687-32.518-2.477-48.78-.069-1.403-.663-1.707-1.828-1.961-4.797-1.046-9.621-1.537-14.464-1.545-4.843.008-9.666.499-14.464 1.545-1.164.253-1.76.558-1.828 1.962-.79 16.261-1.84 32.512-2.477 48.78-.676 17.264-1.125 34.541-1.406 51.818-.2 12.243-.076 24.496.117 36.743.215 13.586.516 27.176 1.066 40.752.59 14.57 1.502 29.127 2.302 43.687.153 2.79.439 5.573.656 8.285 5.377 1.4 10.707 2.207 16.034 2.274 5.327-.067 10.656-.875 16.033-2.274.217-2.712.503-5.495.657-8.285.798-14.56 1.71-29.118 2.3-43.687.55-13.576.852-27.166 1.067-40.752.195-12.247.319-24.5.119-36.743m103.419 0c-.283-17.277-.73-34.554-1.408-51.819-.637-16.267-1.685-32.518-2.476-48.78-.069-1.403-.663-1.707-1.828-1.961-4.797-1.046-9.62-1.537-14.464-1.545-4.843.008-9.666.499-14.464 1.545-1.165.253-1.76.558-1.828 1.962-.79 16.261-1.84 32.512-2.476 48.78-.678 17.264-1.125 34.541-1.407 51.818-.2 12.243-.076 24.496.118 36.743.215 13.586.515 27.176 1.066 40.752.59 14.57 1.502 29.127 2.301 43.687.155 2.79.44 5.573.657 8.285 5.377 1.4 10.706 2.207 16.033 2.274 5.327-.067 10.657-.875 16.034-2.274.217-2.712.503-5.495.656-8.285.8-14.56 1.711-29.118 2.302-43.687.55-13.576.85-27.166 1.066-40.752.194-12.247.318-24.5.118-36.743m87.06 0c-.282-17.277-.73-34.554-1.406-51.819-.638-16.267-1.686-32.518-2.477-48.78-.069-1.403-.663-1.707-1.828-1.961-4.797-1.046-9.62-1.537-14.464-1.545-4.842.008-9.666.499-14.463 1.545-1.166.253-1.76.558-1.828 1.962-.792 16.261-1.84 32.512-2.477 48.78-.677 17.264-1.125 34.541-1.407 51.818-.2 12.243-.076 24.496.118 36.743.214 13.586.515 27.176 1.066 40.752.59 14.57 1.502 29.127 2.301 43.687.154 2.79.44 5.573.657 8.285 5.377 1.4 10.707 2.207 16.033 2.274 5.327-.067 10.658-.875 16.034-2.274.218-2.712.503-5.495.656-8.285.8-14.56 1.712-29.118 2.302-43.687.55-13.576.85-27.166 1.066-40.752.194-12.247.318-24.5.118-36.743" style="stroke-width:.842756;fill:#fff" transform="translate(-139.201 -101.486)"/></svg>
