<?xml version="1.0" encoding="UTF-8" standalone="no"?>
<svg width="90.482758" height="32" version="1.1" id="svg13" sodipodi:docname="liberapay.svg" inkscape:version="1.1.1 (1:1.1+202109281949+c3084ef5ed)" xmlns:inkscape="http://www.inkscape.org/namespaces/inkscape" xmlns:sodipodi="http://sodipodi.sourceforge.net/DTD/sodipodi-0.dtd" xmlns="http://www.w3.org/2000/svg" xmlns:svg="http://www.w3.org/2000/svg">
  <defs id="defs17"/>
  <sodipodi:namedview id="namedview15" pagecolor="#505050" bordercolor="#ffffff" borderopacity="1" inkscape:pageshadow="0" inkscape:pageopacity="0" inkscape:pagecheckerboard="1" showgrid="false" showguides="false" inkscape:zoom="7.5783133" inkscape:cx="23.620032" inkscape:cy="32.131161" inkscape:window-width="1888" inkscape:window-height="1060" inkscape:window-x="32" inkscape:window-y="0" inkscape:window-maximized="1" inkscape:current-layer="svg13"/>
  <rect id="back" fill="#f6c915" x="0" y="0" width="90.482758" height="32" rx="4.4137931" style="stroke-width:1.10345"/>
  <path d="m 12.338759,21.08469 c -0.788083,0 -1.406456,-0.102842 -1.856,-0.308083 C 10.033214,20.571366 9.711448,20.29131 9.517241,19.936 9.323034,19.58091 9.228579,19.173076 9.234317,18.712497 c 0.0055,-0.460359 0.06908,-0.951394 0.191559,-1.473104 l 2.113986,-8.8386206 2.579862,-0.3994483 -2.31371,9.5867589 c -0.04458,0.199724 -0.0693,0.382896 -0.07481,0.549296 -0.0057,0.1664 0.02494,0.3136 0.09159,0.441159 0.06665,0.127779 0.180304,0.2304 0.341186,0.307862 0.160883,0.0779 0.385545,0.127779 0.674207,0.149848 l -0.49942,2.047559" id="path3" style="fill:#1a171b;stroke-width:0.22069"/>
  <path d="m 21.66069,15.576276 c 0,0.810152 -0.133297,1.551448 -0.399669,2.222345 -0.266373,0.671558 -0.635366,1.251089 -1.105655,1.739255 -0.471835,0.488386 -1.037683,0.868414 -1.697766,1.140303 -0.660303,0.271669 -1.378869,0.407835 -2.155476,0.407835 -0.377379,0 -0.754758,-0.03332 -1.131917,-0.09997 l -0.749021,3.012635 h -2.463338 l 2.763035,-11.517793 c 0.443586,-0.133076 0.951393,-0.252249 1.522979,-0.357959 0.571366,-0.105269 1.190179,-0.158014 1.856,-0.158014 0.621241,0 1.156855,0.09446 1.606179,0.282924 0.449545,0.18869 0.818318,0.446676 1.107862,0.773959 0.288442,0.327504 0.501849,0.7104 0.640883,1.14869 0.138373,0.43851 0.20789,0.907034 0.20789,1.406455 m -6.042042,3.412083 c 0.188469,0.04458 0.421518,0.06665 0.698925,0.06665 0.432772,0 0.826703,-0.08033 1.181793,-0.241435 0.355089,-0.160662 0.657434,-0.385544 0.907255,-0.674206 0.2496,-0.288442 0.443586,-0.634925 0.582621,-1.040331 0.138593,-0.404966 0.20811,-0.851421 0.20811,-1.339807 0,-0.476911 -0.10571,-0.882318 -0.316248,-1.215118 -0.21098,-0.3328 -0.577104,-0.49942 -1.098593,-0.49942 -0.355311,0 -0.688111,0.03332 -0.998621,0.09997 l -1.165242,4.843697" id="path5" style="fill:#1a171b;stroke-width:0.22069"/>
  <path d="m 29.120083,21.517241 h 4.402758 c 1.714759,0 2.796138,-0.401655 3.568552,-1.313103 0.880552,-1.050483 1.359448,-2.564414 1.359448,-4.325517 0,-1.745655 -0.478896,-3.259587 -1.359448,-4.325518 -0.772414,-0.911448 -1.838345,-1.297655 -3.568552,-1.297655 h -4.402758 z m 2.317241,-1.931034 v -7.399724 h 2.085517 c 1.745656,0 2.610759,1.220414 2.610759,3.707586 0,2.471724 -0.865103,3.692138 -2.610759,3.692138 z" style="font-weight:700;font-size:14px;font-family:'Helvetica Neue', Helvetica, Arial, sans-serif;text-anchor:middle;fill:#1a171b;stroke-width:1.10345" id="path1460"/>
  <path d="m 43.765003,13.036138 c -2.548965,0 -4.109241,1.683862 -4.109241,4.418207 0,2.749793 1.560276,4.418207 4.124689,4.418207 2.548966,0 4.12469,-1.668414 4.12469,-4.356414 0,-2.827035 -1.529379,-4.48 -4.140138,-4.48 z m 0.01545,1.745655 c 1.189518,0 1.961931,1.065931 1.961931,2.703448 0,1.560276 -0.80331,2.641656 -1.961931,2.641656 -1.174069,0 -1.961931,-1.065931 -1.961931,-2.672552 0,-1.606621 0.787862,-2.672552 1.961931,-2.672552 z" style="font-weight:700;font-size:14px;font-family:'Helvetica Neue', Helvetica, Arial, sans-serif;text-anchor:middle;fill:#1a171b;stroke-width:1.10345" id="path1462"/>
  <path d="m 49.527181,13.175172 v 8.342069 H 51.68994 V 16.512 c 0,-0.98869 0.679724,-1.637517 1.745655,-1.637517 0.926897,0 1.390345,0.509793 1.390345,1.498483 v 5.144275 h 2.162758 v -5.592275 c 0,-1.853794 -1.004137,-2.888828 -2.796137,-2.888828 -1.127725,0 -1.88469,0.401655 -2.502621,1.344 v -1.204966 z" style="font-weight:700;font-size:14px;font-family:'Helvetica Neue', Helvetica, Arial, sans-serif;text-anchor:middle;fill:#1a171b;stroke-width:1.10345" id="path1464"/>
  <path d="M 66.087705,21.254621 C 65.716947,20.89931 65.593361,20.652138 65.593361,20.235034 v -4.634482 c 0,-1.699311 -1.158621,-2.564414 -3.414069,-2.564414 -2.255449,0 -3.429518,0.957793 -3.568552,2.888828 h 2.085517 c 0.108138,-0.865104 0.463448,-1.143173 1.529379,-1.143173 0.834207,0 1.251311,0.278069 1.251311,0.834207 0,0.278069 -0.139035,0.509793 -0.370759,0.648828 -0.293517,0.154482 -0.293517,0.154482 -1.359448,0.324413 l -0.865104,0.154483 c -1.652965,0.278069 -2.456275,1.127724 -2.456275,2.626207 0,1.498483 1.004137,2.502621 2.533517,2.502621 0.926896,0 1.761103,-0.386207 2.533517,-1.189518 0,0.432552 0.04635,0.587035 0.247172,0.834207 h 2.348138 z m -2.610758,-3.089655 c 0,1.25131 -0.617931,1.961931 -1.714759,1.961931 -0.726069,0 -1.174069,-0.386207 -1.174069,-1.004138 0,-0.648828 0.339862,-0.957793 1.235862,-1.143173 l 0.741517,-0.139034 c 0.571587,-0.108138 0.664276,-0.139035 0.911449,-0.262621 z" style="font-weight:700;font-size:14px;font-family:'Helvetica Neue', Helvetica, Arial, sans-serif;text-anchor:middle;fill:#1a171b;stroke-width:1.10345" id="path1466"/>
  <path d="m 71.185629,13.345103 h -1.204966 v -2.24 h -2.162758 v 2.24 h -1.065931 v 1.43669 h 1.065931 v 5.128828 c 0,1.313103 0.695172,1.961931 2.116413,1.961931 0.494345,0 0.849656,-0.04634 1.251311,-0.169931 V 20.18869 c -0.216276,0.0309 -0.324414,0.04634 -0.494345,0.04634 -0.571586,0 -0.710621,-0.169931 -0.710621,-0.911448 v -4.541793 h 1.204966 z" style="font-weight:700;font-size:14px;font-family:'Helvetica Neue', Helvetica, Arial, sans-serif;text-anchor:middle;fill:#1a171b;stroke-width:1.10345" id="path1468"/>
  <path d="m 79.713025,18.025931 c 0.01545,-0.185379 0.01545,-0.262621 0.01545,-0.370759 0,-0.834206 -0.123586,-1.60662 -0.324413,-2.193655 -0.556138,-1.513931 -1.900138,-2.425379 -3.584,-2.425379 -2.394483,0 -3.862069,1.730207 -3.862069,4.526345 0,2.672551 1.452138,4.310069 3.815724,4.310069 1.869241,0 3.383172,-1.050483 3.862069,-2.703449 h -2.131862 c -0.262621,0.664276 -0.865104,1.050483 -1.652966,1.050483 -0.617931,0 -1.112276,-0.26262 -1.421241,-0.726069 -0.200828,-0.308965 -0.278069,-0.679724 -0.308966,-1.467586 z m -5.561379,-1.43669 c 0.139034,-1.282207 0.679724,-1.900138 1.637517,-1.900138 0.98869,0 1.575724,0.664276 1.683862,1.900138 z" style="font-weight:700;font-size:14px;font-family:'Helvetica Neue', Helvetica, Arial, sans-serif;text-anchor:middle;fill:#1a171b;stroke-width:1.10345" id="path1470"/>
</svg>