<?xml version="1.0" encoding="UTF-8" standalone="no"?>
<!-- Created with Inkscape (http://www.inkscape.org/) -->

<svg
   width="1675.3278mm"
   height="333.36884mm"
   viewBox="0 0 1675.3278 333.36884"
   version="1.1"
   id="svg5"
   inkscape:export-filename="/home/parsarch/bitmap.png"
   inkscape:export-xdpi="78.019997"
   inkscape:export-ydpi="78.019997"
   inkscape:version="1.1.2 (0a00cf5339, 2022-02-04)"
   sodipodi:docname="libredirect.svg"
   xmlns:inkscape="http://www.inkscape.org/namespaces/inkscape"
   xmlns:sodipodi="http://sodipodi.sourceforge.net/DTD/sodipodi-0.dtd"
   xmlns="http://www.w3.org/2000/svg"
   xmlns:svg="http://www.w3.org/2000/svg">
  <sodipodi:namedview
     id="namedview7"
     pagecolor="#272727"
     bordercolor="#ffffff"
     borderopacity="1"
     inkscape:pageshadow="0"
     inkscape:pageopacity="0"
     inkscape:pagecheckerboard="false"
     inkscape:document-units="mm"
     showgrid="false"
     inkscape:snap-bbox="true"
     inkscape:bbox-paths="true"
     inkscape:bbox-nodes="true"
     inkscape:snap-bbox-edge-midpoints="true"
     inkscape:snap-bbox-midpoints="true"
     inkscape:snap-page="true"
     fit-margin-top="0"
     fit-margin-left="0"
     fit-margin-right="0"
     fit-margin-bottom="0"
     showborder="true"
     inkscape:zoom="0.11275714"
     inkscape:cx="2589.6365"
     inkscape:cy="829.21578"
     inkscape:window-width="1888"
     inkscape:window-height="1060"
     inkscape:window-x="32"
     inkscape:window-y="0"
     inkscape:window-maximized="1"
     inkscape:current-layer="text2765"
     inkscape:snap-global="true"
     showguides="true"
     inkscape:guide-bbox="true"
     inkscape:object-paths="true"
     inkscape:snap-intersection-paths="true"
     inkscape:snap-smooth-nodes="true" />
  <defs
     id="defs2" />
  <g
     inkscape:label="canvas"
     inkscape:groupmode="layer"
     id="layer1"
     transform="translate(-5.29776,-1.5258789e-5)"
     style="display:none">
    <rect
       style="fill:#ffffff;fill-opacity:1;stroke:none;stroke-width:5.29775;stop-color:#000000"
       id="rect5300"
       width="333.36893"
       height="333.3689"
       x="5.29776"
       y="1.5258789e-05" />
  </g>
  <g
     inkscape:groupmode="layer"
     id="layer2"
     inkscape:label="contents"
     transform="translate(-2.5e-8,-1.5258789e-5)">
    <path
       id="rect10261"
       style="fill:#000000;fill-opacity:1;stroke-width:10.6446;stroke-linejoin:bevel;paint-order:stroke markers fill;stop-color:#000000"
       d="m 166.68447,1.5258789e-5 c -3.52434,0 -7.04775,1.350880241211 -9.74829,4.051407541211 L 4.050805,156.93523 c -5.4010733,5.40105 -5.4010733,14.09797 0,19.49903 l 152.885375,152.8838 c 5.40106,5.40105 14.09676,5.40105 19.49783,0 l 152.88412,-152.8838 c 5.40106,-5.40106 5.40106,-14.09798 0,-19.49903 L 176.43401,4.0514228 C 173.73349,1.3508955 170.2088,1.5258789e-5 166.68447,1.5258789e-5 Z"
       sodipodi:nodetypes="sccccccscs"
       inkscape:export-filename="/home/parsarch/path983.png"
       inkscape:export-xdpi="78.019997"
       inkscape:export-ydpi="78.019997" />
    <path
       id="path1147"
       style="fill:#fbc118;fill-opacity:1;stroke-width:10.6446;stroke-linejoin:bevel;paint-order:stroke markers fill;stop-color:#000000"
       d="m 166.68447,1.5258789e-5 c -3.52434,0 -7.04775,1.350880241211 -9.74829,4.051407541211 L 4.050805,156.93523 c -5.4010733,5.40105 -5.4010733,14.09797 0,19.49903 l 152.885375,152.8838 c 5.40106,5.40105 14.09676,5.40105 19.49783,0 l 152.88412,-152.8838 c 5.40106,-5.40106 5.40106,-14.09798 0,-19.49903 L 176.43401,4.0514228 C 173.73349,1.3508955 170.2088,1.5258789e-5 166.68447,1.5258789e-5 Z m 0,10.719943741211 c 3.2977,0 6.5954,1.263101 9.12228,3.78996 L 318.85962,157.56247 c 5.05373,5.05374 5.05373,13.1908 0,18.24454 L 175.80675,318.85957 c -5.05375,5.05374 -13.19085,5.05374 -18.24457,0 L 14.509325,175.80701 c -5.0537517,-5.05374 -5.0537517,-13.1908 0,-18.24454 L 157.56218,14.509919 c 2.52687,-2.526859 5.82459,-3.78996 9.12229,-3.78996 z"
       inkscape:export-filename="/home/parsarch/path983.png"
       inkscape:export-xdpi="78.019997"
       inkscape:export-ydpi="78.019997" />
    <rect
       style="fill:#fbc117;fill-opacity:1;stroke-width:9.25578;stroke-linejoin:bevel;paint-order:stroke markers fill;stop-color:#000000"
       id="rect8504"
       width="211.97903"
       height="211.97903"
       x="-105.98952"
       y="129.73819"
       transform="matrix(0.70710753,-0.70710617,0.70710753,0.70710617,0,0)"
       ry="11.988618"
       inkscape:export-filename="/home/parsarch/path983.png"
       inkscape:export-xdpi="78.019997"
       inkscape:export-ydpi="78.019997" />
    <path
       style="fill:#000000;fill-opacity:1;stroke-width:11.7733;stroke-linejoin:bevel;paint-order:stroke markers fill;stop-color:#000000"
       d="m 184.9484,150.31257 c -47.94368,20.63825 -46.95176,86.74351 -46.95176,86.74351 l -33.49195,2e-5 c 0,0 -0.43631,-96.71487 73.1579,-116.43438 -6.91258,-13.8541 -10.36137,-19.42664 -5.93301,-21.619621 5.93589,-2.939527 68.02199,11.715951 70.34687,20.392521 2.28516,8.52832 -46.82723,53.14308 -53.65602,53.14308 -5.85198,0 -4.22909,-7.02227 -3.47216,-22.22513 z"
       id="path983"
       sodipodi:nodetypes="ccccssscc"
       inkscape:export-filename="/home/parsarch/path983.png"
       inkscape:export-xdpi="78.019997"
       inkscape:export-ydpi="78.019997" />
    <g
       aria-label="LibRedirect"
       id="text2765"
       style="font-size:248.833px;line-height:1.25;font-family:Inter;-inkscape-font-specification:Inter;fill:#fbc117;stroke-width:6.22088">
      <path
         d="M 374.96603,259.45038 V 78.480929 H 396.8803 V 240.0103 h 84.12251 v 19.44008 z"
         id="path1431" />
      <path
         d="M 512.10646,259.45038 V 123.72329 h 20.8539 v 135.72709 z m 10.60368,-158.34827 q -6.09712,0 -10.51532,-4.153107 -4.32983,-4.153108 -4.32983,-9.985131 0,-5.832023 4.32983,-9.985131 4.4182,-4.153107 10.51532,-4.153107 6.09711,0 10.42695,4.153107 4.4182,4.153108 4.4182,9.985131 0,5.832023 -4.4182,9.985131 -4.32984,4.153107 -10.42695,4.153107 z"
         id="path1433" />
      <path
         d="M 573.96104,259.45038 V 78.480929 h 20.8539 V 145.2841 h 1.76728 q 2.29746,-3.53455 6.36221,-9.01312 4.1531,-5.56693 11.84077,-9.89677 7.77603,-4.4182 21.03063,-4.4182 17.14261,0 30.22048,8.57131 13.07787,8.57131 20.41209,24.3001 7.33421,15.72879 7.33421,37.11287 0,21.56081 -7.33421,37.37797 -7.33422,15.72879 -20.32372,24.38846 -12.98951,8.57131 -29.95539,8.57131 -13.07787,0 -20.94227,-4.32984 -7.86439,-4.4182 -12.10587,-9.98513 -4.24147,-5.6553 -6.53893,-9.36658 h -2.47419 v 20.8539 z m 20.50044,-67.86355 q 0,15.37534 4.50657,27.12775 4.50656,11.66405 13.16623,18.29135 8.65967,6.53893 21.20736,6.53893 13.07787,0 21.8259,-6.89239 8.8364,-6.98076 13.2546,-18.73317 4.50656,-11.84077 4.50656,-26.33247 0,-14.31496 -4.41819,-25.80228 -4.32984,-11.57568 -13.16624,-18.29135 -8.74803,-6.80402 -22.00263,-6.80402 -12.72442,0 -21.38409,6.45057 -8.65967,6.36221 -13.07787,17.84952 -4.4182,11.39896 -4.4182,26.59756 z"
         id="path1435" />
      <path
         d="M 728.42089,259.45038 V 78.480929 h 61.14788 q 21.20736,0 34.81541,7.245847 13.60806,7.157483 20.14699,19.705174 6.53894,12.54768 6.53894,28.54156 0,15.99389 -6.53894,28.36484 -6.53893,12.37096 -20.05862,19.44008 -13.51969,6.98076 -34.55032,6.98076 h -49.48384 v -19.79354 h 48.77693 q 14.49169,0 23.32809,-4.24147 8.92476,-4.24147 12.90114,-12.0175 4.06474,-7.8644 4.06474,-18.73317 0,-10.86877 -4.06474,-18.99825 -4.06474,-8.12949 -12.98951,-12.54769 -8.92476,-4.506563 -23.59318,-4.506563 h -38.5267 V 259.45038 Z m 85.18289,-81.29487 44.53545,81.29487 H 832.6904 l -43.82854,-81.29487 z"
         id="path1437" />
      <path
         d="m 940.14086,262.27803 q -19.61681,0 -33.84341,-8.65967 -14.13824,-8.74804 -21.82591,-24.38847 -7.5993,-15.72879 -7.5993,-36.58269 0,-20.8539 7.5993,-36.75942 7.68767,-15.99388 21.38409,-24.91864 13.78478,-9.01313 32.16449,-9.01313 10.60368,0 20.94227,3.53456 10.33858,3.53456 18.82153,11.48732 8.48294,7.86439 13.51969,20.8539 5.03674,12.98951 5.03674,31.98777 v 8.83639 H 891.71739 V 180.6297 H 975.133 q 0,-11.48732 -4.59493,-20.50045 -4.50656,-9.01312 -12.90114,-14.2266 -8.30622,-5.21347 -19.61681,-5.21347 -12.45932,0 -21.56081,6.18548 -9.01313,6.09711 -13.87315,15.90551 -4.86002,9.80841 -4.86002,21.03063 v 12.01751 q 0,15.37533 5.30184,26.06737 5.39021,10.60368 14.93352,16.17061 9.54331,5.47857 22.17936,5.47857 8.21785,0 14.84515,-2.29746 6.71566,-2.38583 11.57568,-7.06912 4.86002,-4.77166 7.51094,-11.84078 l 20.14699,5.6553 q -3.1811,10.25022 -10.69204,18.02625 -7.51094,7.68767 -18.55644,12.0175 -11.0455,4.24148 -24.83028,4.24148 z"
         id="path1439" />
      <path
         d="m 1079.4024,262.27803 q -16.9659,0 -29.9554,-8.57131 -12.9895,-8.65967 -20.3237,-24.38846 -7.3342,-15.81716 -7.3342,-37.37797 0,-21.38408 7.3342,-37.11287 7.3342,-15.72879 20.4121,-24.3001 13.0779,-8.57131 30.2205,-8.57131 13.2546,0 20.9423,4.4182 7.776,4.32984 11.8407,9.89677 4.1531,5.47857 6.4506,9.01312 h 1.7673 V 78.480929 h 20.8539 V 259.45038 h -20.147 v -20.8539 h -2.4742 q -2.2975,3.71128 -6.5389,9.36658 -4.2415,5.56693 -12.1059,9.98513 -7.8644,4.32984 -20.9423,4.32984 z m 2.8277,-18.73317 q 12.5477,0 21.2073,-6.53893 8.6597,-6.6273 13.1663,-18.29135 4.5065,-11.75241 4.5065,-27.12775 0,-15.1986 -4.4182,-26.59756 -4.4182,-11.48731 -13.0778,-17.84952 -8.6597,-6.45057 -21.3841,-6.45057 -13.2546,0 -22.091,6.80402 -8.7481,6.71567 -13.1663,18.29135 -4.3298,11.48732 -4.3298,25.80228 0,14.4917 4.4182,26.33247 4.5066,11.75241 13.2546,18.73317 8.8364,6.89239 21.9143,6.89239 z"
         id="path1441" />
      <path
         d="M 1182.6112,259.45038 V 123.72329 h 20.8539 v 135.72709 z m 10.6036,-158.34827 q -6.0971,0 -10.5153,-4.153107 -4.3298,-4.153108 -4.3298,-9.985131 0,-5.832023 4.3298,-9.985131 4.4182,-4.153107 10.5153,-4.153107 6.0972,0 10.427,4.153107 4.4182,4.153108 4.4182,9.985131 0,5.832023 -4.4182,9.985131 -4.3298,4.153107 -10.427,4.153107 z"
         id="path1443" />
      <path
         d="M 1241.6381,259.45038 V 123.72329 h 20.147 v 20.50045 h 1.4138 q 3.7113,-10.0735 13.4313,-16.34734 9.7201,-6.27384 21.9143,-6.27384 2.2974,0 5.7436,0.0884 3.4462,0.0884 5.2135,0.26509 v 21.20736 q -1.0604,-0.26509 -4.86,-0.79528 -3.7113,-0.61854 -7.8644,-0.61854 -9.8968,0 -17.6728,4.1531 -7.6877,4.06475 -12.1942,11.31059 -4.4182,7.15749 -4.4182,16.34734 v 85.8898 z"
         id="path1445" />
      <path
         d="m 1386.9081,262.27803 q -19.6168,0 -33.8434,-8.65967 -14.1382,-8.74804 -21.8259,-24.38847 -7.5993,-15.72879 -7.5993,-36.58269 0,-20.8539 7.5993,-36.75942 7.6877,-15.99388 21.3841,-24.91864 13.7848,-9.01313 32.1645,-9.01313 10.6037,0 20.9423,3.53456 10.3385,3.53456 18.8215,11.48732 8.4829,7.86439 13.5197,20.8539 5.0367,12.98951 5.0367,31.98777 v 8.83639 H 1338.4847 V 180.6297 h 83.4156 q 0,-11.48732 -4.595,-20.50045 -4.5065,-9.01312 -12.9011,-14.2266 -8.3062,-5.21347 -19.6168,-5.21347 -12.4593,0 -21.5608,6.18548 -9.0131,6.09711 -13.8732,15.90551 -4.86,9.80841 -4.86,21.03063 v 12.01751 q 0,15.37533 5.3019,26.06737 5.3902,10.60368 14.9335,16.17061 9.5433,5.47857 22.1793,5.47857 8.2179,0 14.8452,-2.29746 6.7156,-2.38583 11.5757,-7.06912 4.86,-4.77166 7.5109,-11.84078 l 20.147,5.6553 q -3.1811,10.25022 -10.6921,18.02625 -7.5109,7.68767 -18.5564,12.0175 -11.0455,4.24148 -24.8303,4.24148 z"
         id="path1447" />
      <path
         d="m 1530.0577,262.27803 q -19.0867,0 -32.8714,-9.01313 -13.7848,-9.01313 -21.2074,-24.83028 -7.4226,-15.81716 -7.4226,-36.14087 0,-20.67718 7.5993,-36.49433 7.6877,-15.90552 21.3841,-24.83028 13.7848,-9.01313 32.1645,-9.01313 14.315,0 25.8023,5.30184 11.4873,5.30184 18.8215,14.84515 7.3342,9.54331 9.1015,22.26773 h -20.8539 q -2.3858,-9.27822 -10.6037,-16.43571 -8.1295,-7.24584 -21.9142,-7.24584 -12.1943,0 -21.3841,6.3622 -9.1015,6.27385 -14.2266,17.76117 -5.0368,11.39895 -5.0368,26.77428 0,15.7288 4.9484,27.39284 5.0368,11.66405 14.1382,18.11462 9.1899,6.45057 21.5609,6.45057 8.1294,0 14.7567,-2.82765 6.6273,-2.82764 11.2223,-8.12948 4.5949,-5.30184 6.5389,-12.72442 h 20.8539 q -1.7673,12.0175 -8.748,21.64918 -6.8924,9.54331 -18.2914,15.1986 -11.3106,5.56694 -26.3324,5.56694 z"
         id="path1449" />
      <path
         d="m 1672.8535,123.72329 v 17.6728 h -70.3377 v -17.6728 z m -49.8373,-32.517946 h 20.8539 V 220.57022 q 0,8.8364 2.5626,13.2546 2.6509,4.32984 6.7156,5.83202 4.1532,1.41383 8.7481,1.41383 3.4462,0 5.6553,-0.35346 2.2091,-0.44182 3.5345,-0.70691 l 4.2415,18.73317 q -2.1207,0.79527 -5.9204,1.59055 -3.7996,0.88364 -9.6317,0.88364 -8.8364,0 -17.3193,-3.79965 -8.3946,-3.79965 -13.9615,-11.57569 -5.4786,-7.77603 -5.4786,-19.6168 z"
         id="path1451" />
    </g>
  </g>
</svg>
