<?xml version="1.0" encoding="UTF-8" standalone="no"?>
<!-- Created with Inkscape (http://www.inkscape.org/) -->

<svg
   width="90.483002"
   height="31.999998"
   viewBox="0 0 23.940294 8.4666664"
   version="1.1"
   id="svg5"
   inkscape:export-filename="/mnt/main_storage/Git/libredirect/img/patreon.png"
   inkscape:export-xdpi="96"
   inkscape:export-ydpi="96"
   inkscape:version="1.1.1 (3bf5ae0d25, 2021-09-20)"
   sodipodi:docname="patreon.svg"
   xmlns:inkscape="http://www.inkscape.org/namespaces/inkscape"
   xmlns:sodipodi="http://sodipodi.sourceforge.net/DTD/sodipodi-0.dtd"
   xmlns="http://www.w3.org/2000/svg"
   xmlns:svg="http://www.w3.org/2000/svg">
  <sodipodi:namedview
     id="namedview7"
     pagecolor="#ffffff"
     bordercolor="#666666"
     borderopacity="1.0"
     inkscape:pageshadow="2"
     inkscape:pageopacity="0"
     inkscape:pagecheckerboard="0"
     inkscape:document-units="mm"
     showgrid="false"
     units="px"
     height="32px"
     showguides="true"
     inkscape:guide-bbox="true"
     inkscape:zoom="9.179349"
     inkscape:cx="37.257544"
     inkscape:cy="19.010063"
     inkscape:window-width="1888"
     inkscape:window-height="1060"
     inkscape:window-x="32"
     inkscape:window-y="0"
     inkscape:window-maximized="1"
     inkscape:current-layer="layer1" />
  <defs
     id="defs2" />
  <g
     inkscape:label="Layer 1"
     inkscape:groupmode="layer"
     id="layer1"
     transform="translate(-3.8096814)">
    <rect
       id="back"
       fill="#f6c915"
       x="3.8096814"
       y="-2.9802322e-08"
       width="23.940294"
       height="8.4666662"
       rx="1.1678303"
       style="fill:#ff424d;fill-opacity:1;stroke-width:0.291956" />
    <g
       id="g832"
       transform="matrix(5.1798222e-4,0,0,-5.1798222e-4,6.6605479,5.6789438)"
       style="fill:#141518;fill-opacity:1">
      <path
         d="m 3844.89,5757.79 c -1190.76,0 -2159.54,-969.65 -2159.54,-2161.59 0,-1188.33 968.78,-2155.12 2159.54,-2155.12 1187.08,0 2152.82,966.79 2152.82,2155.12 0,1191.94 -965.74,2161.59 -2152.82,2161.59"
         style="fill:#141518;fill-opacity:1;fill-rule:evenodd;stroke:none"
         id="path834" />
      <path
         d="M 0,0 H 1054.41 V 5757.81 H 0 V 0"
         style="fill:#141518;fill-opacity:1;fill-rule:evenodd;stroke:none"
         id="path836" />
    </g>
    <path
       d="m 11.509193,5.6761532 h 1.164885 c 0.453692,0 0.739805,-0.10627 0.94417,-0.3474215 0.232977,-0.2779374 0.359684,-0.6784943 0.359684,-1.1444477 0,-0.4618674 -0.126707,-0.8624243 -0.359684,-1.144449 -0.204365,-0.2411516 -0.486389,-0.3433345 -0.94417,-0.3433345 h -1.164885 z m 0.613099,-0.510914 v -1.957824 h 0.551786 c 0.461867,0 0.690757,0.322898 0.690757,0.9809558 0,0.6539705 -0.22889,0.9768682 -0.690757,0.9768682 z"
       style="font-weight:700;font-size:14px;font-family:'Helvetica Neue', Helvetica, Arial, sans-serif;text-anchor:middle;fill:#141518;fill-opacity:1;stroke-width:0.291952"
       id="path1460" />
    <path
       d="m 15.383957,3.4322174 c -0.674408,0 -1.087226,0.4455177 -1.087226,1.1689724 0,0.7275419 0.412818,1.1689724 1.091313,1.1689724 0.674408,0 1.091313,-0.4414305 1.091313,-1.1526235 0,-0.7479785 -0.404644,-1.1853213 -1.0954,-1.1853213 z m 0.004,0.4618665 c 0.314722,0 0.519088,0.2820252 0.519088,0.7152799 0,0.4128189 -0.212539,0.6989321 -0.519088,0.6989321 -0.310636,0 -0.519089,-0.2820253 -0.519089,-0.7071061 0,-0.4250807 0.208453,-0.7071059 0.519089,-0.7071059 z"
       style="font-weight:700;font-size:14px;font-family:'Helvetica Neue', Helvetica, Arial, sans-serif;text-anchor:middle;fill:#141518;fill-opacity:1;stroke-width:0.291952"
       id="path1462" />
    <path
       d="m 16.908518,3.4690032 v 2.20715 h 0.572225 V 4.3518634 c 0,-0.2615884 0.179842,-0.4332558 0.461866,-0.4332558 0.24524,0 0.367859,0.1348817 0.367859,0.3964702 v 1.3610754 h 0.572223 V 4.1965459 c 0,-0.4904781 -0.265675,-0.7643285 -0.739803,-0.7643285 -0.298375,0 -0.498654,0.1062702 -0.662145,0.3555966 V 3.4690032 Z"
       style="font-weight:700;font-size:14px;font-family:'Helvetica Neue', Helvetica, Arial, sans-serif;text-anchor:middle;fill:#141518;fill-opacity:1;stroke-width:0.291952"
       id="path1464" />
    <path
       d="M 21.290113,5.6066699 C 21.192015,5.5126609 21.159319,5.4472644 21.159319,5.3369065 V 4.1107118 c 0,-0.4496045 -0.306548,-0.6784944 -0.903297,-0.6784944 -0.596747,0 -0.907383,0.2534136 -0.94417,0.7643285 h 0.551787 c 0.02861,-0.2288897 0.12262,-0.302462 0.404645,-0.302462 0.220715,0 0.331074,0.073569 0.331074,0.2207149 0,0.073569 -0.03679,0.1348815 -0.0981,0.1716672 -0.07765,0.04087 -0.07765,0.04087 -0.359682,0.08584 l -0.22889,0.04087 c -0.437344,0.073569 -0.649885,0.2983741 -0.649885,0.6948442 0,0.39647 0.265676,0.6621454 0.670321,0.6621454 0.245238,0 0.465954,-0.1021826 0.670319,-0.3147239 0,0.1144449 0.01226,0.1553185 0.0654,0.2207149 h 0.621271 z M 20.599358,4.789206 c 0,0.3310727 -0.163493,0.5190899 -0.453693,0.5190899 -0.192104,0 -0.310635,-0.1021836 -0.310635,-0.2656765 0,-0.1716672 0.08992,-0.2534134 0.326984,-0.3024609 l 0.196192,-0.03679 c 0.15123,-0.028609 0.175754,-0.03679 0.241152,-0.069489 z"
       style="font-weight:700;font-size:14px;font-family:'Helvetica Neue', Helvetica, Arial, sans-serif;text-anchor:middle;fill:#141518;fill-opacity:1;stroke-width:0.291952"
       id="path1466" />
    <path
       d="m 22.638925,3.5139636 h -0.31881 V 2.9213028 h -0.572223 v 0.5926608 h -0.282026 v 0.3801203 h 0.282026 v 1.3569894 c 0,0.3474216 0.183928,0.5190889 0.559961,0.5190889 0.130794,0 0.224802,-0.01226 0.331072,-0.04496 V 5.3246456 c -0.05722,0.0082 -0.08583,0.01226 -0.130794,0.01226 -0.15123,0 -0.188016,-0.04496 -0.188016,-0.2411517 V 3.8940826 h 0.31881 z"
       style="font-weight:700;font-size:14px;font-family:'Helvetica Neue', Helvetica, Arial, sans-serif;text-anchor:middle;fill:#141518;fill-opacity:1;stroke-width:0.291952"
       id="path1468" />
    <path
       d="m 24.895109,4.7524204 c 0.004,-0.04905 0.004,-0.069489 0.004,-0.098099 0,-0.2207148 -0.0327,-0.4250807 -0.08583,-0.5803981 -0.147142,-0.400557 -0.502739,-0.6417087 -0.948257,-0.6417087 -0.633533,0 -1.021829,0.4577795 -1.021829,1.1975832 0,0.7071058 0.384209,1.1403615 1.009567,1.1403615 0.494566,0 0.895123,-0.2779382 1.021829,-0.7152809 H 24.31054 c -0.06947,0.1757553 -0.22889,0.2779373 -0.437342,0.2779373 -0.163494,0 -0.294287,-0.069479 -0.376033,-0.1921031 -0.05308,-0.081749 -0.07352,-0.1798425 -0.08169,-0.3882955 z M 23.423676,4.3723001 c 0.03679,-0.3392476 0.179842,-0.5027399 0.433256,-0.5027399 0.261589,0 0.416905,0.1757542 0.445517,0.5027399 z"
       style="font-weight:700;font-size:14px;font-family:'Helvetica Neue', Helvetica, Arial, sans-serif;text-anchor:middle;fill:#141518;fill-opacity:1;stroke-width:0.291952"
       id="path1470" />
  </g>
</svg>
