<?xml version="1.0" encoding="UTF-8" standalone="no"?>
<!-- Created with Inkscape (http://www.inkscape.org/) -->

<svg
   version="1.1"
   id="svg2"
   xml:space="preserve"
   width="149.07127"
   height="31.999987"
   viewBox="0 0 149.07127 31.999986"
   sodipodi:docname="weblate.svg"
   inkscape:version="1.1.1 (1:1.1+202109281949+c3084ef5ed)"
   xmlns:inkscape="http://www.inkscape.org/namespaces/inkscape"
   xmlns:sodipodi="http://sodipodi.sourceforge.net/DTD/sodipodi-0.dtd"
   xmlns:xlink="http://www.w3.org/1999/xlink"
   xmlns="http://www.w3.org/2000/svg"
   xmlns:svg="http://www.w3.org/2000/svg"><defs
     id="defs6"><clipPath
       clipPathUnits="userSpaceOnUse"
       id="clipPath20"><path
         d="M 0,1000 H 1000 V 0 H 0 Z"
         id="path18" /></clipPath><clipPath
       clipPathUnits="userSpaceOnUse"
       id="clipPath62"><path
         d="m 42.376,606.378 c 0.838,-0.603 2.703,-1.154 4.192,-1.316 v 0 c -2.204,-0.803 -4.822,-0.298 -6.956,0.476 v 0 c -2.979,1.081 -3.036,1.413 -5.696,-0.209 v 0 c -2.22,-1.352 -4.583,-2.341 -7.099,-2.994 v 0 c -1.982,-0.515 -7.597,-1.843 -8.748,-1.488 v 0 c 6.388,-2.121 14.928,0.295 21.565,0.807 v 0 c 5.235,0.403 10.475,0.434 15.72,0.073 v 0 c 16.801,-1.153 30.105,-5.868 42.04,-13.826 v 0 c -4.459,4.847 -6.893,8.779 -8.776,15.033 v 0 c -1.277,4.241 -5.356,5.028 -8.651,5.469 v 0 c -4.519,0.604 -9.351,0.938 -14.239,0.938 v 0 c -8.005,0 -16.161,-0.895 -23.352,-2.963 m -24.307,-5.531 c -0.009,0.003 -0.018,0.006 -0.028,0.009 v 0 c 0.009,-0.003 0.019,-0.006 0.028,-0.009 m 18.717,-1.761 c -5.013,-0.624 -10.019,-1.247 -14.987,-0.862 v 0 c -3.555,0.275 -8.438,2.298 -9.024,1.623 v 0 c -1.4,-1.608 5.38,-6.252 6.662,-6.968 v 0 c 7.151,-4.005 15.188,-5.868 22.569,-9.365 v 0 c 7.632,-3.615 14.42,-8.634 20.405,-14.586 v 0 c 6.039,-6.009 10.202,-13.689 16.481,-19.409 v 0 c 6.973,-6.35 16.427,-8.95 23.537,-15.185 v 0 c 3.887,7.158 5.3,12.566 1.082,19.901 v 0 c -3.942,6.855 -10.014,11.747 -16.354,16.252 v 0 c -8.323,5.914 -17.455,10.797 -27.086,14.193 v 0 c -2.196,0.772 -4.111,1.614 -11.59,4.104 v 0 c 7.879,-1.648 9.436,-2.386 12.623,-3.431 v 0 c 10.241,-3.358 20.95,-8.989 28.559,-14.374 v 0 c 8.588,-6.076 18.411,-14.373 19.094,-21.815 v 0 c 0.379,-4.133 -0.437,-7.914 -1.833,-11.753 v 0 c -0.713,-1.961 -2.99,-6.713 -1.134,-8.577 v 0 c 3.409,5.426 4.865,12.263 8.997,17.201 v 0 c 3.126,3.738 7.567,5.825 12.424,5.183 v 0 c 1.286,-0.171 2.47,-0.636 3.667,-0.015 v 0 c -1.605,2.345 -4.655,3.552 -7.289,4.207 v 0 c -11.95,2.971 -20.301,11.324 -30.56,17.554 v 0 c -8.369,5.079 -16.285,8.934 -26.29,12.606 v 0 c 13.139,-3.558 21.68,-8.189 33.441,-15.199 v 0 c 8.922,-5.319 16.514,-12.021 28.027,-13.699 v 0 c -19.19,23.797 -47.694,43.154 -79.238,43.393 v 0 c -0.117,10e-4 -0.235,10e-4 -0.353,10e-4 v 0 c -3.938,0 -7.886,-0.49 -11.83,-0.98 M 20.96,580.305 c 1.464,-2.869 3.192,-7.404 6.324,-8.852 v 0 c 3.364,-1.555 8.02,1.052 11.588,1.176 v 0 c 3.357,0.117 6.94,-0.636 10.036,-1.942 v 0 c -3.982,0.808 -8.323,0.901 -12.138,-0.678 v 0 c 5.957,-3.217 11.325,-10.949 14.669,-16.603 v 0 c 1.767,-2.986 3.5,-5.925 6.9,-7.191 v 0 c 4.606,-1.712 9.809,-0.011 14.517,0.212 v 0 c -2.33,8.742 -7.356,17.373 -14.224,23.331 v 0 c 0.214,-0.172 0.429,-0.345 0.641,-0.519 v 0 c -7.033,6.333 -14.662,11.334 -23.503,14.826 v 0 c -7.181,2.838 -14.88,4.773 -21.102,9.606 v 0 c 1.778,-4.59 4.058,-8.99 6.292,-13.366 m 102.778,-24.931 c -0.068,0.017 -0.119,0.03 -0.149,0.036 v 0 c 0.053,-0.012 0.101,-0.024 0.149,-0.036 m 0.067,-0.017 c -0.022,0.005 -0.045,0.011 -0.067,0.017 v 0 c 0.021,-0.006 0.043,-0.011 0.067,-0.017 m 0.62,-0.154 c -0.035,0.009 -0.07,0.018 -0.105,0.027 v 0 c 0.036,-0.009 0.071,-0.018 0.105,-0.027 m 0.677,-0.169 c -0.161,0.041 -0.381,0.096 -0.677,0.169 v 0 c 0.239,-0.059 0.485,-0.121 0.677,-0.169 m 4.426,-5.715 c -0.626,0 -3.584,0.168 -4.09,0.168 v 0 c -3.564,0 -6.578,-1.647 -9.134,-4.701 v 0 c -2.235,-2.672 -3.96,-5.711 -5.448,-9.181 v 0 c -1.1,-2.561 -2.234,-5.211 -3.742,-7.611 v 0 l -0.993,-1.579 c -0.374,-1.269 -0.552,-2.659 -0.417,-4.399 v 0 c 0.602,-7.741 8.212,-11.828 10.675,-18.798 v 0 c -1.537,2.716 -3.663,4.963 -5.815,7.192 v 0 c 4.286,-6.712 2.748,-15.215 -0.443,-22.022 v 0 c -2.454,-5.239 -9.017,-15.248 -15.918,-10.312 v 0 c -4.482,3.207 -4.423,10.274 -3.478,15.016 v 0 c 0.75,3.756 2.616,7.099 4.585,7.922 v 0 c 2.988,1.249 2.879,-3.554 1.048,-4.861 v 0 c 0.714,1.153 1.086,3.907 -0.973,3.374 v 0 c -1.531,-0.397 -2.14,-4.373 -1.635,-5.616 v 0 c 2.119,-5.212 8.846,1.713 8.201,7.5 v 0 c -0.558,5.016 -5.146,7.355 -9.051,4.149 v 0 c -3.917,-3.217 -5.808,-9.485 -6.722,-14.261 v 0 c -1.719,-8.986 0.305,-23.687 11.142,-26.22 v 0 c 3.21,-0.75 6.241,0.14 9.011,1.92 v 0 c 0.024,0.015 0.044,0.029 0.069,0.047 v 0 c 3.188,2.11 6.102,5.421 8.565,8.88 v 0 c 1.729,2.456 3.19,4.923 4.327,6.94 v 0 c -0.022,-0.058 -0.05,-0.116 -0.073,-0.174 v 0 c 2.325,4.158 3.687,7.393 3.687,7.393 v 0 c -2.476,-6.7 -4.876,-11.646 -6.958,-15.252 v 0 c -0.104,-0.481 -0.186,-0.969 -0.221,-1.473 v 0 c -0.224,-3.304 -0.612,-6.599 -1.116,-9.871 v 0 c -1.56,-10.123 -4.211,-20.517 -9.557,-29.34 v 0 c -2.811,-4.641 -13.253,-16.548 -17.742,-6.782 v 0 c -3.984,8.665 5.354,19.896 11.431,24.791 v 0 C 90.909,446.9 83.178,438.061 83.969,427.821 v 0 c 1.088,-14.08 17.553,-12.625 25.126,-5.031 v 0 c 11.33,11.365 17.067,29.325 19.73,44.874 v 0 c -0.142,-5.436 -1.446,-10.534 -2.015,-15.874 v 0 c -0.326,-3.067 1.381,-6.242 2.601,-9.109 v 0 c 3.637,-8.547 9.023,-16.458 11.607,-25.416 v 0 c 1.764,-6.113 2.619,-21.048 -4.536,-15.521 v 0 c -5.754,4.446 -6.124,14.61 -5.632,21.696 v 0 c -1.52,-4.743 -1.643,-8.722 -1.272,-12.968 v 0 c 0.504,-5.75 4.506,-14.878 10.756,-14.878 v 0 c 7.071,0 5.798,12.834 5.313,16.72 v 0 c -1.247,9.971 -6.313,19.024 -10.48,27.999 v 0 c 7.683,-11.162 19.281,-35.099 8.59,-46.223 v 0 c 0,0 13.802,0.738 11.788,18.759 v 0 c -1.212,10.857 -6.384,22.573 -9.826,29.396 v 0 c 4.036,-4.374 8.101,-8.767 12.513,-12.702 v 0 c 6.195,-5.525 19.889,-11.417 22.303,-1.913 v 0 c 0.89,3.507 -1.684,6.693 -4.619,9.967 v 0 c -3.001,3.349 -7.072,5.804 -9.542,10.27 v 0 c -1.052,1.901 -0.892,4.031 1.39,4.621 v 0 c 3.218,0.83 8.91,-2.33 11.77,-4.896 v 0 c -2.159,3.604 -6.106,6.538 -10.269,7.229 v 0 c -4.275,0.711 -8.104,-1.622 -7.372,-6.219 v 0 c 0.77,-4.846 5.738,-8.806 9.03,-12.006 v 0 c 2.902,-2.817 7.389,-7.436 4.194,-9.04 v 0 c -1.435,-0.721 -4.549,0.234 -6.61,2.089 v 0 c -3.32,2.989 -6.392,7.072 -8.633,11.492 v 0 c -5.312,10.475 -8.976,12.786 -8.978,12.786 v 0 c -8.22,1.597 -12.84,6.237 -12.84,6.237 v 0 c 0,0 6.984,-5.287 18.297,-3.835 v 0 c 7.941,1.02 14.306,5.88 21.314,9.365 v 0 c 4.373,2.174 14.568,5.594 17.714,-0.48 v 0 c 1.159,-2.238 -0.08,-4.668 -2.335,-5.525 v 0 c -3.295,-1.254 -7.229,0.757 -8.991,3.584 v 0 c -0.008,-5.532 9.174,-8.408 13.202,-4.258 v 0 c 3.813,3.926 1.89,11.328 -9.146,12.552 v 0 c -3.444,0.383 -7.945,0.009 -11.319,-0.774 v 0 c -5.592,-1.3 -10.646,-4.294 -16.273,-5.589 v 0 c -11.488,-2.642 -20.1,2.772 -22.268,14.667 v 0 c 2.126,-6.056 5.492,-11.753 11.946,-13.747 v 0 c 6.708,-2.071 13.688,0.947 19.433,4.225 v 0 c -4.943,-1.324 -10.336,-3.345 -15.448,-1.793 v 0 c -4.123,1.253 -7.269,4.535 -9.259,8.264 v 0 c -3.742,7.013 -4.739,15.705 -4.651,23.536 v 0 c 0.103,9.089 3.308,19.035 0.807,27.983 v 0 c -2.075,7.426 -9.43,10.406 -12.162,17.234 v 0 c 2.712,-4.467 7.627,-7.316 11.162,-11.042 v 0 c -0.945,6.375 -7.017,9.343 -8.63,15.215 v 0 c -0.593,-0.28 -1.221,-0.423 -1.921,-0.423 m 2.547,-25.641 c -1.35,7.893 -7.139,13.887 -14.954,15.628 v 0 c 10.036,-0.914 16.415,-8.949 16.945,-17.974 v 0 l -2.216,-26.275 c -1.687,9.559 1.86,19.063 0.225,28.621 m -5.063,-3.411 c -0.575,6.908 -5.192,12.883 -12.35,13.505 v 0 c 6.387,0.726 11.712,-3.996 13.384,-9.924 v 0 c -0.189,0.666 -0.095,0.336 0,0.006 v 0 c 0.09,-0.32 0.181,-0.64 0.012,-0.048 v 0 c 1.324,-4.647 1.031,-10.956 -3.376,-13.944 v 0 c -3.554,-2.41 -7.807,-0.925 -10.523,1.989 v 0 c 1.916,-1.367 3.778,-1.973 5.464,-1.973 v 0 c 4.594,-10e-4 7.878,4.501 7.389,10.389 m -11.655,11.424 c 10.243,-2.957 10.392,-14.39 6.481,-17.096 v 0 c -4.607,-3.189 -10.416,0.335 -12.28,4.946 v 0 c -2.3,5.692 0.165,13.873 7.148,10.963 v 0 c -5.885,1.172 -7.694,-4.767 -6.102,-9.264 v 0 c 2.291,-6.465 11.993,-8.887 11.777,0.136 v 0 c -0.059,2.456 -1.05,6.19 -3.502,7.114 v 0 c -3.12,1.173 -5.688,-1.523 -5.607,-4.53 v 0 c 0.107,-4.031 2.608,-6.324 6.836,-6.525 v 0 c -5.119,-0.674 -7.801,2.701 -8.213,6.075 v 0 c -0.466,3.823 1.983,7.647 7.105,5.583 v 0 c -1.048,1.063 -2.297,1.958 -3.643,2.598 m 46.206,1.539 c -3.132,-3.081 -0.685,-7.069 1.776,-9.644 v 0 c 6.083,-6.369 13.164,-10.909 14.218,-20.491 v 0 c 1.023,-9.294 -5.53,-19.073 -14.486,-21.661 v 0 c -6.079,-1.756 -13.698,-0.446 -18.977,3.09 v 0 c 0.757,-3.091 2.515,-9.727 5.649,-11.615 v 0 c 1.68,-1.015 4.855,-1.01 6.898,-1.006 v 0 c 0.179,0 0.349,10e-4 0.509,10e-4 v 0 c 11.869,-0.022 23.658,8.251 25.725,20.399 v 0 c 1.943,11.419 -4.433,22.17 -12.689,29.4 v 0 c -2.278,1.997 -9.16,6.247 -6.727,10.094 v 0 c 1.933,3.056 6.804,1.557 9.433,0.401 v 0 c -1.768,1.615 -4.356,2.798 -6.833,2.798 v 0 c -1.637,0 -3.224,-0.516 -4.496,-1.766 m 3.218,-2.277 c -1.542,-2.372 2.775,-5.142 3.656,-5.866 v 0 c 0.882,-0.725 6.012,-5.221 8.523,-8.053 v 0 c 0,0 -1.436,2.947 -4.598,6.026 v 0 c -2.53,2.463 -6.002,5.469 -5.119,6.909 v 0 c 1.061,1.738 5.202,1.195 5.202,1.195 v 0 c 0,0 -2.51,0.996 -4.734,0.996 v 0 c -1.211,0 -2.338,-0.295 -2.93,-1.207 M 31.657,505.985 c 8.761,-8.495 12.583,-7.632 17.864,-17.53 v 0 c 0,0 1.551,10.612 -7.13,19.011 v 0 c -7.936,7.677 -14.813,6.257 -18.137,19.001 v 0 c 0,0 -1.359,-11.986 7.403,-20.482 m 96.389,17.863 c 0,0 0,0 0,0 m 0.007,-0.024 c -0.003,0.008 -0.005,0.016 -0.007,0.024 v 0 c 0.002,-0.008 0.004,-0.016 0.007,-0.024 m 0,-0.003 c 0,10e-4 0,0.002 0,0.003 v 0 c 0,-10e-4 0,-0.002 0,-0.003 m 0.005,-0.015 c -0.002,0.005 -0.003,0.01 -0.005,0.015 v 0 c 0.002,-0.005 0.003,-0.01 0.005,-0.015 M 22.662,518.842 c 0.082,-1.67 0.381,-4.145 1.39,-7.152 v 0 c 0.501,-1.503 1.208,-3.122 2.162,-4.798 v 0 c 0.982,-1.656 2.217,-3.365 3.778,-4.977 v 0 c 0.378,-0.415 0.802,-0.794 1.216,-1.201 v 0 c 0.408,-0.383 0.819,-0.772 1.24,-1.166 v 0 c 0.829,-0.785 1.685,-1.593 2.564,-2.423 v 0 c 1.724,-1.665 3.491,-3.422 5.09,-5.403 v 0 c 1.589,-1.98 3.046,-4.151 4.053,-6.578 v 0 c 0.249,-0.606 0.491,-1.22 0.676,-1.858 v 0 l 0.153,-0.474 c 0.007,-0.024 0.037,-0.11 0.025,-0.084 v 0 l 0.036,-0.134 0.072,-0.265 c 0.093,-0.35 0.203,-0.727 0.269,-1.042 v 0 c 0.299,-1.301 0.588,-2.726 0.784,-4.14 v 0 c 0.106,-0.667 0.192,-1.343 0.266,-2.026 v 0 c 1.545,-0.169 3.1,-0.483 4.653,-0.932 v 0 c -0.086,1.231 -0.202,2.455 -0.385,3.661 v 0 c -0.27,1.6 -0.608,3.124 -1.106,4.677 v 0 c -0.118,0.404 -0.24,0.728 -0.361,1.081 v 0 l -0.089,0.261 -0.045,0.129 c -0.036,0.116 -0.042,0.112 -0.065,0.175 v 0 l -0.225,0.555 c -0.28,0.746 -0.622,1.457 -0.971,2.155 v 0 c -0.715,1.381 -1.513,2.684 -2.402,3.86 v 0 c -0.866,1.197 -1.819,2.27 -2.784,3.269 v 0 c -1.944,1.985 -3.937,3.682 -5.882,5.172 v 0 c -0.968,0.736 -1.912,1.454 -2.83,2.153 v 0 c -0.456,0.344 -0.909,0.685 -1.352,1.019 v 0 c -0.411,0.343 -0.834,0.659 -1.214,1.014 v 0 c -3.125,2.754 -5.138,5.921 -6.386,8.692 v 0 c -1.257,2.787 -1.758,5.184 -2.039,6.811 v 0 c -0.267,1.637 -0.263,2.532 -0.263,2.532 v 0 c 0,0 -0.106,-0.887 -0.028,-2.563 m 54.696,-34.396 c 0,-10.818 7.427,-23.765 19.213,-21.868 v 0 c 0.134,0.018 0.276,0.039 0.435,0.068 v 0 c 0.05,0.01 0.101,0.021 0.153,0.03 v 0 c 0.321,0.064 0.676,0.144 1.09,0.255 v 0 c -9.595,1.077 -14.308,12.174 -14.656,20.616 v 0 c -0.303,7.365 2.437,24.491 13.334,25.477 v 0 c -0.931,0.149 -1.833,0.222 -2.703,0.222 v 0 c -10.832,0.001 -16.866,-11.235 -16.866,-24.8 m 66.607,1.788 c 1.369,-1.707 4.493,-2.567 6.445,-3.166 v 0 c 7.954,-2.439 15.914,-0.748 21.32,5.772 v 0 c -8.868,-9.304 -24.388,-3.691 -29.417,6.933 v 0 c 0.099,-2.588 -0.004,-7.475 1.652,-9.539 M 40.356,473.525 c -0.779,-0.106 -1.51,-0.217 -2.336,-0.407 v 0 c -0.664,-0.138 -1.618,-0.419 -2.362,-0.717 v 0 c -1.577,-0.599 -3.082,-1.529 -4.418,-2.69 v 0 c -1.316,-1.184 -2.458,-2.608 -3.322,-4.189 v 0 c -1.76,-3.165 -2.53,-6.804 -2.658,-10.428 v 0 c -0.112,-3.64 0.404,-7.307 1.349,-10.892 v 0 c 1.911,-7.175 5.571,-14.025 10.441,-20.029 v 0 c 1.3,-1.6 2.694,-3.133 4.162,-4.601 v 0 c -0.114,0.538 -0.217,1.082 -0.308,1.628 v 0 c -0.352,2.115 -0.553,4.062 -0.612,5.945 v 0 c -0.023,0.651 -0.029,1.317 -0.028,1.989 v 0 c -4.098,4.942 -7.274,10.558 -9.107,16.386 v 0 c -0.984,3.165 -1.575,6.394 -1.613,9.524 v 0 c -0.045,3.119 0.447,6.168 1.696,8.72 v 0 c 0.609,1.282 1.424,2.411 2.375,3.373 v 0 c 0.971,0.935 2.074,1.721 3.296,2.261 v 0 c 2.449,1.085 5.276,1.468 7.891,1.468 v 0 c 5.305,-0.037 10.068,-1.917 13.914,-4.101 v 0 c 3.875,-2.205 6.902,-4.766 9.276,-6.97 v 0 c 2.38,-2.213 4.087,-4.138 5.216,-5.475 v 0 c 1.136,-1.334 1.686,-2.095 1.686,-2.095 v 0 c 0,0 -0.462,0.816 -1.452,2.275 v 0 c -1.002,1.447 -2.536,3.535 -4.737,6.002 v 0 c -2.222,2.437 -5.124,5.267 -8.996,7.88 v 0 c -1.934,1.304 -4.135,2.514 -6.613,3.475 v 0 c -2.471,0.962 -5.239,1.663 -8.202,1.817 v 0 c -0.479,0.028 -0.963,0.042 -1.45,0.042 v 0 c -1.017,0 -2.049,-0.061 -3.088,-0.191 m 69.824,-6.659 c 0.375,-8.925 -1.256,-18.017 -3.792,-26.519 v 0 c 4.414,9.713 6.54,20.535 7.476,31.139 v 0 c -1.59,-2.359 -2.87,-3.806 -3.684,-4.62 m -65.852,2.061 c -2.054,-0.031 -3.947,-0.323 -5.564,-0.851 v 0 c 1.519,-2.449 6.565,-5.711 13.785,-7.422 v 0 c 9.272,-2.196 16.41,-6.043 19.931,-8.565 v 0 c -2.656,3.225 -5.69,5.945 -6.781,6.931 v 0 c -2.07,1.865 -4.93,4.276 -8.706,6.353 v 0 c -4.299,2.359 -8.509,3.554 -12.514,3.555 v 0 c -0.05,0 -0.101,-10e-4 -0.151,-10e-4 m 146.26,-5.333 c -0.928,-1.257 -2.146,-1.563 -3.279,-1.48 v 0 c 1.101,-0.768 2.393,-1.238 3.622,-1.238 v 0 c 0.55,0 1.075,0.094 1.562,0.279 v 0 c 0.772,0.292 1.365,0.856 1.626,1.545 v 0 c 0.154,0.406 0.258,1.044 -0.127,1.785 v 0 c -0.603,1.163 -1.597,1.917 -2.993,2.294 v 0 c 0.519,-0.845 0.506,-1.943 -0.411,-3.185 M 45.86,458.646 c -0.919,-6.51 -2.475,-13.231 -3.394,-20.382 v 0 c -0.461,-3.577 -0.742,-7.271 -0.61,-11.07 v 0 c 0.061,-1.898 0.272,-3.816 0.593,-5.738 v 0 c 0.317,-1.923 0.796,-3.843 1.453,-5.718 v 0 c 1.275,-3.762 3.264,-7.333 5.777,-10.378 v 0 c 0.635,-0.776 1.249,-1.475 1.977,-2.23 v 0 l 0.464,-0.47 0.232,-0.235 0.279,-0.265 c 0.372,-0.346 0.752,-0.723 1.12,-1.038 v 0 c 1.459,-1.297 3.009,-2.472 4.622,-3.523 v 0 c 6.477,-4.192 13.821,-6.356 20.902,-6.823 v 0 c 7.076,-0.473 14.051,0.467 20.105,3.1 v 0 c 6.022,2.569 10.931,6.38 14.7,10.414 v 0 c 3.793,4.036 6.62,8.207 8.766,12.057 v 0 c 2.162,3.844 3.686,7.356 4.793,10.291 v 0 c 1.123,2.928 1.811,5.292 2.251,6.905 v 0 c 0.437,1.615 0.602,2.491 0.602,2.491 v 0 c 0,0 -0.314,-0.834 -0.977,-2.359 v 0 c -0.664,-1.524 -1.694,-3.733 -3.141,-6.459 v 0 c -1.468,-2.71 -3.357,-5.941 -5.822,-9.403 v 0 c -2.488,-3.433 -5.523,-7.141 -9.355,-10.524 v 0 c -3.838,-3.347 -8.434,-6.443 -13.794,-8.245 v 0 c -1.328,-0.451 -2.72,-0.833 -4.105,-1.118 v 0 l -1.028,-0.205 -1.164,-0.201 -1.038,-0.138 -1.099,-0.116 c -2.949,-0.267 -6.004,-0.212 -9.054,0.176 v 0 c -6.087,0.803 -12.236,2.814 -17.349,6.433 v 0 c -1.275,0.899 -2.486,1.892 -3.612,2.97 v 0 c -0.29,0.266 -0.521,0.521 -0.786,0.781 v 0 l -0.195,0.195 -0.224,0.243 -0.445,0.486 c -0.475,0.53 -1.02,1.161 -1.484,1.766 v 0 c -1.904,2.464 -3.454,5.153 -4.549,8.083 v 0 c -2.212,5.855 -2.692,12.575 -2.476,19.347 v 0 c 0.23,6.787 1.093,13.63 1.736,20.338 v 0 c 0.042,0.48 0.08,0.959 0.12,1.437 v 0 c -1.614,0.446 -3.096,0.965 -4.45,1.529 v 0 c -0.103,-0.798 -0.216,-1.6 -0.341,-2.404 m 30.193,-29.203 c -0.581,-7.41 2.225,-14.051 9.995,-15.549 v 0 c 5.46,-1.054 11.856,0.117 16.825,2.567 v 0 c -5.866,-1.518 -14.08,-1.742 -18.107,3.628 v 0 c -3.932,5.243 -2.557,13.736 0.1,19.178 v 0 c 3.596,7.365 10.453,12.838 17.346,16.944 v 0 C 89.502,452.892 77.145,443.398 76.053,429.443 m 91.978,22.085 c -0.617,-0.159 -1.024,-0.463 -1.213,-0.905 v 0 c -0.259,-0.601 -0.121,-1.486 0.365,-2.366 v 0 c 0.644,-1.166 1.423,-2.182 2.263,-3.12 v 0 c -0.722,1.63 -0.973,3.403 -0.082,4.745 v 0 c 0.56,0.842 1.425,1.148 2.306,1.202 v 0 c -0.99,0.341 -1.93,0.549 -2.732,0.549 v 0 c -0.334,0 -0.64,-0.035 -0.907,-0.105 m -53.91,-25.405 c -0.766,-1.106 -1.586,-2.193 -2.475,-3.247 v 0 c -3.714,-4.422 -8.568,-8.284 -14.386,-10.716 v 0 c -2.893,-1.24 -6.017,-2.095 -9.255,-2.604 v 0 c -3.245,-0.492 -6.611,-0.598 -10.003,-0.332 v 0 c -6.785,0.541 -13.644,2.606 -19.975,5.791 v 0 c -1.637,0.826 -3.231,1.738 -4.779,2.719 v 0 c 0.964,-2.24 2.228,-4.408 3.808,-6.454 v 0 c 0.377,-0.49 0.849,-1.054 1.41,-1.677 v 0 l 0.658,-0.718 c 0,0 0.353,-0.35 0.461,-0.46 v 0 c 0.134,-0.138 0.27,-0.277 0.425,-0.42 v 0 c 1.054,-1.008 2.18,-1.933 3.364,-2.775 v 0 c 4.453,-1.721 9.101,-2.953 13.851,-3.546 v 0 c 3.919,-0.485 7.888,-0.543 11.791,-0.129 v 0 c 3.899,0.431 7.736,1.3 11.348,2.657 v 0 c 7.264,2.657 13.53,7.192 18.305,12.402 v 0 c 4.807,5.217 8.18,11.049 10.589,16.605 v 0 c 0.479,1.105 0.911,2.199 1.318,3.284 v 0 c -0.916,1.829 -1.805,3.682 -2.604,5.562 v 0 c -0.181,0.424 -0.373,0.855 -0.566,1.29 v 0 c -0.674,1.52 -1.401,3.156 -1.827,4.854 v 0 c -2.642,-7.747 -6.325,-15.546 -11.458,-22.086 m 57.03,-5.537 c -8.727,1.456 -14.896,8.169 -20.754,14.302 v 0 c 5.544,-7.842 13.202,-17.703 23.9,-17.274 v 0 c 9.683,0.389 11.94,11.096 6.426,17.773 v 0 c -0.025,0.035 -0.083,0.111 -0.208,0.254 v 0 c 4.224,-7.953 0.52,-16.703 -9.364,-15.055 m -35.375,-16.631 c 2.509,-3.046 5.354,-2.837 5.445,2.638 v 0 c 0,0 -0.948,-2.311 -2.744,-2.279 v 0 c -3.074,0.056 -5.708,6.359 -5.708,6.359 v 0 c 0,0 0.495,-3.672 3.007,-6.718"
         id="path60" /></clipPath><clipPath
       clipPathUnits="userSpaceOnUse"
       id="clipPath72"><path
         d="M 0,1000 H 1000 V 0 H 0 Z"
         id="path70" /></clipPath><linearGradient
       id="a"
       x1="0.39649951"
       x2="98.808388"
       y1="55.252808"
       y2="55.252808"
       gradientTransform="matrix(0.11836633,0,0,-0.12247482,-4.0800543,675.96997)"
       gradientUnits="userSpaceOnUse"
       xlink:href="#b"><stop
         offset="0"
         stop-color="#00d2e6"
         id="stop2" /><stop
         offset="1"
         stop-color="#2eccaa"
         id="stop4" /></linearGradient><linearGradient
       id="b"
       x1="49.0172"
       x2="99.792671"
       y1="137.88686"
       y2="113.96209"
       gradientTransform="matrix(0.87229622,0,0,-0.64484975,-93.050784,642.27855)"
       gradientUnits="userSpaceOnUse"><stop
         offset="0"
         stop-opacity="0"
         id="stop7" /><stop
         offset=".514125333"
         id="stop9" /><stop
         offset="1"
         stop-opacity="0"
         id="stop11" /></linearGradient><linearGradient
       id="c"
       x1="201.82208"
       x2="103.57667"
       y1="57.648952"
       y2="57.648952"
       gradientTransform="matrix(0.11836633,0,0,-0.12247482,-4.0800543,675.96997)"
       gradientUnits="userSpaceOnUse"><stop
         offset="0"
         stop-color="#1fa385"
         id="stop14" /><stop
         offset="1"
         stop-color="#2eccaa"
         id="stop16" /></linearGradient><linearGradient
       inkscape:collect="always"
       xlink:href="#b"
       id="linearGradient1157"
       gradientUnits="userSpaceOnUse"
       gradientTransform="matrix(0.87229622,0,0,-0.64484975,-93.050784,642.27855)"
       x1="49.0172"
       y1="137.88686"
       x2="99.792671"
       y2="113.96209" /></defs><sodipodi:namedview
     id="namedview4"
     pagecolor="#505050"
     bordercolor="#ffffff"
     borderopacity="1"
     inkscape:pageshadow="0"
     inkscape:pageopacity="0"
     inkscape:pagecheckerboard="1"
     showgrid="false"
     inkscape:zoom="5.2166666"
     inkscape:cx="62.492014"
     inkscape:cy="28.083067"
     inkscape:window-width="1888"
     inkscape:window-height="1060"
     inkscape:window-x="32"
     inkscape:window-y="0"
     inkscape:window-maximized="1"
     inkscape:current-layer="g8" /><g
     id="g8"
     inkscape:groupmode="layer"
     inkscape:label="turbosquid"
     transform="matrix(1.3333333,0,0,-1.3333333,10.804372,905.45863)"><rect
       style="fill:#ffffff;stroke:#414141;stroke-width:1.49999;stroke-linecap:round;stroke-miterlimit:4;stroke-dasharray:none;stroke-opacity:1;paint-order:stroke markers fill"
       id="rect949"
       width="110.30347"
       height="22.5"
       x="-7.3532844"
       y="-678.34399"
       transform="scale(1,-1)"
       ry="2.25"
       rx="2.25" /><g
       aria-label="Free3D"
       transform="matrix(0.89577976,0,0,-0.89577976,2.7777958,69.524699)"
       id="text7279"
       style="font-size:21.9817px;line-height:1.25;stroke-width:0.549542" /><path
       inkscape:connector-curvature="0"
       style="fill:url(#a);fill-opacity:1;fill-rule:nonzero;stroke-width:0.75"
       id="path21"
       d="m 11.240905,662.53222 c -0.347768,0.002 -0.694312,0.0725 -1.020986,0.21487 -0.7358644,0.3206 -1.3838434,0.92604 -1.910985,1.74522 0.1503301,0.26722 0.2858138,0.54391 0.406774,0.82518 0.5303822,1.23332 0.782623,2.58382 0.8019681,3.92434 -0.00286,0.0266 -0.00506,0.0532 -0.00667,0.0801 l -0.00143,0.0688 c -0.00124,0.52562 -0.081223,1.05831 -0.2620777,1.55427 -0.2083489,0.57141 -0.5404526,1.14328 -1.0673711,1.3663 -0.095743,0.0405 -0.1964514,0.0574 -0.2966924,0.0551 -0.6628034,1.23881 -0.6838821,2.42595 0,3.55636 0.01218,0 0.024828,-4e-5 0.037009,-1.4e-4 0.8068402,-0.01 1.6061853,-0.25788 2.2902081,-0.69275 1.862549,-1.18416 2.791176,-3.49179 2.811644,-5.75744 2.41e-4,-0.0266 -4.6e-5,-0.0532 -8.49e-4,-0.0797 h 0.01046 c -0.0028,-2.39442 -0.578524,-4.82257 -1.790989,-6.86042 z m -4.1297801,-3.75848 c -1.7395684,-0.71549 -3.7599704,-0.6771 -5.4842768,0.12341 -1.9837273,0.92078 -3.4995094,2.71052 -4.4330543,4.75339 -1.5968182,3.49429 -1.6333543,7.67149 -0.118977,11.21935 1.1373046,-0.45498 2.14860692,0.26966 2.14860692,0.26966 0,0 -0.00238,-1.11499 1.07734811,-1.6742 -1.10779578,-2.59545 -1.08109564,-5.679 0.0290409,-8.20822 0.53445851,-1.21694 1.35090157,-2.35016 2.48258567,-2.99101 0.4039205,-0.22873 0.8477586,-0.37639 1.3043291,-0.43179 0.00162,-0.003 0.00343,-0.006 0.00506,-0.009 0.8062817,-1.25809 1.8219635,-2.30653 2.9893232,-3.05267 z" /><path
       inkscape:connector-curvature="0"
       style="opacity:0.3;fill:url(#linearGradient1157);fill-rule:evenodd;stroke-width:0.75"
       id="path23"
       d="m 2.3814537,558.56845 c -2.16519803,0.0113 -4.322723,0.45222 -6.356596,1.33849 -4.584495,1.99727 -8.6213697,5.76959 -11.9052597,10.87357 0.937058,1.66536 1.781513,3.38984 2.535413,5.14293 0.996127,2.31631 1.834695,4.69863 2.523292,7.12574 1.5960227,5.62338 22.786381,-1.51356 19.5537757,-10.7782 -1.667895,-4.77973 -3.779573,-9.38191 -6.350625,-13.70253 z M -23.345113,535.15977 c -10.834764,-4.45469 -23.417762,-4.21484 -34.156933,0.77084 -12.356787,5.73566 0.335544,24.97751 7.384893,20.98556 2.514965,-1.42408 5.278365,-2.34372 8.121084,-2.68918 0.01175,-0.0184 0.02351,-0.0367 0.03528,-0.0551 5.021229,-7.83492 11.346228,-14.36458 18.615676,-19.01211 z" /><path
       inkscape:connector-curvature="0"
       style="fill:url(#c);fill-rule:nonzero;stroke-width:0.75"
       id="path25"
       d="m 2.7543167,669.39264 c -8.025e-4,0.0266 -0.00114,0.0531 -8.511e-4,0.0797 0.020472,2.26564 0.9490975,4.57327 2.8116448,5.75744 0.6840233,0.43486 1.4833694,0.68386 2.2902087,0.69274 0.01218,1.1e-4 0.024828,1.5e-4 0.037009,1.5e-4 v -3.55636 c -0.1002392,0.003 -0.2009481,-0.0147 -0.2966924,-0.0551 -0.5269167,-0.22302 -0.8590213,-0.79489 -1.0673702,-1.3663 -0.1808548,-0.49596 -0.2609066,-1.02865 -0.2620779,-1.55426 l -0.00143,-0.0689 c -0.00162,-0.0267 -0.00382,-0.0535 -0.00667,-0.0801 0.019338,-1.34051 0.271586,-2.69102 0.8019701,-3.92433 0.5939937,-1.38127 1.5381722,-2.65189 2.8712733,-3.23267 1.005682,-0.43824 2.120503,-0.33486 3.032034,0.18129 1.131685,0.64086 1.948128,1.77407 2.482586,2.99101 1.110137,2.52922 1.136836,5.61277 0.02904,8.20822 1.079689,0.55921 1.077347,1.6742 1.077347,1.6742 0,0 1.011304,-0.72464 2.148607,-0.26966 1.514377,-3.54786 1.477842,-7.72506 -0.118976,-11.21935 -0.933546,-2.04287 -2.449328,-3.83261 -4.433055,-4.75339 -1.765914,-0.81984 -3.842386,-0.84031 -5.6097056,-0.0702 -1.5881545,0.69218 -2.8798476,1.93927 -3.8091779,3.38936 -1.3459365,2.10017 -1.9833046,4.65696 -1.9861629,7.17643 z" /><text
       xml:space="preserve"
       style="font-style:normal;font-variant:normal;font-weight:normal;font-stretch:normal;font-size:20.3626px;line-height:1.25;font-family:'Source Sans Pro';-inkscape-font-specification:'Source Sans Pro';fill:#21a98a;fill-opacity:1;stroke:none;stroke-width:0.75"
       x="21.463442"
       y="-630.43542"
       id="text3995"
       transform="scale(1,-1)"><tspan
         sodipodi:role="line"
         id="tspan3993"
         style="font-style:normal;font-variant:normal;font-weight:normal;font-stretch:normal;font-family:'Source Sans Pro';-inkscape-font-specification:'Source Sans Pro';fill:#21a98a;fill-opacity:1;stroke-width:0.75"
         x="21.463442"
         y="-630.43542">WEBLATE</tspan></text><g
       aria-label="WEBLATE"
       transform="matrix(0.95309671,0,0,-0.95309671,2.2419017,31.288899)"
       id="text846"
       style="font-size:20.3626px;line-height:1.25;font-family:'Source Sans Pro';-inkscape-font-specification:'Source Sans Pro';fill:#21a98a;stroke-width:0.786909"><path
         d="m 24.477107,-660.43542 -2.647138,-13.31715 h 2.423149 l 1.160668,6.71966 q 0.162901,1.07922 0.325802,2.13808 0.162901,1.05885 0.325802,2.11771 h 0.08145 q 0.223989,-1.05886 0.427615,-2.11771 0.223988,-1.07922 0.447977,-2.13808 l 1.629008,-6.71966 h 2.056622 l 1.629008,6.71966 q 0.223989,1.0385 0.447978,2.11771 0.223988,1.05886 0.447977,2.13808 h 0.08145 q 0.162901,-1.07922 0.305439,-2.13808 0.162901,-1.05885 0.325802,-2.11771 l 1.160668,-6.71966 h 2.260249 l -2.545325,13.31715 h -2.932215 l -1.64937,-7.00474 q -0.162901,-0.77378 -0.325802,-1.52719 -0.142538,-0.77378 -0.264714,-1.54756 h -0.08145 q -0.142538,0.77378 -0.305439,1.54756 -0.142538,0.75341 -0.305439,1.52719 l -1.608646,7.00474 z"
         id="path848"
         style="stroke-width:0.786909" /><path
         d="m 39.443602,-660.43542 v -13.31715 h 8.022864 v 1.99554 h -5.660803 v 3.40055 h 4.785211 v 1.99554 h -4.785211 v 3.92998 h 5.864429 v 1.99554 z"
         id="path850"
         style="stroke-width:0.786909" /><path
         d="m 50.398643,-660.43542 v -13.31715 h 4.255784 q 1.038493,0 1.893722,0.18327 0.875592,0.1629 1.506832,0.54979 0.651603,0.36652 0.997768,0.99777 0.366526,0.63124 0.366526,1.54755 0,0.95705 -0.488702,1.77155 -0.488702,0.8145 -1.364294,1.11994 v 0.0815 q 1.09958,0.24435 1.812271,1.0385 0.733054,0.77377 0.733054,2.11771 0,0.99776 -0.38689,1.73082 -0.386889,0.73305 -1.079217,1.22175 -0.671966,0.48871 -1.608646,0.73306 -0.936679,0.22399 -2.03626,0.22399 z m 2.362062,-7.81924 h 1.690096 q 1.405019,0 2.015897,-0.50907 0.631241,-0.50906 0.631241,-1.36429 0,-0.97741 -0.651603,-1.38466 -0.651603,-0.40725 -1.95481,-0.40725 h -1.730821 z m 0,5.9866 h 1.995535 q 1.466107,0 2.260249,-0.52943 0.794141,-0.54979 0.794141,-1.66973 0,-1.05885 -0.773779,-1.52719 -0.773779,-0.48871 -2.280611,-0.48871 h -1.995535 z"
         id="path852"
         style="stroke-width:0.786909" /><path
         d="m 62.55508,-660.43542 v -13.31715 h 2.362062 v 11.32161 h 5.538627 v 1.99554 z"
         id="path854"
         style="stroke-width:0.786909" /><path
         d="m 75.505669,-667.52161 -0.46834,1.62901 h 3.400554 l -0.468339,-1.62901 q -0.325802,-1.05885 -0.631241,-2.1788 -0.285076,-1.11994 -0.570153,-2.21952 H 76.6867 q -0.285077,1.11994 -0.570153,2.23988 -0.285076,1.09959 -0.610878,2.15844 z m -4.45941,7.08619 4.337234,-13.31715 h 2.769314 l 4.337234,13.31715 h -2.484237 l -1.038493,-3.60419 h -4.479772 l -1.038493,3.60419 z"
         id="path856"
         style="stroke-width:0.786909" /><path
         d="m 85.524022,-660.43542 v -11.32161 H 81.67549 v -1.99554 h 10.059125 v 1.99554 h -3.848531 v 11.32161 z"
         id="path858"
         style="stroke-width:0.786909" /><path
         d="m 93.954128,-660.43542 v -13.31715 h 8.022862 v 1.99554 h -5.6608 v 3.40055 h 4.78521 v 1.99554 h -4.78521 v 3.92998 h 5.86443 v 1.99554 z"
         id="path860"
         style="stroke-width:0.786909" /></g></g></svg>
